{"glyphs":{"0":{"ha":976,"x_min":57,"x_max":921,"o":"m 490 982 q 809 854 697 982 q 921 488 921 726 q 809 120 921 249 q 490 -8 697 -8 q 169 120 281 -8 q 57 488 57 249 q 169 854 57 726 q 490 982 281 982 m 490 793 q 358 722 399 793 q 318 488 318 650 q 358 252 318 324 q 490 181 399 181 q 620 253 579 181 q 661 488 661 325 q 620 722 661 650 q 490 793 579 793 z "},"1":{"ha":561,"x_min":-21,"x_max":421,"o":"m -21 974 l 421 974 l 421 0 l 167 0 l 167 765 l -21 765 l -21 974 z "},"2":{"ha":840,"x_min":24,"x_max":794,"o":"m 794 204 l 794 0 l 53 0 l 51 168 l 406 532 q 474 618 447 575 q 500 692 500 661 q 471 753 500 732 q 389 775 442 775 q 259 742 331 775 q 121 651 188 710 l 24 839 q 428 985 225 985 q 602 953 525 985 q 723 863 679 921 q 767 729 767 804 q 717 574 767 654 q 578 404 668 494 l 379 204 l 794 204 z "},"3":{"ha":838,"x_min":13,"x_max":792,"o":"m 531 574 q 720 487 649 557 q 792 307 792 417 q 743 142 792 214 q 606 29 694 69 q 397 -11 517 -11 q 187 22 290 -11 q 13 108 83 54 l 107 288 q 238 210 168 236 q 376 183 307 183 q 500 215 457 183 q 543 304 543 246 q 500 393 543 363 q 375 424 457 424 l 211 424 l 211 563 l 436 779 l 64 779 l 64 974 l 744 974 l 744 826 l 479 583 l 531 574 z "},"4":{"ha":843,"x_min":-1,"x_max":797,"o":"m 797 403 l 797 210 l 672 210 l 672 0 l 439 0 l 439 210 l -1 210 l -1 382 l 275 974 l 517 974 l 257 403 l 439 403 l 439 610 l 672 610 l 672 403 l 797 403 z "},"5":{"ha":868,"x_min":39,"x_max":821,"o":"m 444 621 q 642 583 557 621 q 774 479 728 546 q 821 326 821 413 q 772 149 821 225 q 633 31 724 72 q 424 -11 543 -11 q 223 22 326 -11 q 39 110 119 56 l 133 293 q 396 185 268 185 q 508 217 468 185 q 549 307 549 250 q 509 394 549 364 q 390 424 469 424 q 124 418 206 424 l 124 974 l 778 974 l 778 769 l 357 769 l 357 621 l 444 621 z "},"6":{"ha":875,"x_min":35,"x_max":807,"o":"m 693 729 q 601 776 653 760 q 493 792 549 792 q 324 724 381 792 q 271 536 268 657 q 497 640 344 640 q 660 601 590 640 q 769 490 731 561 q 807 324 807 418 q 763 147 807 222 q 637 30 718 71 q 449 -11 556 -11 q 228 47 321 -11 q 85 215 135 106 q 35 471 35 324 q 90 742 35 625 q 244 922 144 858 q 478 985 344 985 q 642 963 558 985 q 788 904 726 940 l 693 729 m 443 458 q 335 420 374 458 q 297 322 297 382 q 333 226 297 264 q 439 189 369 189 q 542 224 504 189 q 579 325 579 260 q 543 423 579 388 q 443 458 507 458 z "},"7":{"ha":818,"x_min":18,"x_max":794,"o":"m 18 974 l 794 974 l 794 797 l 428 0 l 158 0 l 513 769 l 243 769 l 242 632 l 18 632 l 18 974 z "},"8":{"ha":876,"x_min":29,"x_max":813,"o":"m 419 985 q 669 913 576 985 q 763 721 763 842 q 731 606 763 660 q 647 521 700 553 q 768 420 724 486 q 813 274 813 354 q 765 123 813 188 q 628 24 717 58 q 421 -11 539 -11 q 215 24 303 -11 q 78 122 126 58 q 29 269 29 185 q 78 419 29 351 q 207 521 126 486 q 114 611 149 556 q 79 728 79 667 q 121 864 79 806 q 240 953 163 922 q 419 985 317 985 m 421 814 q 324 786 358 814 q 290 707 290 758 q 324 630 290 657 q 421 603 358 603 q 518 630 485 603 q 551 707 551 657 q 518 786 551 758 q 421 814 485 814 m 421 417 q 308 385 347 417 q 268 296 268 354 q 308 206 268 238 q 421 175 347 175 q 535 206 494 175 q 575 296 575 238 q 535 385 575 354 q 421 417 494 417 z "},"9":{"ha":874,"x_min":33,"x_max":804,"o":"m 146 244 q 239 198 188 214 q 346 182 290 182 q 514 249 457 182 q 568 439 571 317 q 342 333 494 333 q 179 373 249 333 q 72 484 110 413 q 33 650 33 556 q 78 827 33 751 q 203 944 122 903 q 390 985 283 985 q 611 926 518 985 q 754 760 704 868 q 804 503 804 651 q 749 232 804 349 q 594 52 694 115 q 361 -11 494 -11 q 197 11 281 -11 q 53 69 114 33 l 146 244 m 400 785 q 299 749 335 785 q 263 649 263 714 q 297 551 263 586 q 396 515 332 515 q 503 553 465 515 q 542 653 542 592 q 506 747 542 710 q 400 785 469 785 z "},"\u0000":{"ha":0,"x_min":0,"x_max":0,"o":""},"\r":{"ha":308,"x_min":0,"x_max":0,"o":""}," ":{"ha":308,"x_min":0,"x_max":0,"o":""},"A":{"ha":1074,"x_min":-7,"x_max":1081,"o":"m 810 0 l 743 172 l 322 172 l 254 0 l -7 0 l 411 974 l 672 974 l 1081 0 l 810 0 m 399 367 l 668 367 l 535 714 l 399 367 z "},"Á":{"ha":1074,"x_min":-7,"x_max":1081,"o":"m 810 0 l 743 172 l 322 172 l 254 0 l -7 0 l 411 974 l 672 974 l 1081 0 l 810 0 m 399 367 l 668 367 l 535 714 l 399 367 m 579 1281 l 783 1203 l 582 1043 l 413 1057 l 579 1281 z "},"Ă":{"ha":1074,"x_min":-7,"x_max":1081,"o":"m 810 0 l 743 172 l 322 172 l 254 0 l -7 0 l 411 974 l 672 974 l 1081 0 l 810 0 m 399 367 l 668 367 l 535 714 l 399 367 m 461 1272 q 485 1215 464 1236 q 538 1193 506 1193 q 590 1215 568 1193 q 614 1272 611 1236 l 767 1272 q 700 1110 763 1171 q 538 1049 638 1049 q 374 1110 438 1049 q 307 1272 311 1171 l 461 1272 z "},"Ắ":{"ha":1074,"x_min":-7,"x_max":1081,"o":"m 810 0 l 743 172 l 322 172 l 254 0 l -7 0 l 411 974 l 672 974 l 1081 0 l 810 0 m 399 367 l 668 367 l 535 714 l 399 367 z "},"Ặ":{"ha":1074,"x_min":-7,"x_max":1081,"o":"m 810 0 l 743 172 l 322 172 l 254 0 l -7 0 l 411 974 l 672 974 l 1081 0 l 810 0 m 399 367 l 668 367 l 535 714 l 399 367 m 525 -94 q 619 -131 582 -94 q 656 -226 656 -168 q 619 -321 656 -283 q 525 -358 582 -358 q 431 -321 468 -358 q 394 -226 394 -283 q 431 -131 394 -168 q 525 -94 468 -94 m 451 1272 q 475 1215 454 1236 q 528 1193 496 1193 q 580 1215 558 1193 q 604 1272 601 1236 l 757 1272 q 690 1110 753 1171 q 528 1049 628 1049 q 365 1110 428 1049 q 297 1272 301 1171 l 451 1272 z "},"Ằ":{"ha":1074,"x_min":-7,"x_max":1081,"o":"m 810 0 l 743 172 l 322 172 l 254 0 l -7 0 l 411 974 l 672 974 l 1081 0 l 810 0 m 399 367 l 668 367 l 535 714 l 399 367 z "},"Ẳ":{"ha":1074,"x_min":-7,"x_max":1081,"o":"m 810 0 l 743 172 l 322 172 l 254 0 l -7 0 l 411 974 l 672 974 l 1081 0 l 810 0 m 399 367 l 668 367 l 535 714 l 399 367 z "},"Ẵ":{"ha":1074,"x_min":-7,"x_max":1081,"o":"m 810 0 l 743 172 l 322 172 l 254 0 l -7 0 l 411 974 l 672 974 l 1081 0 l 810 0 m 399 367 l 668 367 l 535 714 l 399 367 z "},"Â":{"ha":1074,"x_min":-7,"x_max":1081,"o":"m 810 0 l 743 172 l 322 172 l 254 0 l -7 0 l 411 974 l 672 974 l 1081 0 l 810 0 m 399 367 l 668 367 l 535 714 l 399 367 m 799 1051 l 621 1051 l 539 1144 l 456 1051 l 278 1051 l 429 1264 l 647 1264 l 799 1051 z "},"Ấ":{"ha":1074,"x_min":-7,"x_max":1081,"o":"m 810 0 l 743 172 l 322 172 l 254 0 l -7 0 l 411 974 l 672 974 l 1081 0 l 810 0 m 399 367 l 668 367 l 535 714 l 399 367 z "},"Ậ":{"ha":1074,"x_min":-7,"x_max":1081,"o":"m 810 0 l 743 172 l 322 172 l 254 0 l -7 0 l 411 974 l 672 974 l 1081 0 l 810 0 m 399 367 l 668 367 l 535 714 l 399 367 m 525 -94 q 619 -131 582 -94 q 656 -226 656 -168 q 619 -321 656 -283 q 525 -358 582 -358 q 431 -321 468 -358 q 394 -226 394 -283 q 431 -131 394 -168 q 525 -94 468 -94 m 789 1051 l 611 1051 l 529 1144 l 446 1051 l 268 1051 l 419 1264 l 638 1264 l 789 1051 z "},"Ầ":{"ha":1074,"x_min":-7,"x_max":1081,"o":"m 810 0 l 743 172 l 322 172 l 254 0 l -7 0 l 411 974 l 672 974 l 1081 0 l 810 0 m 399 367 l 668 367 l 535 714 l 399 367 z "},"Ẩ":{"ha":1074,"x_min":-7,"x_max":1081,"o":"m 810 0 l 743 172 l 322 172 l 254 0 l -7 0 l 411 974 l 672 974 l 1081 0 l 810 0 m 399 367 l 668 367 l 535 714 l 399 367 z "},"Ẫ":{"ha":1074,"x_min":-7,"x_max":1081,"o":"m 810 0 l 743 172 l 322 172 l 254 0 l -7 0 l 411 974 l 672 974 l 1081 0 l 810 0 m 399 367 l 668 367 l 535 714 l 399 367 z "},"Ȁ":{"ha":1074,"x_min":-7,"x_max":1081,"o":"m 810 0 l 743 172 l 322 172 l 254 0 l -7 0 l 411 974 l 672 974 l 1081 0 l 810 0 m 399 367 l 668 367 l 535 714 l 399 367 m 399 1282 l 510 1053 l 336 1040 l 211 1213 l 399 1282 m 672 1282 l 783 1053 l 610 1040 l 485 1213 l 672 1282 z "},"Ä":{"ha":1074,"x_min":-7,"x_max":1081,"o":"m 810 0 l 743 172 l 322 172 l 254 0 l -7 0 l 411 974 l 672 974 l 1081 0 l 810 0 m 399 367 l 668 367 l 535 714 l 399 367 m 406 1263 q 481 1233 451 1263 q 511 1156 511 1203 q 481 1079 511 1110 q 406 1049 451 1049 q 328 1079 358 1049 q 299 1156 299 1110 q 328 1233 299 1203 q 406 1263 358 1263 m 672 1263 q 748 1233 718 1263 q 778 1156 778 1203 q 748 1079 778 1110 q 672 1049 718 1049 q 595 1079 625 1049 q 565 1156 565 1110 q 595 1233 565 1203 q 672 1263 625 1263 z "},"Ạ":{"ha":1074,"x_min":-7,"x_max":1081,"o":"m 810 0 l 743 172 l 322 172 l 254 0 l -7 0 l 411 974 l 672 974 l 1081 0 l 810 0 m 399 367 l 668 367 l 535 714 l 399 367 m 525 -94 q 619 -131 582 -94 q 656 -226 656 -168 q 619 -321 656 -283 q 525 -358 582 -358 q 431 -321 468 -358 q 394 -226 394 -283 q 431 -131 394 -168 q 525 -94 468 -94 z "},"À":{"ha":1074,"x_min":-7,"x_max":1081,"o":"m 810 0 l 743 172 l 322 172 l 254 0 l -7 0 l 411 974 l 672 974 l 1081 0 l 810 0 m 399 367 l 668 367 l 535 714 l 399 367 m 504 1281 l 651 1057 l 481 1043 l 299 1203 l 504 1281 z "},"Ả":{"ha":1074,"x_min":-7,"x_max":1081,"o":"m 810 0 l 743 172 l 322 172 l 254 0 l -7 0 l 411 974 l 672 974 l 1081 0 l 810 0 m 399 367 l 668 367 l 535 714 l 399 367 m 546 1354 q 660 1319 618 1354 q 701 1224 701 1283 q 670 1125 701 1175 q 582 1031 639 1075 l 472 1076 q 517 1130 501 1101 q 533 1182 533 1158 q 522 1209 533 1199 q 494 1219 511 1219 q 443 1200 467 1219 l 379 1301 q 546 1354 460 1354 z "},"Ȃ":{"ha":1074,"x_min":-7,"x_max":1081,"o":"m 810 0 l 743 172 l 322 172 l 254 0 l -7 0 l 411 974 l 672 974 l 1081 0 l 810 0 m 399 367 l 668 367 l 535 714 l 399 367 m 307 1051 q 374 1214 311 1153 q 538 1275 438 1275 q 699 1214 636 1275 q 767 1051 763 1153 l 614 1051 q 590 1109 611 1088 q 538 1131 568 1131 q 485 1109 506 1131 q 461 1051 464 1088 l 307 1051 z "},"Ā":{"ha":1074,"x_min":-7,"x_max":1081,"o":"m 810 0 l 743 172 l 322 172 l 254 0 l -7 0 l 411 974 l 672 974 l 1081 0 l 810 0 m 399 367 l 668 367 l 535 714 l 399 367 m 296 1200 l 779 1200 l 779 1054 l 296 1054 l 296 1200 z "},"Ą":{"ha":1074,"x_min":-7,"x_max":1081,"o":"m 940 -172 q 979 -161 957 -172 l 1019 -293 q 885 -324 951 -324 q 770 -283 811 -324 q 729 -176 729 -243 q 749 -87 729 -132 q 810 0 769 -42 l 743 172 l 322 172 l 254 0 l -7 0 l 411 974 l 672 974 l 1081 0 l 1015 0 q 935 -71 961 -39 q 908 -135 908 -103 q 917 -162 908 -153 q 940 -172 925 -172 m 399 367 l 668 367 l 535 714 l 399 367 z "},"Å":{"ha":1074,"x_min":-7,"x_max":1081,"o":"m 810 0 l 743 172 l 322 172 l 254 0 l -7 0 l 411 974 l 672 974 l 1081 0 l 810 0 m 399 367 l 668 367 l 535 714 l 399 367 m 538 1354 q 653 1306 606 1354 q 701 1190 701 1258 q 653 1074 701 1122 q 538 1026 606 1026 q 422 1074 469 1026 q 374 1190 374 1122 q 422 1306 374 1258 q 538 1354 469 1354 m 538 1251 q 493 1233 511 1251 q 475 1190 475 1215 q 493 1148 475 1165 q 538 1131 511 1131 q 582 1148 564 1131 q 600 1190 600 1165 q 582 1233 600 1215 q 538 1251 564 1251 z "},"Ǻ":{"ha":1074,"x_min":-7,"x_max":1081,"o":"m 810 0 l 743 172 l 322 172 l 254 0 l -7 0 l 411 974 l 672 974 l 1081 0 l 810 0 m 399 367 l 668 367 l 535 714 l 399 367 m 538 1354 q 653 1306 606 1354 q 701 1190 701 1258 q 653 1074 701 1122 q 538 1026 606 1026 q 422 1074 469 1026 q 374 1190 374 1122 q 422 1306 374 1258 q 538 1354 469 1354 m 538 1251 q 493 1233 511 1251 q 475 1190 475 1215 q 493 1148 475 1165 q 538 1131 511 1131 q 582 1148 564 1131 q 600 1190 600 1165 q 582 1233 600 1215 q 538 1251 564 1251 m 599 1607 l 767 1506 l 547 1388 l 400 1426 l 599 1607 z "},"Ã":{"ha":1074,"x_min":-7,"x_max":1081,"o":"m 810 0 l 743 172 l 322 172 l 254 0 l -7 0 l 411 974 l 672 974 l 1081 0 l 810 0 m 399 367 l 668 367 l 535 714 l 399 367 m 793 1267 q 761 1103 793 1158 q 658 1047 729 1047 q 597 1058 625 1047 q 532 1088 569 1068 q 474 1110 493 1110 q 435 1051 435 1110 l 294 1051 q 326 1216 294 1160 q 431 1272 358 1272 q 492 1261 463 1272 q 556 1232 521 1250 q 614 1210 597 1210 q 654 1267 654 1210 l 793 1267 z "},"Æ":{"ha":1536,"x_min":-7,"x_max":1475,"o":"m 947 203 l 1475 203 l 1475 0 l 693 0 l 693 200 l 363 200 l 257 0 l -7 0 l 544 974 l 1461 974 l 1461 771 l 947 771 l 947 589 l 1411 589 l 1411 388 l 947 388 l 947 203 m 460 386 l 693 386 l 693 775 l 665 775 l 460 386 z "},"Ǽ":{"ha":1536,"x_min":-7,"x_max":1475,"o":"m 947 203 l 1475 203 l 1475 0 l 693 0 l 693 200 l 363 200 l 257 0 l -7 0 l 544 974 l 1461 974 l 1461 771 l 947 771 l 947 589 l 1411 589 l 1411 388 l 947 388 l 947 203 m 460 386 l 693 386 l 693 775 l 665 775 l 460 386 m 1042 1281 l 1246 1203 l 1044 1043 l 875 1057 l 1042 1281 z "},"B":{"ha":994,"x_min":94,"x_max":950,"o":"m 557 974 q 748 944 667 974 q 874 858 829 914 q 918 728 918 803 q 873 594 918 651 q 750 517 828 538 q 897 432 843 499 q 950 271 950 365 q 904 127 950 189 q 774 33 858 65 q 575 0 689 0 l 94 0 l 94 974 l 557 974 m 543 586 q 626 612 596 586 q 657 683 657 638 q 626 752 657 728 q 543 775 596 776 l 349 775 l 349 586 l 543 586 m 543 197 q 649 225 610 197 q 688 303 688 253 q 649 376 688 349 q 543 401 610 403 l 349 401 l 349 197 l 543 197 z "},"C":{"ha":961,"x_min":32,"x_max":947,"o":"m 799 643 q 686 738 751 703 q 557 774 621 774 q 423 737 483 774 q 328 635 363 700 q 293 492 293 571 q 328 348 293 413 q 423 247 363 283 q 557 210 483 210 q 682 240 617 210 q 799 324 747 271 l 947 164 q 759 31 868 81 q 543 -18 650 -18 q 282 49 399 -18 q 99 231 165 115 q 32 489 32 346 q 100 744 32 631 q 287 924 168 858 q 553 989 406 989 q 767 944 661 989 q 946 821 872 899 l 799 643 z "},"Ć":{"ha":961,"x_min":32,"x_max":947,"o":"m 799 643 q 686 738 751 703 q 557 774 621 774 q 423 737 483 774 q 328 635 363 700 q 293 492 293 571 q 328 348 293 413 q 423 247 363 283 q 557 210 483 210 q 682 240 617 210 q 799 324 747 271 l 947 164 q 759 31 868 81 q 543 -18 650 -18 q 282 49 399 -18 q 99 231 165 115 q 32 489 32 346 q 100 744 32 631 q 287 924 168 858 q 553 989 406 989 q 767 944 661 989 q 946 821 872 899 l 799 643 m 606 1281 l 810 1203 l 608 1043 l 439 1057 l 606 1281 z "},"Č":{"ha":961,"x_min":32,"x_max":947,"o":"m 799 643 q 686 738 751 703 q 557 774 621 774 q 423 737 483 774 q 328 635 363 700 q 293 492 293 571 q 328 348 293 413 q 423 247 363 283 q 557 210 483 210 q 682 240 617 210 q 799 324 747 271 l 947 164 q 759 31 868 81 q 543 -18 650 -18 q 282 49 399 -18 q 99 231 165 115 q 32 489 32 346 q 100 744 32 631 q 287 924 168 858 q 553 989 406 989 q 767 944 661 989 q 946 821 872 899 l 799 643 m 629 1264 l 807 1264 l 656 1051 l 438 1051 l 286 1264 l 464 1264 l 546 1171 l 629 1264 z "},"Ç":{"ha":961,"x_min":32,"x_max":947,"o":"m 947 164 q 785 44 879 92 q 594 -15 692 -4 l 572 -78 q 658 -120 631 -90 q 686 -190 686 -150 q 635 -291 686 -257 q 508 -325 585 -325 q 356 -297 432 -325 l 394 -186 q 465 -199 426 -199 q 506 -190 490 -199 q 521 -168 521 -182 q 500 -144 521 -153 q 447 -136 479 -136 l 414 -136 l 454 -11 q 236 78 332 8 q 86 254 140 147 q 32 489 32 361 q 100 744 32 631 q 287 924 168 858 q 553 989 406 989 q 767 944 661 989 q 946 821 872 899 l 799 643 q 686 738 751 703 q 557 774 621 774 q 423 737 483 774 q 328 635 363 700 q 293 492 293 571 q 328 348 293 413 q 423 247 363 283 q 557 210 483 210 q 682 240 617 210 q 799 324 747 271 l 947 164 z "},"Ḉ":{"ha":961,"x_min":32,"x_max":947,"o":"m 739 1203 l 538 1043 l 368 1057 l 535 1281 l 739 1203 m 947 164 q 785 44 879 92 q 594 -15 692 -4 l 572 -78 q 658 -120 631 -90 q 686 -190 686 -150 q 635 -291 686 -257 q 508 -325 585 -325 q 356 -297 432 -325 l 394 -186 q 465 -199 426 -199 q 506 -190 490 -199 q 521 -168 521 -182 q 500 -144 521 -153 q 447 -136 479 -136 l 414 -136 l 454 -11 q 236 78 332 8 q 86 254 140 147 q 32 489 32 361 q 100 744 32 631 q 287 924 168 858 q 553 989 406 989 q 767 944 661 989 q 946 821 872 899 l 799 643 q 686 738 751 703 q 557 774 621 774 q 423 737 483 774 q 328 635 363 700 q 293 492 293 571 q 328 348 293 413 q 423 247 363 283 q 557 210 483 210 q 682 240 617 210 q 799 324 747 271 l 947 164 z "},"Ĉ":{"ha":961,"x_min":32,"x_max":947,"o":"m 799 643 q 686 738 751 703 q 557 774 621 774 q 423 737 483 774 q 328 635 363 700 q 293 492 293 571 q 328 348 293 413 q 423 247 363 283 q 557 210 483 210 q 682 240 617 210 q 799 324 747 271 l 947 164 q 759 31 868 81 q 543 -18 650 -18 q 282 49 399 -18 q 99 231 165 115 q 32 489 32 346 q 100 744 32 631 q 287 924 168 858 q 553 989 406 989 q 767 944 661 989 q 946 821 872 899 l 799 643 m 825 1051 l 647 1051 l 565 1144 l 482 1051 l 304 1051 l 456 1264 l 674 1264 l 825 1051 z "},"Ċ":{"ha":961,"x_min":32,"x_max":947,"o":"m 799 643 q 686 738 751 703 q 557 774 621 774 q 423 737 483 774 q 328 635 363 700 q 293 492 293 571 q 328 348 293 413 q 423 247 363 283 q 557 210 483 210 q 682 240 617 210 q 799 324 747 271 l 947 164 q 759 31 868 81 q 543 -18 650 -18 q 282 49 399 -18 q 99 231 165 115 q 32 489 32 346 q 100 744 32 631 q 287 924 168 858 q 553 989 406 989 q 767 944 661 989 q 946 821 872 899 l 799 643 m 564 1313 q 657 1276 621 1313 q 693 1181 693 1239 q 656 1086 693 1124 q 564 1049 619 1049 q 470 1086 507 1049 q 433 1181 433 1124 q 470 1276 433 1239 q 564 1313 507 1313 z "},"D":{"ha":1064,"x_min":94,"x_max":1032,"o":"m 514 974 q 784 913 667 974 q 967 741 901 851 q 1032 488 1032 631 q 966 233 1032 344 q 780 61 900 122 q 504 0 660 0 l 94 0 l 94 974 l 514 974 m 521 206 q 651 240 594 206 q 740 339 708 275 q 772 485 772 403 q 738 632 772 568 q 644 731 704 696 q 508 767 585 767 l 349 767 l 349 206 l 521 206 z "},"Ǆ":{"ha":2003,"x_min":94,"x_max":1964,"o":"m 514 974 q 784 913 667 974 q 967 741 901 851 q 1032 488 1032 631 q 966 233 1032 344 q 780 61 900 122 q 504 0 660 0 l 94 0 l 94 974 l 514 974 m 521 206 q 651 240 594 206 q 740 339 708 275 q 772 485 772 403 q 738 632 772 568 q 644 731 704 696 q 508 767 585 767 l 349 767 l 349 206 l 521 206 m 1119 974 l 1956 974 l 1956 807 l 1442 204 l 1964 204 l 1964 0 l 1101 0 l 1101 165 l 1615 769 l 1119 769 l 1119 974 m 1603 1264 l 1781 1264 l 1629 1051 l 1411 1051 l 1260 1264 l 1438 1264 l 1519 1171 l 1603 1264 z "},"Ð":{"ha":1064,"x_min":3,"x_max":1032,"o":"m 514 974 q 784 913 667 974 q 967 741 901 851 q 1032 488 1032 631 q 966 233 1032 344 q 780 61 900 122 q 504 0 660 0 l 94 0 l 94 428 l 3 428 l 3 546 l 94 546 l 94 974 l 514 974 m 521 206 q 651 240 594 206 q 740 339 708 275 q 772 485 772 403 q 738 632 772 568 q 644 731 704 696 q 508 767 585 767 l 349 767 l 349 546 l 572 546 l 572 428 l 349 428 l 349 206 l 521 206 z "},"Ď":{"ha":1064,"x_min":94,"x_max":1032,"o":"m 514 974 q 784 913 667 974 q 967 741 901 851 q 1032 488 1032 631 q 966 233 1032 344 q 780 61 900 122 q 504 0 660 0 l 94 0 l 94 974 l 514 974 m 521 206 q 651 240 594 206 q 740 339 708 275 q 772 485 772 403 q 738 632 772 568 q 644 731 704 696 q 508 767 585 767 l 349 767 l 349 206 l 521 206 m 563 1264 l 740 1264 l 589 1051 l 371 1051 l 219 1264 l 397 1264 l 479 1171 l 563 1264 z "},"Đ":{"ha":1064,"x_min":3,"x_max":1032,"o":"m 514 974 q 784 913 667 974 q 967 741 901 851 q 1032 488 1032 631 q 966 233 1032 344 q 780 61 900 122 q 504 0 660 0 l 94 0 l 94 428 l 3 428 l 3 546 l 94 546 l 94 974 l 514 974 m 521 206 q 651 240 594 206 q 740 339 708 275 q 772 485 772 403 q 738 632 772 568 q 644 731 704 696 q 508 767 585 767 l 349 767 l 349 546 l 572 546 l 572 428 l 349 428 l 349 206 l 521 206 z "},"Ḍ":{"ha":1064,"x_min":94,"x_max":1032,"o":"m 514 974 q 784 913 667 974 q 967 741 901 851 q 1032 488 1032 631 q 966 233 1032 344 q 780 61 900 122 q 504 0 660 0 l 94 0 l 94 974 l 514 974 m 521 206 q 651 240 594 206 q 740 339 708 275 q 772 485 772 403 q 738 632 772 568 q 644 731 704 696 q 508 767 585 767 l 349 767 l 349 206 l 521 206 m 506 -94 q 599 -131 563 -94 q 636 -226 636 -168 q 599 -321 636 -283 q 506 -358 563 -358 q 412 -321 449 -358 q 375 -226 375 -283 q 412 -131 375 -168 q 506 -94 449 -94 z "},"Ḏ":{"ha":1064,"x_min":94,"x_max":1032,"o":"m 514 974 q 784 913 667 974 q 967 741 901 851 q 1032 488 1032 631 q 966 233 1032 344 q 780 61 900 122 q 504 0 660 0 l 94 0 l 94 974 l 514 974 m 521 206 q 651 240 594 206 q 740 339 708 275 q 772 485 772 403 q 738 632 772 568 q 644 731 704 696 q 508 767 585 767 l 349 767 l 349 206 l 521 206 m 293 -107 l 722 -107 l 722 -253 l 293 -253 l 293 -107 z "},"ǅ":{"ha":1835,"x_min":94,"x_max":1796,"o":"m 514 974 q 784 913 667 974 q 967 741 901 851 q 1032 488 1032 631 q 966 233 1032 344 q 780 61 900 122 q 504 0 660 0 l 94 0 l 94 974 l 514 974 m 521 206 q 651 240 594 206 q 740 339 708 275 q 772 485 772 403 q 738 632 772 568 q 644 731 704 696 q 508 767 585 767 l 349 767 l 349 206 l 521 206 m 1124 751 l 1782 750 l 1782 600 l 1421 189 l 1796 189 l 1796 0 l 1111 0 l 1111 150 l 1472 561 l 1124 561 l 1124 751 m 1533 1060 l 1711 1060 l 1560 847 l 1342 847 l 1190 1060 l 1368 1060 l 1450 967 l 1533 1060 z "},"E":{"ha":938,"x_min":94,"x_max":876,"o":"m 94 974 l 863 974 l 863 771 l 349 771 l 349 589 l 813 589 l 813 388 l 349 386 l 349 203 l 876 203 l 876 0 l 94 0 l 94 974 z "},"É":{"ha":938,"x_min":94,"x_max":876,"o":"m 94 974 l 863 974 l 863 771 l 349 771 l 349 589 l 813 589 l 813 388 l 349 386 l 349 203 l 876 203 l 876 0 l 94 0 l 94 974 m 526 1281 l 731 1203 l 529 1043 l 360 1057 l 526 1281 z "},"Ĕ":{"ha":938,"x_min":94,"x_max":876,"o":"m 94 974 l 863 974 l 863 771 l 349 771 l 349 589 l 813 589 l 813 388 l 349 386 l 349 203 l 876 203 l 876 0 l 94 0 l 94 974 m 408 1272 q 432 1215 411 1236 q 485 1193 453 1193 q 537 1215 515 1193 q 561 1272 558 1236 l 714 1272 q 647 1110 710 1171 q 485 1049 585 1049 q 322 1110 385 1049 q 254 1272 258 1171 l 408 1272 z "},"Ě":{"ha":938,"x_min":94,"x_max":876,"o":"m 94 974 l 863 974 l 863 771 l 349 771 l 349 589 l 813 589 l 813 388 l 349 386 l 349 203 l 876 203 l 876 0 l 94 0 l 94 974 m 550 1264 l 728 1264 l 576 1051 l 358 1051 l 207 1264 l 385 1264 l 467 1171 l 550 1264 z "},"Ḝ":{"ha":938,"x_min":94,"x_max":876,"o":"m 460 1049 q 297 1110 360 1049 q 229 1272 233 1171 l 383 1272 q 407 1215 386 1236 q 460 1193 428 1193 q 512 1215 490 1193 q 536 1272 533 1236 l 689 1272 q 622 1110 685 1171 q 460 1049 560 1049 m 567 0 l 539 -78 q 625 -120 597 -90 q 653 -190 653 -150 q 602 -291 653 -257 q 475 -325 551 -325 q 322 -297 399 -325 l 361 -186 q 432 -199 393 -199 q 472 -190 457 -199 q 488 -168 488 -182 q 467 -144 488 -153 q 414 -136 446 -136 l 381 -136 l 425 0 l 94 0 l 94 974 l 863 974 l 863 771 l 349 771 l 349 589 l 813 589 l 813 388 l 349 386 l 349 203 l 876 203 l 876 0 l 567 0 z "},"Ê":{"ha":938,"x_min":94,"x_max":876,"o":"m 94 974 l 863 974 l 863 771 l 349 771 l 349 589 l 813 589 l 813 388 l 349 386 l 349 203 l 876 203 l 876 0 l 94 0 l 94 974 m 746 1051 l 568 1051 l 486 1144 l 403 1051 l 225 1051 l 376 1264 l 594 1264 l 746 1051 z "},"Ế":{"ha":938,"x_min":94,"x_max":876,"o":"m 94 974 l 863 974 l 863 771 l 349 771 l 349 589 l 813 589 l 813 388 l 349 386 l 349 203 l 876 203 l 876 0 l 94 0 l 94 974 m 771 1044 l 571 1044 l 483 1131 l 392 1044 l 194 1044 l 354 1215 l 610 1215 l 771 1044 m 543 1478 l 711 1376 l 492 1258 l 344 1297 l 543 1478 z "},"Ệ":{"ha":938,"x_min":94,"x_max":876,"o":"m 94 974 l 863 974 l 863 771 l 349 771 l 349 589 l 813 589 l 813 388 l 349 386 l 349 203 l 876 203 l 876 0 l 94 0 l 94 974 m 483 -94 q 577 -131 540 -94 q 614 -226 614 -168 q 577 -321 614 -283 q 483 -358 540 -358 q 390 -321 426 -358 q 353 -226 353 -283 q 390 -131 353 -168 q 483 -94 426 -94 m 747 1051 l 569 1051 l 488 1144 l 404 1051 l 226 1051 l 378 1264 l 596 1264 l 747 1051 z "},"Ề":{"ha":938,"x_min":94,"x_max":876,"o":"m 94 974 l 863 974 l 863 771 l 349 771 l 349 589 l 813 589 l 813 388 l 349 386 l 349 203 l 876 203 l 876 0 l 94 0 l 94 974 m 772 1044 l 572 1044 l 485 1131 l 393 1044 l 196 1044 l 356 1215 l 611 1215 l 772 1044 m 408 1478 l 606 1297 l 460 1258 l 240 1376 l 408 1478 z "},"Ể":{"ha":938,"x_min":94,"x_max":876,"o":"m 94 974 l 863 974 l 863 771 l 349 771 l 349 589 l 813 589 l 813 388 l 349 386 l 349 203 l 876 203 l 876 0 l 94 0 l 94 974 m 792 1044 l 592 1044 l 504 1131 l 413 1044 l 215 1044 l 375 1215 l 631 1215 l 792 1044 m 500 1499 q 598 1469 564 1499 q 632 1399 632 1440 q 606 1326 632 1360 q 529 1256 581 1292 l 429 1294 q 481 1357 481 1331 q 472 1374 481 1368 q 450 1381 464 1381 q 408 1367 424 1381 l 349 1453 q 500 1499 425 1499 z "},"Ễ":{"ha":938,"x_min":94,"x_max":876,"o":"m 94 974 l 863 974 l 863 771 l 349 771 l 349 589 l 813 589 l 813 388 l 349 386 l 349 203 l 876 203 l 876 0 l 94 0 l 94 974 m 764 1044 l 564 1044 l 476 1131 l 385 1044 l 188 1044 l 347 1215 l 603 1215 l 764 1044 m 722 1447 q 690 1308 722 1354 q 589 1261 658 1261 q 523 1271 554 1261 q 454 1297 492 1281 q 386 1319 407 1319 q 353 1306 363 1319 q 344 1264 344 1292 l 226 1264 q 258 1403 226 1356 q 360 1451 289 1451 q 427 1442 394 1451 q 497 1415 460 1432 q 524 1404 501 1414 q 563 1394 546 1394 q 594 1408 585 1394 q 606 1447 604 1421 l 722 1447 z "},"Ȅ":{"ha":938,"x_min":94,"x_max":876,"o":"m 94 974 l 863 974 l 863 771 l 349 771 l 349 589 l 813 589 l 813 388 l 349 386 l 349 203 l 876 203 l 876 0 l 94 0 l 94 974 m 346 1282 l 457 1053 l 283 1040 l 158 1213 l 346 1282 m 619 1282 l 731 1053 l 557 1040 l 432 1213 l 619 1282 z "},"Ë":{"ha":938,"x_min":94,"x_max":876,"o":"m 94 974 l 863 974 l 863 771 l 349 771 l 349 589 l 813 589 l 813 388 l 349 386 l 349 203 l 876 203 l 876 0 l 94 0 l 94 974 m 353 1263 q 428 1233 399 1263 q 458 1156 458 1203 q 428 1079 458 1110 q 353 1049 399 1049 q 276 1079 306 1049 q 246 1156 246 1110 q 276 1233 246 1203 q 353 1263 306 1263 m 619 1263 q 695 1233 665 1263 q 725 1156 725 1203 q 695 1079 725 1110 q 619 1049 665 1049 q 542 1079 572 1049 q 513 1156 513 1110 q 542 1233 513 1203 q 619 1263 572 1263 z "},"Ė":{"ha":938,"x_min":94,"x_max":876,"o":"m 94 974 l 863 974 l 863 771 l 349 771 l 349 589 l 813 589 l 813 388 l 349 386 l 349 203 l 876 203 l 876 0 l 94 0 l 94 974 m 485 1313 q 578 1276 542 1313 q 614 1181 614 1239 q 577 1086 614 1124 q 485 1049 540 1049 q 391 1086 428 1049 q 354 1181 354 1124 q 391 1276 354 1239 q 485 1313 428 1313 z "},"Ẹ":{"ha":938,"x_min":94,"x_max":876,"o":"m 94 974 l 863 974 l 863 771 l 349 771 l 349 589 l 813 589 l 813 388 l 349 386 l 349 203 l 876 203 l 876 0 l 94 0 l 94 974 m 483 -94 q 577 -131 540 -94 q 614 -226 614 -168 q 577 -321 614 -283 q 483 -358 540 -358 q 390 -321 426 -358 q 353 -226 353 -283 q 390 -131 353 -168 q 483 -94 426 -94 z "},"È":{"ha":938,"x_min":94,"x_max":876,"o":"m 94 974 l 863 974 l 863 771 l 349 771 l 349 589 l 813 589 l 813 388 l 349 386 l 349 203 l 876 203 l 876 0 l 94 0 l 94 974 m 451 1281 l 599 1057 l 428 1043 l 246 1203 l 451 1281 z "},"Ẻ":{"ha":938,"x_min":94,"x_max":876,"o":"m 94 974 l 863 974 l 863 771 l 349 771 l 349 589 l 813 589 l 813 388 l 349 386 l 349 203 l 876 203 l 876 0 l 94 0 l 94 974 m 493 1354 q 607 1319 565 1354 q 649 1224 649 1283 q 617 1125 649 1175 q 529 1031 586 1075 l 419 1076 q 465 1130 449 1101 q 481 1182 481 1158 q 469 1209 481 1199 q 442 1219 458 1219 q 390 1200 414 1219 l 326 1301 q 493 1354 407 1354 z "},"Ȇ":{"ha":938,"x_min":94,"x_max":876,"o":"m 94 974 l 863 974 l 863 771 l 349 771 l 349 589 l 813 589 l 813 388 l 349 386 l 349 203 l 876 203 l 876 0 l 94 0 l 94 974 m 254 1051 q 322 1214 258 1153 q 485 1275 385 1275 q 647 1214 583 1275 q 714 1051 710 1153 l 561 1051 q 537 1109 558 1088 q 485 1131 515 1131 q 432 1109 453 1131 q 408 1051 411 1088 l 254 1051 z "},"Ē":{"ha":938,"x_min":94,"x_max":876,"o":"m 94 974 l 863 974 l 863 771 l 349 771 l 349 589 l 813 589 l 813 388 l 349 386 l 349 203 l 876 203 l 876 0 l 94 0 l 94 974 m 243 1200 l 726 1200 l 726 1054 l 243 1054 l 243 1200 z "},"Ḗ":{"ha":938,"x_min":94,"x_max":876,"o":"m 94 974 l 863 974 l 863 771 l 349 771 l 349 589 l 813 589 l 813 388 l 349 386 l 349 203 l 876 203 l 876 0 l 94 0 l 94 974 z "},"Ḕ":{"ha":938,"x_min":94,"x_max":876,"o":"m 94 974 l 863 974 l 863 771 l 349 771 l 349 589 l 813 589 l 813 388 l 349 386 l 349 203 l 876 203 l 876 0 l 94 0 l 94 974 z "},"Ę":{"ha":938,"x_min":94,"x_max":881,"o":"m 881 -293 q 746 -324 813 -324 q 631 -283 672 -324 q 590 -176 590 -243 q 610 -87 590 -132 q 671 0 631 -42 l 94 0 l 94 974 l 863 974 l 863 771 l 349 771 l 349 589 l 813 589 l 813 388 l 349 386 l 349 203 l 876 203 l 876 0 q 796 -71 822 -39 q 769 -135 769 -103 q 778 -162 769 -153 q 801 -172 786 -172 q 840 -161 818 -172 l 881 -293 z "},"Ẽ":{"ha":938,"x_min":94,"x_max":876,"o":"m 94 974 l 863 974 l 863 771 l 349 771 l 349 589 l 813 589 l 813 388 l 349 386 l 349 203 l 876 203 l 876 0 l 94 0 l 94 974 m 740 1267 q 708 1103 740 1158 q 606 1047 676 1047 q 544 1058 572 1047 q 479 1088 517 1068 q 421 1110 440 1110 q 382 1051 382 1110 l 242 1051 q 274 1216 242 1160 q 378 1272 306 1272 q 439 1261 410 1272 q 503 1232 468 1250 q 561 1210 544 1210 q 601 1267 601 1210 l 740 1267 z "},"F":{"ha":843,"x_min":94,"x_max":822,"o":"m 94 974 l 822 974 l 821 771 l 349 771 l 349 554 l 785 554 l 785 351 l 349 351 l 349 0 l 94 0 l 94 974 z "},"G":{"ha":1032,"x_min":32,"x_max":969,"o":"m 739 497 l 958 497 l 958 110 q 767 17 881 53 q 553 -18 654 -18 q 287 48 406 -18 q 100 229 168 114 q 32 488 32 344 q 102 744 32 629 q 295 924 172 858 q 569 989 418 989 q 786 949 678 989 q 969 843 894 910 l 825 665 q 703 744 772 715 q 568 774 635 774 q 428 736 490 774 q 329 633 365 699 q 293 488 293 568 q 329 340 293 406 q 429 236 365 274 q 571 199 493 199 q 739 246 644 199 l 739 497 z "},"Ğ":{"ha":1032,"x_min":32,"x_max":969,"o":"m 739 497 l 958 497 l 958 110 q 767 17 881 53 q 553 -18 654 -18 q 287 48 406 -18 q 100 229 168 114 q 32 488 32 344 q 102 744 32 629 q 295 924 172 858 q 569 989 418 989 q 786 949 678 989 q 969 843 894 910 l 825 665 q 703 744 772 715 q 568 774 635 774 q 428 736 490 774 q 329 633 365 699 q 293 488 293 568 q 329 340 293 406 q 429 236 365 274 q 571 199 493 199 q 739 246 644 199 l 739 497 m 479 1272 q 503 1215 482 1236 q 556 1193 524 1193 q 608 1215 586 1193 q 632 1272 629 1236 l 785 1272 q 718 1110 781 1171 q 556 1049 656 1049 q 392 1110 456 1049 q 325 1272 329 1171 l 479 1272 z "},"Ǧ":{"ha":1032,"x_min":32,"x_max":969,"o":"m 739 497 l 958 497 l 958 110 q 767 17 881 53 q 553 -18 654 -18 q 287 48 406 -18 q 100 229 168 114 q 32 488 32 344 q 102 744 32 629 q 295 924 172 858 q 569 989 418 989 q 786 949 678 989 q 969 843 894 910 l 825 665 q 703 744 772 715 q 568 774 635 774 q 428 736 490 774 q 329 633 365 699 q 293 488 293 568 q 329 340 293 406 q 429 236 365 274 q 571 199 493 199 q 739 246 644 199 l 739 497 m 621 1264 l 799 1264 l 647 1051 l 429 1051 l 278 1264 l 456 1264 l 538 1171 l 621 1264 z "},"Ĝ":{"ha":1032,"x_min":32,"x_max":969,"o":"m 739 497 l 958 497 l 958 110 q 767 17 881 53 q 553 -18 654 -18 q 287 48 406 -18 q 100 229 168 114 q 32 488 32 344 q 102 744 32 629 q 295 924 172 858 q 569 989 418 989 q 786 949 678 989 q 969 843 894 910 l 825 665 q 703 744 772 715 q 568 774 635 774 q 428 736 490 774 q 329 633 365 699 q 293 488 293 568 q 329 340 293 406 q 429 236 365 274 q 571 199 493 199 q 739 246 644 199 l 739 497 m 817 1051 l 639 1051 l 557 1144 l 474 1051 l 296 1051 l 447 1264 l 665 1264 l 817 1051 z "},"Ģ":{"ha":1032,"x_min":32,"x_max":969,"o":"m 739 497 l 958 497 l 958 110 q 767 17 881 53 q 553 -18 654 -18 q 287 48 406 -18 q 100 229 168 114 q 32 488 32 344 q 102 744 32 629 q 295 924 172 858 q 569 989 418 989 q 786 949 678 989 q 969 843 894 910 l 825 665 q 703 744 772 715 q 568 774 635 774 q 428 736 490 774 q 329 633 365 699 q 293 488 293 568 q 329 340 293 406 q 429 236 365 274 q 571 199 493 199 q 739 246 644 199 l 739 497 m 442 -83 l 643 -83 l 540 -325 l 397 -325 l 442 -83 z "},"Ġ":{"ha":1032,"x_min":32,"x_max":969,"o":"m 739 497 l 958 497 l 958 110 q 767 17 881 53 q 553 -18 654 -18 q 287 48 406 -18 q 100 229 168 114 q 32 488 32 344 q 102 744 32 629 q 295 924 172 858 q 569 989 418 989 q 786 949 678 989 q 969 843 894 910 l 825 665 q 703 744 772 715 q 568 774 635 774 q 428 736 490 774 q 329 633 365 699 q 293 488 293 568 q 329 340 293 406 q 429 236 365 274 q 571 199 493 199 q 739 246 644 199 l 739 497 m 556 1313 q 649 1276 613 1313 q 685 1181 685 1239 q 648 1086 685 1124 q 556 1049 611 1049 q 462 1086 499 1049 q 425 1181 425 1124 q 462 1276 425 1239 q 556 1313 499 1313 z "},"Ḡ":{"ha":1032,"x_min":32,"x_max":969,"o":"m 739 497 l 958 497 l 958 110 q 767 17 881 53 q 553 -18 654 -18 q 287 48 406 -18 q 100 229 168 114 q 32 488 32 344 q 102 744 32 629 q 295 924 172 858 q 569 989 418 989 q 786 949 678 989 q 969 843 894 910 l 825 665 q 703 744 772 715 q 568 774 635 774 q 428 736 490 774 q 329 633 365 699 q 293 488 293 568 q 329 340 293 406 q 429 236 365 274 q 571 199 493 199 q 739 246 644 199 l 739 497 m 314 1200 l 797 1200 l 797 1054 l 314 1054 l 314 1200 z "},"H":{"ha":1090,"x_min":94,"x_max":996,"o":"m 94 974 l 349 974 l 349 576 l 742 576 l 742 974 l 996 974 l 996 0 l 742 0 l 742 374 l 349 374 l 349 0 l 94 0 l 94 974 z "},"Ħ":{"ha":1171,"x_min":6,"x_max":1163,"o":"m 1163 838 l 1163 718 l 1035 718 l 1035 0 l 781 0 l 781 374 l 388 374 l 388 0 l 133 0 l 133 718 l 6 718 l 6 838 l 133 838 l 133 974 l 388 974 l 388 838 l 781 838 l 781 974 l 1035 974 l 1035 838 l 1163 838 m 781 576 l 781 718 l 388 718 l 388 576 l 781 576 z "},"Ḫ":{"ha":1090,"x_min":94,"x_max":996,"o":"m 94 974 l 349 974 l 349 576 l 742 576 l 742 974 l 996 974 l 996 0 l 742 0 l 742 374 l 349 374 l 349 0 l 94 0 l 94 974 m 469 -82 q 493 -140 472 -118 q 546 -161 514 -161 q 598 -140 576 -161 q 622 -82 619 -118 l 775 -82 q 708 -244 771 -183 q 546 -306 646 -306 q 383 -244 446 -306 q 315 -82 319 -183 l 469 -82 z "},"Ĥ":{"ha":1090,"x_min":94,"x_max":996,"o":"m 94 974 l 349 974 l 349 576 l 742 576 l 742 974 l 996 974 l 996 0 l 742 0 l 742 374 l 349 374 l 349 0 l 94 0 l 94 974 m 818 1051 l 640 1051 l 558 1144 l 475 1051 l 297 1051 l 449 1264 l 667 1264 l 818 1051 z "},"Ḥ":{"ha":1090,"x_min":94,"x_max":996,"o":"m 94 974 l 349 974 l 349 576 l 742 576 l 742 974 l 996 974 l 996 0 l 742 0 l 742 374 l 349 374 l 349 0 l 94 0 l 94 974 m 543 -94 q 637 -131 600 -94 q 674 -226 674 -168 q 637 -321 674 -283 q 543 -358 600 -358 q 449 -321 486 -358 q 413 -226 413 -283 q 449 -131 413 -168 q 543 -94 486 -94 z "},"I":{"ha":443,"x_min":94,"x_max":349,"o":"m 94 974 l 349 974 l 349 0 l 94 0 l 94 974 z "},"Ĳ":{"ha":1208,"x_min":94,"x_max":1114,"o":"m 94 974 l 349 974 l 349 0 l 94 0 l 94 974 m 1114 317 q 1023 75 1114 161 q 775 -11 932 -11 q 436 146 571 -11 l 553 319 q 658 238 604 267 q 757 210 713 210 q 831 239 804 210 q 858 322 858 268 l 858 764 l 525 764 l 525 974 l 1114 974 l 1114 317 z "},"Í":{"ha":443,"x_min":94,"x_max":468,"o":"m 94 974 l 349 974 l 349 0 l 94 0 l 94 974 m 264 1281 l 468 1203 l 267 1043 l 97 1057 l 264 1281 z "},"Ĭ":{"ha":443,"x_min":-8,"x_max":451,"o":"m 94 974 l 349 974 l 349 0 l 94 0 l 94 974 m 146 1272 q 169 1215 149 1236 q 222 1193 190 1193 q 274 1215 253 1193 q 299 1272 296 1236 l 451 1272 q 385 1110 447 1171 q 222 1049 322 1049 q 59 1110 122 1049 q -8 1272 -4 1171 l 146 1272 z "},"Î":{"ha":443,"x_min":-37,"x_max":483,"o":"m 94 974 l 349 974 l 349 0 l 94 0 l 94 974 m 483 1051 l 306 1051 l 224 1144 l 140 1051 l -37 1051 l 114 1264 l 332 1264 l 483 1051 z "},"Ȉ":{"ha":443,"x_min":-104,"x_max":468,"o":"m 94 974 l 349 974 l 349 0 l 94 0 l 94 974 m 83 1282 l 194 1053 l 21 1040 l -104 1213 l 83 1282 m 357 1282 l 468 1053 l 294 1040 l 169 1213 l 357 1282 z "},"Ï":{"ha":443,"x_min":-17,"x_max":463,"o":"m 94 974 l 349 974 l 349 0 l 94 0 l 94 974 m 90 1263 q 166 1233 136 1263 q 196 1156 196 1203 q 166 1079 196 1110 q 90 1049 136 1049 q 13 1079 43 1049 q -17 1156 -17 1110 q 13 1233 -17 1203 q 90 1263 43 1263 m 357 1263 q 433 1233 403 1263 q 463 1156 463 1203 q 433 1079 463 1110 q 357 1049 403 1049 q 280 1079 310 1049 q 250 1156 250 1110 q 280 1233 250 1203 q 357 1263 310 1263 z "},"Ḯ":{"ha":443,"x_min":-18,"x_max":461,"o":"m 94 974 l 349 974 l 349 0 l 94 0 l 94 974 z "},"İ":{"ha":443,"x_min":92,"x_max":351,"o":"m 94 974 l 349 974 l 349 0 l 94 0 l 94 974 m 222 1313 q 315 1276 279 1313 q 351 1181 351 1239 q 315 1086 351 1124 q 222 1049 278 1049 q 128 1086 165 1049 q 92 1181 92 1124 q 128 1276 92 1239 q 222 1313 165 1313 z "},"Ị":{"ha":443,"x_min":89,"x_max":350,"o":"m 94 974 l 349 974 l 349 0 l 94 0 l 94 974 m 219 -94 q 313 -131 276 -94 q 350 -226 350 -168 q 313 -321 350 -283 q 219 -358 276 -358 q 126 -321 163 -358 q 89 -226 89 -283 q 126 -131 89 -168 q 219 -94 163 -94 z "},"Ì":{"ha":443,"x_min":-17,"x_max":349,"o":"m 94 974 l 349 974 l 349 0 l 94 0 l 94 974 m 189 1281 l 336 1057 l 165 1043 l -17 1203 l 189 1281 z "},"Ỉ":{"ha":443,"x_min":64,"x_max":386,"o":"m 94 974 l 349 974 l 349 0 l 94 0 l 94 974 m 231 1354 q 344 1319 303 1354 q 386 1224 386 1283 q 355 1125 386 1175 q 267 1031 324 1075 l 157 1076 q 202 1130 186 1101 q 218 1182 218 1158 q 207 1209 218 1199 q 179 1219 196 1219 q 128 1200 151 1219 l 64 1301 q 231 1354 144 1354 z "},"Ȋ":{"ha":443,"x_min":-8,"x_max":451,"o":"m 94 974 l 349 974 l 349 0 l 94 0 l 94 974 m -8 1051 q 59 1214 -4 1153 q 222 1275 122 1275 q 384 1214 321 1275 q 451 1051 447 1153 l 299 1051 q 274 1109 296 1088 q 222 1131 253 1131 q 169 1109 190 1131 q 146 1051 149 1088 l -8 1051 z "},"Ī":{"ha":443,"x_min":7,"x_max":436,"o":"m 94 974 l 349 974 l 349 0 l 94 0 l 94 974 m 7 1200 l 436 1200 l 436 1054 l 7 1054 l 7 1200 z "},"Į":{"ha":443,"x_min":8,"x_max":349,"o":"m 294 0 q 214 -71 240 -39 q 188 -135 188 -103 q 196 -162 188 -153 q 219 -172 204 -172 q 258 -161 236 -172 l 299 -293 q 164 -324 231 -324 q 49 -283 90 -324 q 8 -176 8 -243 q 94 6 8 -79 l 94 974 l 349 974 l 349 0 l 294 0 z "},"Ĩ":{"ha":443,"x_min":-21,"x_max":478,"o":"m 94 974 l 349 974 l 349 0 l 94 0 l 94 974 m 478 1267 q 446 1103 478 1158 q 343 1047 414 1047 q 282 1058 310 1047 q 217 1088 254 1068 q 158 1110 178 1110 q 119 1051 119 1110 l -21 1051 q 11 1216 -21 1160 q 115 1272 43 1272 q 176 1261 147 1272 q 240 1232 206 1250 q 299 1210 282 1210 q 339 1267 339 1210 l 478 1267 z "},"J":{"ha":749,"x_min":-7,"x_max":671,"o":"m 671 317 q 580 75 671 161 q 332 -11 489 -11 q -7 146 128 -11 l 110 319 q 215 238 161 267 q 314 210 269 210 q 388 239 361 210 q 415 322 415 268 l 415 764 l 82 764 l 82 974 l 671 974 l 671 317 z "},"Ĵ":{"ha":749,"x_min":-7,"x_max":671,"o":"m 671 317 q 580 75 671 161 q 332 -11 489 -11 q -7 146 128 -11 l 110 319 q 215 238 161 267 q 314 210 269 210 q 388 239 361 210 q 415 322 415 268 l 415 764 l 82 764 l 82 974 l 671 974 l 671 317 m 633 1051 l 456 1051 l 374 1144 l 290 1051 l 113 1051 l 264 1264 l 482 1264 l 633 1051 z "},"K":{"ha":1040,"x_min":94,"x_max":1031,"o":"m 1031 0 l 726 0 l 471 378 l 349 242 l 349 0 l 94 0 l 94 974 l 349 974 l 349 551 l 714 974 l 1008 974 l 647 572 l 1031 0 z "},"Ķ":{"ha":1040,"x_min":94,"x_max":1031,"o":"m 1031 0 l 726 0 l 471 378 l 349 242 l 349 0 l 94 0 l 94 974 l 349 974 l 349 551 l 714 974 l 1008 974 l 647 572 l 1031 0 m 403 -83 l 604 -83 l 501 -325 l 358 -325 l 403 -83 z "},"L":{"ha":782,"x_min":94,"x_max":761,"o":"m 94 974 l 349 974 l 349 217 l 761 217 l 761 0 l 94 0 l 94 974 z "},"Ǉ":{"ha":1531,"x_min":94,"x_max":1453,"o":"m 94 974 l 349 974 l 349 217 l 761 217 l 761 0 l 94 0 l 94 974 m 1453 317 q 1362 75 1453 161 q 1114 -11 1271 -11 q 775 146 910 -11 l 892 319 q 997 238 943 267 q 1096 210 1051 210 q 1170 239 1143 210 q 1197 322 1197 268 l 1197 764 l 864 764 l 864 974 l 1453 974 l 1453 317 z "},"Ĺ":{"ha":782,"x_min":92,"x_max":761,"o":"m 94 974 l 349 974 l 349 217 l 761 217 l 761 0 l 94 0 l 94 974 m 258 1281 l 463 1203 l 261 1043 l 92 1057 l 258 1281 z "},"Ľ":{"ha":782,"x_min":94,"x_max":761,"o":"m 94 974 l 349 974 l 349 217 l 761 217 l 761 0 l 94 0 l 94 974 m 571 974 l 760 974 l 718 669 l 571 669 l 571 974 z "},"Ļ":{"ha":782,"x_min":94,"x_max":761,"o":"m 94 974 l 349 974 l 349 217 l 761 217 l 761 0 l 94 0 l 94 974 m 325 -83 l 526 -83 l 424 -325 l 281 -325 l 325 -83 z "},"Ŀ":{"ha":782,"x_min":94,"x_max":761,"o":"m 94 974 l 349 974 l 349 217 l 761 217 l 761 0 l 94 0 l 94 974 z "},"Ḷ":{"ha":782,"x_min":94,"x_max":761,"o":"m 94 974 l 349 974 l 349 217 l 761 217 l 761 0 l 94 0 l 94 974 m 425 -94 q 519 -131 482 -94 q 556 -226 556 -168 q 519 -321 556 -283 q 425 -358 482 -358 q 331 -321 368 -358 q 294 -226 294 -283 q 331 -131 294 -168 q 425 -94 368 -94 z "},"ǈ":{"ha":1215,"x_min":94,"x_max":1129,"o":"m 94 974 l 349 974 l 349 217 l 761 217 l 761 0 l 94 0 l 94 974 m 743 -74 q 804 -83 779 -83 q 860 -60 840 -83 q 879 10 879 -36 l 879 751 l 1126 751 l 1126 -28 q 1055 -212 1126 -144 q 861 -279 983 -279 q 694 -250 774 -279 l 743 -74 m 999 1097 q 1092 1060 1056 1097 q 1129 965 1129 1024 q 1092 871 1129 908 q 999 833 1056 833 q 905 871 942 833 q 868 965 868 908 q 905 1060 868 1024 q 999 1097 942 1097 z "},"Ḻ":{"ha":782,"x_min":94,"x_max":761,"o":"m 94 974 l 349 974 l 349 217 l 761 217 l 761 0 l 94 0 l 94 974 m 213 -107 l 642 -107 l 642 -253 l 213 -253 l 213 -107 z "},"Ł":{"ha":844,"x_min":25,"x_max":824,"o":"m 411 217 l 824 217 l 824 0 l 157 0 l 157 421 l 25 353 l 25 489 l 157 557 l 157 974 l 411 974 l 411 689 l 563 767 l 563 631 l 411 553 l 411 217 z "},"M":{"ha":1304,"x_min":94,"x_max":1210,"o":"m 94 974 l 371 974 l 653 404 l 933 974 l 1210 974 l 1210 0 l 985 0 l 983 617 l 735 97 l 571 97 l 321 617 l 321 0 l 94 0 l 94 974 z "},"Ṃ":{"ha":1304,"x_min":94,"x_max":1210,"o":"m 94 974 l 371 974 l 653 404 l 933 974 l 1210 974 l 1210 0 l 985 0 l 983 617 l 735 97 l 571 97 l 321 617 l 321 0 l 94 0 l 94 974 m 649 -94 q 742 -131 706 -94 q 779 -226 779 -168 q 742 -321 779 -283 q 649 -358 706 -358 q 555 -321 592 -358 q 518 -226 518 -283 q 555 -131 518 -168 q 649 -94 592 -94 z "},"N":{"ha":1092,"x_min":94,"x_max":996,"o":"m 760 974 l 996 974 l 996 0 l 774 0 l 332 582 l 332 0 l 94 0 l 94 974 l 318 974 l 761 388 l 760 974 z "},"Ǌ":{"ha":1840,"x_min":94,"x_max":1763,"o":"m 760 974 l 996 974 l 996 0 l 774 0 l 332 582 l 332 0 l 94 0 l 94 974 l 318 974 l 761 388 l 760 974 m 1763 317 q 1672 75 1763 161 q 1424 -11 1581 -11 q 1085 146 1219 -11 l 1201 319 q 1307 238 1253 267 q 1406 210 1361 210 q 1480 239 1453 210 q 1507 322 1507 268 l 1507 764 l 1174 764 l 1174 974 l 1763 974 l 1763 317 z "},"Ń":{"ha":1092,"x_min":94,"x_max":996,"o":"m 760 974 l 996 974 l 996 0 l 774 0 l 332 582 l 332 0 l 94 0 l 94 974 l 318 974 l 761 388 l 760 974 m 593 1281 l 797 1203 l 596 1043 l 426 1057 l 593 1281 z "},"Ň":{"ha":1092,"x_min":94,"x_max":996,"o":"m 760 974 l 996 974 l 996 0 l 774 0 l 332 582 l 332 0 l 94 0 l 94 974 l 318 974 l 761 388 l 760 974 m 617 1264 l 794 1264 l 643 1051 l 425 1051 l 274 1264 l 451 1264 l 533 1171 l 617 1264 z "},"Ņ":{"ha":1092,"x_min":94,"x_max":996,"o":"m 760 974 l 996 974 l 996 0 l 774 0 l 332 582 l 332 0 l 94 0 l 94 974 l 318 974 l 761 388 l 760 974 m 450 -83 l 651 -83 l 549 -325 l 406 -325 l 450 -83 z "},"Ṅ":{"ha":1092,"x_min":94,"x_max":996,"o":"m 760 974 l 996 974 l 996 0 l 774 0 l 332 582 l 332 0 l 94 0 l 94 974 l 318 974 l 761 388 l 760 974 m 551 1313 q 644 1276 608 1313 q 681 1181 681 1239 q 644 1086 681 1124 q 551 1049 607 1049 q 458 1086 494 1049 q 421 1181 421 1124 q 458 1276 421 1239 q 551 1313 494 1313 z "},"Ṇ":{"ha":1092,"x_min":94,"x_max":996,"o":"m 760 974 l 996 974 l 996 0 l 774 0 l 332 582 l 332 0 l 94 0 l 94 974 l 318 974 l 761 388 l 760 974 m 550 -94 q 644 -131 607 -94 q 681 -226 681 -168 q 644 -321 681 -283 q 550 -358 607 -358 q 456 -321 493 -358 q 419 -226 419 -283 q 456 -131 419 -168 q 550 -94 493 -94 z "},"Ŋ":{"ha":1092,"x_min":94,"x_max":996,"o":"m 996 974 l 996 0 q 899 -220 990 -140 q 657 -300 808 -300 q 406 -222 514 -300 l 499 -29 q 581 -67 540 -54 q 656 -79 622 -79 q 728 -55 701 -79 q 761 17 756 -31 l 332 583 l 332 0 l 94 0 l 94 974 l 318 974 l 760 388 l 760 974 l 996 974 z "},"ǋ":{"ha":1525,"x_min":94,"x_max":1439,"o":"m 760 974 l 996 974 l 996 0 l 774 0 l 332 582 l 332 0 l 94 0 l 94 974 l 318 974 l 761 388 l 760 974 m 1053 -74 q 1114 -83 1089 -83 q 1169 -60 1150 -83 q 1189 10 1189 -36 l 1189 751 l 1436 751 l 1436 -28 q 1365 -212 1436 -144 q 1171 -279 1293 -279 q 1004 -250 1083 -279 l 1053 -74 m 1308 1097 q 1402 1060 1365 1097 q 1439 965 1439 1024 q 1402 871 1439 908 q 1308 833 1365 833 q 1215 871 1251 833 q 1178 965 1178 908 q 1215 1060 1178 1024 q 1308 1097 1251 1097 z "},"Ṉ":{"ha":1092,"x_min":94,"x_max":996,"o":"m 760 974 l 996 974 l 996 0 l 774 0 l 332 582 l 332 0 l 94 0 l 94 974 l 318 974 l 761 388 l 760 974 m 338 -107 l 767 -107 l 767 -253 l 338 -253 l 338 -107 z "},"Ñ":{"ha":1092,"x_min":94,"x_max":996,"o":"m 760 974 l 996 974 l 996 0 l 774 0 l 332 582 l 332 0 l 94 0 l 94 974 l 318 974 l 761 388 l 760 974 m 807 1267 q 775 1103 807 1158 q 672 1047 743 1047 q 611 1058 639 1047 q 546 1088 583 1068 q 488 1110 507 1110 q 449 1051 449 1110 l 308 1051 q 340 1216 308 1160 q 444 1272 372 1272 q 506 1261 476 1272 q 569 1232 535 1250 q 628 1210 611 1210 q 668 1267 668 1210 l 807 1267 z "},"O":{"ha":1117,"x_min":32,"x_max":1085,"o":"m 558 989 q 827 924 707 989 q 1016 744 947 858 q 1085 489 1085 631 q 1016 231 1085 346 q 827 49 947 115 q 558 -18 707 -18 q 290 48 410 -18 q 101 230 169 114 q 32 489 32 346 q 101 744 32 631 q 290 924 169 858 q 558 989 410 989 m 561 774 q 427 736 489 774 q 329 633 365 699 q 293 488 293 567 q 330 341 293 407 q 428 237 367 275 q 561 199 489 199 q 694 237 633 199 q 789 341 754 275 q 824 488 824 407 q 789 633 824 567 q 694 736 754 699 q 561 774 633 774 z "},"Ó":{"ha":1117,"x_min":32,"x_max":1085,"o":"m 558 989 q 827 924 707 989 q 1016 744 947 858 q 1085 489 1085 631 q 1016 231 1085 346 q 827 49 947 115 q 558 -18 707 -18 q 290 48 410 -18 q 101 230 169 114 q 32 489 32 346 q 101 744 32 631 q 290 924 169 858 q 558 989 410 989 m 561 774 q 427 736 489 774 q 329 633 365 699 q 293 488 293 567 q 330 341 293 407 q 428 237 367 275 q 561 199 489 199 q 694 237 633 199 q 789 341 754 275 q 824 488 824 407 q 789 633 824 567 q 694 736 754 699 q 561 774 633 774 m 600 1281 l 804 1203 l 603 1043 l 433 1057 l 600 1281 z "},"Ŏ":{"ha":1117,"x_min":32,"x_max":1085,"o":"m 558 989 q 827 924 707 989 q 1016 744 947 858 q 1085 489 1085 631 q 1016 231 1085 346 q 827 49 947 115 q 558 -18 707 -18 q 290 48 410 -18 q 101 230 169 114 q 32 489 32 346 q 101 744 32 631 q 290 924 169 858 q 558 989 410 989 m 561 774 q 427 736 489 774 q 329 633 365 699 q 293 488 293 567 q 330 341 293 407 q 428 237 367 275 q 561 199 489 199 q 694 237 633 199 q 789 341 754 275 q 824 488 824 407 q 789 633 824 567 q 694 736 754 699 q 561 774 633 774 m 482 1272 q 506 1215 485 1236 q 558 1193 526 1193 q 610 1215 589 1193 q 635 1272 632 1236 l 788 1272 q 721 1110 783 1171 q 558 1049 658 1049 q 395 1110 458 1049 q 328 1272 332 1171 l 482 1272 z "},"Ô":{"ha":1117,"x_min":32,"x_max":1085,"o":"m 558 989 q 827 924 707 989 q 1016 744 947 858 q 1085 489 1085 631 q 1016 231 1085 346 q 827 49 947 115 q 558 -18 707 -18 q 290 48 410 -18 q 101 230 169 114 q 32 489 32 346 q 101 744 32 631 q 290 924 169 858 q 558 989 410 989 m 561 774 q 427 736 489 774 q 329 633 365 699 q 293 488 293 567 q 330 341 293 407 q 428 237 367 275 q 561 199 489 199 q 694 237 633 199 q 789 341 754 275 q 824 488 824 407 q 789 633 824 567 q 694 736 754 699 q 561 774 633 774 m 819 1051 l 642 1051 l 560 1144 l 476 1051 l 299 1051 l 450 1264 l 668 1264 l 819 1051 z "},"Ố":{"ha":1117,"x_min":32,"x_max":1085,"o":"m 558 989 q 827 924 707 989 q 1016 744 947 858 q 1085 489 1085 631 q 1016 231 1085 346 q 827 49 947 115 q 558 -18 707 -18 q 290 48 410 -18 q 101 230 169 114 q 32 489 32 346 q 101 744 32 631 q 290 924 169 858 q 558 989 410 989 m 561 774 q 427 736 489 774 q 329 633 365 699 q 293 488 293 567 q 330 341 293 407 q 428 237 367 275 q 561 199 489 199 q 694 237 633 199 q 789 341 754 275 q 824 488 824 407 q 789 633 824 567 q 694 736 754 699 q 561 774 633 774 m 844 1044 l 644 1044 l 557 1131 l 465 1044 l 268 1044 l 428 1215 l 683 1215 l 844 1044 m 617 1478 l 785 1376 l 565 1258 l 418 1297 l 617 1478 z "},"Ộ":{"ha":1117,"x_min":32,"x_max":1085,"o":"m 558 989 q 827 924 707 989 q 1016 744 947 858 q 1085 489 1085 631 q 1016 231 1085 346 q 827 49 947 115 q 558 -18 707 -18 q 290 48 410 -18 q 101 230 169 114 q 32 489 32 346 q 101 744 32 631 q 290 924 169 858 q 558 989 410 989 m 561 774 q 427 736 489 774 q 329 633 365 699 q 293 488 293 567 q 330 341 293 407 q 428 237 367 275 q 561 199 489 199 q 694 237 633 199 q 789 341 754 275 q 824 488 824 407 q 789 633 824 567 q 694 736 754 699 q 561 774 633 774 m 556 -94 q 649 -131 613 -94 q 686 -226 686 -168 q 649 -321 686 -283 q 556 -358 613 -358 q 462 -321 499 -358 q 425 -226 425 -283 q 462 -131 425 -168 q 556 -94 499 -94 m 819 1051 l 642 1051 l 560 1144 l 476 1051 l 299 1051 l 450 1264 l 668 1264 l 819 1051 z "},"Ồ":{"ha":1117,"x_min":32,"x_max":1085,"o":"m 558 989 q 827 924 707 989 q 1016 744 947 858 q 1085 489 1085 631 q 1016 231 1085 346 q 827 49 947 115 q 558 -18 707 -18 q 290 48 410 -18 q 101 230 169 114 q 32 489 32 346 q 101 744 32 631 q 290 924 169 858 q 558 989 410 989 m 561 774 q 427 736 489 774 q 329 633 365 699 q 293 488 293 567 q 330 341 293 407 q 428 237 367 275 q 561 199 489 199 q 694 237 633 199 q 789 341 754 275 q 824 488 824 407 q 789 633 824 567 q 694 736 754 699 q 561 774 633 774 m 846 1044 l 646 1044 l 558 1131 l 467 1044 l 269 1044 l 429 1215 l 685 1215 l 846 1044 m 482 1478 l 679 1297 l 533 1258 l 314 1376 l 482 1478 z "},"Ổ":{"ha":1117,"x_min":32,"x_max":1085,"o":"m 558 989 q 827 924 707 989 q 1016 744 947 858 q 1085 489 1085 631 q 1016 231 1085 346 q 827 49 947 115 q 558 -18 707 -18 q 290 48 410 -18 q 101 230 169 114 q 32 489 32 346 q 101 744 32 631 q 290 924 169 858 q 558 989 410 989 m 561 774 q 427 736 489 774 q 329 633 365 699 q 293 488 293 567 q 330 341 293 407 q 428 237 367 275 q 561 199 489 199 q 694 237 633 199 q 789 341 754 275 q 824 488 824 407 q 789 633 824 567 q 694 736 754 699 q 561 774 633 774 m 865 1044 l 665 1044 l 578 1131 l 486 1044 l 289 1044 l 449 1215 l 704 1215 l 865 1044 m 574 1499 q 672 1469 638 1499 q 706 1399 706 1440 q 680 1326 706 1360 q 603 1256 654 1292 l 503 1294 q 554 1357 554 1331 q 546 1374 554 1368 q 524 1381 538 1381 q 482 1367 497 1381 l 422 1453 q 574 1499 499 1499 z "},"Ỗ":{"ha":1117,"x_min":32,"x_max":1085,"o":"m 558 989 q 827 924 707 989 q 1016 744 947 858 q 1085 489 1085 631 q 1016 231 1085 346 q 827 49 947 115 q 558 -18 707 -18 q 290 48 410 -18 q 101 230 169 114 q 32 489 32 346 q 101 744 32 631 q 290 924 169 858 q 558 989 410 989 m 561 774 q 427 736 489 774 q 329 633 365 699 q 293 488 293 567 q 330 341 293 407 q 428 237 367 275 q 561 199 489 199 q 694 237 633 199 q 789 341 754 275 q 824 488 824 407 q 789 633 824 567 q 694 736 754 699 q 561 774 633 774 m 838 1044 l 638 1044 l 550 1131 l 458 1044 l 261 1044 l 421 1215 l 676 1215 l 838 1044 m 796 1447 q 764 1308 796 1354 q 663 1261 732 1261 q 597 1271 628 1261 q 528 1297 565 1281 q 460 1319 481 1319 q 427 1306 436 1319 q 418 1264 418 1292 l 300 1264 q 331 1403 300 1356 q 433 1451 363 1451 q 501 1442 468 1451 q 571 1415 533 1432 q 597 1404 575 1414 q 636 1394 619 1394 q 668 1408 658 1394 q 679 1447 678 1421 l 796 1447 z "},"Ȍ":{"ha":1117,"x_min":32,"x_max":1085,"o":"m 558 989 q 827 924 707 989 q 1016 744 947 858 q 1085 489 1085 631 q 1016 231 1085 346 q 827 49 947 115 q 558 -18 707 -18 q 290 48 410 -18 q 101 230 169 114 q 32 489 32 346 q 101 744 32 631 q 290 924 169 858 q 558 989 410 989 m 561 774 q 427 736 489 774 q 329 633 365 699 q 293 488 293 567 q 330 341 293 407 q 428 237 367 275 q 561 199 489 199 q 694 237 633 199 q 789 341 754 275 q 824 488 824 407 q 789 633 824 567 q 694 736 754 699 q 561 774 633 774 m 419 1282 l 531 1053 l 357 1040 l 232 1213 l 419 1282 m 693 1282 l 804 1053 l 631 1040 l 506 1213 l 693 1282 z "},"Ö":{"ha":1117,"x_min":32,"x_max":1085,"o":"m 558 989 q 827 924 707 989 q 1016 744 947 858 q 1085 489 1085 631 q 1016 231 1085 346 q 827 49 947 115 q 558 -18 707 -18 q 290 48 410 -18 q 101 230 169 114 q 32 489 32 346 q 101 744 32 631 q 290 924 169 858 q 558 989 410 989 m 561 774 q 427 736 489 774 q 329 633 365 699 q 293 488 293 567 q 330 341 293 407 q 428 237 367 275 q 561 199 489 199 q 694 237 633 199 q 789 341 754 275 q 824 488 824 407 q 789 633 824 567 q 694 736 754 699 q 561 774 633 774 m 426 1263 q 502 1233 472 1263 q 532 1156 532 1203 q 502 1079 532 1110 q 426 1049 472 1049 q 349 1079 379 1049 q 319 1156 319 1110 q 349 1233 319 1203 q 426 1263 379 1263 m 693 1263 q 769 1233 739 1263 q 799 1156 799 1203 q 769 1079 799 1110 q 693 1049 739 1049 q 616 1079 646 1049 q 586 1156 586 1110 q 616 1233 586 1203 q 693 1263 646 1263 z "},"Ȫ":{"ha":1117,"x_min":32,"x_max":1085,"o":"m 558 989 q 827 924 707 989 q 1016 744 947 858 q 1085 489 1085 631 q 1016 231 1085 346 q 827 49 947 115 q 558 -18 707 -18 q 290 48 410 -18 q 101 230 169 114 q 32 489 32 346 q 101 744 32 631 q 290 924 169 858 q 558 989 410 989 m 561 774 q 427 736 489 774 q 329 633 365 699 q 293 488 293 567 q 330 341 293 407 q 428 237 367 275 q 561 199 489 199 q 694 237 633 199 q 789 341 754 275 q 824 488 824 407 q 789 633 824 567 q 694 736 754 699 q 561 774 633 774 z "},"Ȱ":{"ha":1117,"x_min":32,"x_max":1085,"o":"m 558 989 q 827 924 707 989 q 1016 744 947 858 q 1085 489 1085 631 q 1016 231 1085 346 q 827 49 947 115 q 558 -18 707 -18 q 290 48 410 -18 q 101 230 169 114 q 32 489 32 346 q 101 744 32 631 q 290 924 169 858 q 558 989 410 989 m 561 774 q 427 736 489 774 q 329 633 365 699 q 293 488 293 567 q 330 341 293 407 q 428 237 367 275 q 561 199 489 199 q 694 237 633 199 q 789 341 754 275 q 824 488 824 407 q 789 633 824 567 q 694 736 754 699 q 561 774 633 774 z "},"Ọ":{"ha":1117,"x_min":32,"x_max":1085,"o":"m 558 989 q 827 924 707 989 q 1016 744 947 858 q 1085 489 1085 631 q 1016 231 1085 346 q 827 49 947 115 q 558 -18 707 -18 q 290 48 410 -18 q 101 230 169 114 q 32 489 32 346 q 101 744 32 631 q 290 924 169 858 q 558 989 410 989 m 561 774 q 427 736 489 774 q 329 633 365 699 q 293 488 293 567 q 330 341 293 407 q 428 237 367 275 q 561 199 489 199 q 694 237 633 199 q 789 341 754 275 q 824 488 824 407 q 789 633 824 567 q 694 736 754 699 q 561 774 633 774 m 556 -94 q 649 -131 613 -94 q 686 -226 686 -168 q 649 -321 686 -283 q 556 -358 613 -358 q 462 -321 499 -358 q 425 -226 425 -283 q 462 -131 425 -168 q 556 -94 499 -94 z "},"Ò":{"ha":1117,"x_min":32,"x_max":1085,"o":"m 558 989 q 827 924 707 989 q 1016 744 947 858 q 1085 489 1085 631 q 1016 231 1085 346 q 827 49 947 115 q 558 -18 707 -18 q 290 48 410 -18 q 101 230 169 114 q 32 489 32 346 q 101 744 32 631 q 290 924 169 858 q 558 989 410 989 m 561 774 q 427 736 489 774 q 329 633 365 699 q 293 488 293 567 q 330 341 293 407 q 428 237 367 275 q 561 199 489 199 q 694 237 633 199 q 789 341 754 275 q 824 488 824 407 q 789 633 824 567 q 694 736 754 699 q 561 774 633 774 m 525 1281 l 672 1057 l 501 1043 l 319 1203 l 525 1281 z "},"Ỏ":{"ha":1117,"x_min":32,"x_max":1085,"o":"m 558 989 q 827 924 707 989 q 1016 744 947 858 q 1085 489 1085 631 q 1016 231 1085 346 q 827 49 947 115 q 558 -18 707 -18 q 290 48 410 -18 q 101 230 169 114 q 32 489 32 346 q 101 744 32 631 q 290 924 169 858 q 558 989 410 989 m 561 774 q 427 736 489 774 q 329 633 365 699 q 293 488 293 567 q 330 341 293 407 q 428 237 367 275 q 561 199 489 199 q 694 237 633 199 q 789 341 754 275 q 824 488 824 407 q 789 633 824 567 q 694 736 754 699 q 561 774 633 774 m 567 1354 q 681 1319 639 1354 q 722 1224 722 1283 q 691 1125 722 1175 q 603 1031 660 1075 l 493 1076 q 538 1130 522 1101 q 554 1182 554 1158 q 543 1209 554 1199 q 515 1219 532 1219 q 464 1200 488 1219 l 400 1301 q 567 1354 481 1354 z "},"Ơ":{"ha":1157,"x_min":32,"x_max":1111,"o":"m 1072 1181 q 1111 1031 1111 1103 q 1072 901 1111 957 q 961 819 1032 846 q 1053 669 1021 753 q 1085 489 1085 585 q 1016 231 1085 346 q 827 49 947 115 q 558 -18 707 -18 q 290 48 410 -18 q 101 230 169 114 q 32 489 32 346 q 101 744 32 631 q 290 924 169 858 q 558 989 410 989 q 800 938 689 989 q 836 932 815 932 q 897 958 875 932 q 919 1024 919 985 q 889 1114 919 1071 l 1072 1181 m 561 199 q 694 237 633 199 q 789 341 754 275 q 824 488 824 407 q 789 633 824 567 q 694 736 754 699 q 561 774 633 774 q 427 736 489 774 q 329 633 365 699 q 293 488 293 567 q 330 341 293 407 q 428 237 367 275 q 561 199 489 199 z "},"Ớ":{"ha":1157,"x_min":32,"x_max":1111,"o":"m 1072 1181 q 1111 1031 1111 1103 q 1072 901 1111 957 q 961 819 1032 846 q 1053 669 1021 753 q 1085 489 1085 585 q 1016 231 1085 346 q 827 49 947 115 q 558 -18 707 -18 q 290 48 410 -18 q 101 230 169 114 q 32 489 32 346 q 101 744 32 631 q 290 924 169 858 q 558 989 410 989 q 800 938 689 989 q 836 932 815 932 q 897 958 875 932 q 919 1024 919 985 q 889 1114 919 1071 l 1072 1181 m 561 199 q 694 237 633 199 q 789 341 754 275 q 824 488 824 407 q 789 633 824 567 q 694 736 754 699 q 561 774 633 774 q 427 736 489 774 q 329 633 365 699 q 293 488 293 567 q 330 341 293 407 q 428 237 367 275 q 561 199 489 199 m 601 1281 l 806 1203 l 604 1043 l 435 1057 l 601 1281 z "},"Ợ":{"ha":1156,"x_min":32,"x_max":1111,"o":"m 1072 1181 q 1111 1031 1111 1103 q 1072 901 1111 957 q 961 819 1032 846 q 1053 669 1021 753 q 1085 489 1085 585 q 1016 231 1085 346 q 827 49 947 115 q 558 -18 707 -18 q 290 48 410 -18 q 101 230 169 114 q 32 489 32 346 q 101 744 32 631 q 290 924 169 858 q 558 989 410 989 q 800 938 689 989 q 836 932 815 932 q 897 958 875 932 q 919 1024 919 985 q 889 1114 919 1071 l 1072 1181 m 561 199 q 694 237 633 199 q 789 341 754 275 q 824 488 824 407 q 789 633 824 567 q 694 736 754 699 q 561 774 633 774 q 427 736 489 774 q 329 633 365 699 q 293 488 293 567 q 330 341 293 407 q 428 237 367 275 q 561 199 489 199 m 556 -94 q 649 -131 613 -94 q 686 -226 686 -168 q 649 -321 686 -283 q 556 -358 613 -358 q 462 -321 499 -358 q 425 -226 425 -283 q 462 -131 425 -168 q 556 -94 499 -94 z "},"Ờ":{"ha":1157,"x_min":32,"x_max":1111,"o":"m 1072 1181 q 1111 1031 1111 1103 q 1072 901 1111 957 q 961 819 1032 846 q 1053 669 1021 753 q 1085 489 1085 585 q 1016 231 1085 346 q 827 49 947 115 q 558 -18 707 -18 q 290 48 410 -18 q 101 230 169 114 q 32 489 32 346 q 101 744 32 631 q 290 924 169 858 q 558 989 410 989 q 800 938 689 989 q 836 932 815 932 q 897 958 875 932 q 919 1024 919 985 q 889 1114 919 1071 l 1072 1181 m 561 199 q 694 237 633 199 q 789 341 754 275 q 824 488 824 407 q 789 633 824 567 q 694 736 754 699 q 561 774 633 774 q 427 736 489 774 q 329 633 365 699 q 293 488 293 567 q 330 341 293 407 q 428 237 367 275 q 561 199 489 199 m 525 1281 l 672 1057 l 501 1043 l 319 1203 l 525 1281 z "},"Ở":{"ha":1157,"x_min":32,"x_max":1111,"o":"m 1072 1181 q 1111 1031 1111 1103 q 1072 901 1111 957 q 961 819 1032 846 q 1053 669 1021 753 q 1085 489 1085 585 q 1016 231 1085 346 q 827 49 947 115 q 558 -18 707 -18 q 290 48 410 -18 q 101 230 169 114 q 32 489 32 346 q 101 744 32 631 q 290 924 169 858 q 558 989 410 989 q 800 938 689 989 q 836 932 815 932 q 897 958 875 932 q 919 1024 919 985 q 889 1114 919 1071 l 1072 1181 m 561 199 q 694 237 633 199 q 789 341 754 275 q 824 488 824 407 q 789 633 824 567 q 694 736 754 699 q 561 774 633 774 q 427 736 489 774 q 329 633 365 699 q 293 488 293 567 q 330 341 293 407 q 428 237 367 275 q 561 199 489 199 m 567 1354 q 681 1319 639 1354 q 722 1224 722 1283 q 691 1125 722 1175 q 603 1031 660 1075 l 493 1076 q 538 1130 522 1101 q 554 1182 554 1158 q 543 1209 554 1199 q 515 1219 532 1219 q 464 1200 488 1219 l 400 1301 q 567 1354 481 1354 z "},"Ỡ":{"ha":1157,"x_min":32,"x_max":1111,"o":"m 1072 1181 q 1111 1031 1111 1103 q 1072 901 1111 957 q 961 819 1032 846 q 1053 669 1021 753 q 1085 489 1085 585 q 1016 231 1085 346 q 827 49 947 115 q 558 -18 707 -18 q 290 48 410 -18 q 101 230 169 114 q 32 489 32 346 q 101 744 32 631 q 290 924 169 858 q 558 989 410 989 q 800 938 689 989 q 836 932 815 932 q 897 958 875 932 q 919 1024 919 985 q 889 1114 919 1071 l 1072 1181 m 561 199 q 694 237 633 199 q 789 341 754 275 q 824 488 824 407 q 789 633 824 567 q 694 736 754 699 q 561 774 633 774 q 427 736 489 774 q 329 633 365 699 q 293 488 293 567 q 330 341 293 407 q 428 237 367 275 q 561 199 489 199 m 814 1267 q 782 1103 814 1158 q 679 1047 750 1047 q 618 1058 646 1047 q 553 1088 590 1068 q 494 1110 514 1110 q 456 1051 456 1110 l 315 1051 q 347 1216 315 1160 q 451 1272 379 1272 q 513 1261 483 1272 q 576 1232 542 1250 q 635 1210 618 1210 q 675 1267 675 1210 l 814 1267 z "},"Ő":{"ha":1117,"x_min":32,"x_max":1085,"o":"m 558 989 q 827 924 707 989 q 1016 744 947 858 q 1085 489 1085 631 q 1016 231 1085 346 q 827 49 947 115 q 558 -18 707 -18 q 290 48 410 -18 q 101 230 169 114 q 32 489 32 346 q 101 744 32 631 q 290 924 169 858 q 558 989 410 989 m 561 774 q 427 736 489 774 q 329 633 365 699 q 293 488 293 567 q 330 341 293 407 q 428 237 367 275 q 561 199 489 199 q 694 237 633 199 q 789 341 754 275 q 824 488 824 407 q 789 633 824 567 q 694 736 754 699 q 561 774 633 774 m 425 1285 l 613 1215 l 488 1043 l 314 1056 l 425 1285 m 699 1285 l 886 1215 l 761 1043 l 588 1056 l 699 1285 z "},"Ȏ":{"ha":1117,"x_min":32,"x_max":1085,"o":"m 558 989 q 827 924 707 989 q 1016 744 947 858 q 1085 489 1085 631 q 1016 231 1085 346 q 827 49 947 115 q 558 -18 707 -18 q 290 48 410 -18 q 101 230 169 114 q 32 489 32 346 q 101 744 32 631 q 290 924 169 858 q 558 989 410 989 m 561 774 q 427 736 489 774 q 329 633 365 699 q 293 488 293 567 q 330 341 293 407 q 428 237 367 275 q 561 199 489 199 q 694 237 633 199 q 789 341 754 275 q 824 488 824 407 q 789 633 824 567 q 694 736 754 699 q 561 774 633 774 m 328 1051 q 395 1214 332 1153 q 558 1275 458 1275 q 720 1214 657 1275 q 788 1051 783 1153 l 635 1051 q 610 1109 632 1088 q 558 1131 589 1131 q 506 1109 526 1131 q 482 1051 485 1088 l 328 1051 z "},"Ō":{"ha":1117,"x_min":32,"x_max":1085,"o":"m 558 989 q 827 924 707 989 q 1016 744 947 858 q 1085 489 1085 631 q 1016 231 1085 346 q 827 49 947 115 q 558 -18 707 -18 q 290 48 410 -18 q 101 230 169 114 q 32 489 32 346 q 101 744 32 631 q 290 924 169 858 q 558 989 410 989 m 561 774 q 427 736 489 774 q 329 633 365 699 q 293 488 293 567 q 330 341 293 407 q 428 237 367 275 q 561 199 489 199 q 694 237 633 199 q 789 341 754 275 q 824 488 824 407 q 789 633 824 567 q 694 736 754 699 q 561 774 633 774 m 317 1200 l 800 1200 l 800 1054 l 317 1054 l 317 1200 z "},"Ṓ":{"ha":1117,"x_min":32,"x_max":1085,"o":"m 558 989 q 827 924 707 989 q 1016 744 947 858 q 1085 489 1085 631 q 1016 231 1085 346 q 827 49 947 115 q 558 -18 707 -18 q 290 48 410 -18 q 101 230 169 114 q 32 489 32 346 q 101 744 32 631 q 290 924 169 858 q 558 989 410 989 m 561 774 q 427 736 489 774 q 329 633 365 699 q 293 488 293 567 q 330 341 293 407 q 428 237 367 275 q 561 199 489 199 q 694 237 633 199 q 789 341 754 275 q 824 488 824 407 q 789 633 824 567 q 694 736 754 699 q 561 774 633 774 m 342 1190 l 747 1190 l 747 1051 l 342 1051 l 342 1190 m 606 1471 l 774 1369 l 554 1251 l 407 1290 l 606 1471 z "},"Ṑ":{"ha":1117,"x_min":32,"x_max":1085,"o":"m 558 989 q 827 924 707 989 q 1016 744 947 858 q 1085 489 1085 631 q 1016 231 1085 346 q 827 49 947 115 q 558 -18 707 -18 q 290 48 410 -18 q 101 230 169 114 q 32 489 32 346 q 101 744 32 631 q 290 924 169 858 q 558 989 410 989 m 561 774 q 427 736 489 774 q 329 633 365 699 q 293 488 293 567 q 330 341 293 407 q 428 237 367 275 q 561 199 489 199 q 694 237 633 199 q 789 341 754 275 q 824 488 824 407 q 789 633 824 567 q 694 736 754 699 q 561 774 633 774 m 376 1190 l 782 1190 l 782 1051 l 376 1051 l 376 1190 m 504 1471 l 701 1290 l 556 1251 l 336 1369 l 504 1471 z "},"Ǫ":{"ha":1117,"x_min":32,"x_max":1085,"o":"m 1085 489 q 1022 240 1085 353 q 849 61 958 128 q 775 -38 803 14 q 747 -129 747 -90 q 778 -172 747 -172 q 818 -161 799 -172 l 858 -293 q 726 -324 788 -324 q 612 -285 656 -324 q 568 -174 568 -247 q 635 -14 568 -90 q 558 -18 597 -18 q 290 48 410 -18 q 101 230 169 114 q 32 489 32 346 q 101 744 32 631 q 290 924 169 858 q 558 989 410 989 q 827 924 707 989 q 1016 744 947 858 q 1085 489 1085 631 m 293 488 q 330 341 293 407 q 428 237 367 275 q 561 199 489 199 q 694 237 633 199 q 789 341 754 275 q 824 488 824 407 q 789 633 824 567 q 694 736 754 699 q 561 774 633 774 q 427 736 489 774 q 329 633 365 699 q 293 488 293 567 z "},"Ø":{"ha":1117,"x_min":32,"x_max":1085,"o":"m 882 879 q 1031 708 978 811 q 1085 483 1085 606 q 1016 230 1085 343 q 827 51 947 117 q 558 -14 707 -14 q 351 22 447 -14 l 290 -76 l 131 -76 l 232 88 q 85 258 138 156 q 32 483 32 361 q 101 737 32 624 q 290 914 169 850 q 558 978 410 978 q 761 943 664 978 l 826 1049 l 988 1049 l 882 879 m 293 483 q 311 381 293 429 q 361 296 329 333 l 640 749 q 561 761 603 761 q 427 724 489 761 q 329 624 365 688 q 293 483 293 561 m 561 201 q 693 239 633 201 q 788 341 753 276 q 824 483 824 406 q 754 674 824 593 l 472 217 q 561 201 515 201 z "},"Ǿ":{"ha":1117,"x_min":32,"x_max":1085,"o":"m 882 879 q 1031 708 978 811 q 1085 483 1085 606 q 1016 230 1085 343 q 827 51 947 117 q 558 -14 707 -14 q 351 22 447 -14 l 290 -76 l 131 -76 l 232 88 q 85 258 138 156 q 32 483 32 361 q 101 737 32 624 q 290 914 169 850 q 558 978 410 978 q 761 943 664 978 l 826 1049 l 988 1049 l 882 879 m 293 483 q 311 381 293 429 q 361 296 329 333 l 640 749 q 561 761 603 761 q 427 724 489 761 q 329 624 365 688 q 293 483 293 561 m 561 201 q 693 239 633 201 q 788 341 753 276 q 824 483 824 406 q 754 674 824 593 l 472 217 q 561 201 515 201 m 617 1281 l 821 1203 l 619 1043 l 450 1057 l 617 1281 z "},"Õ":{"ha":1117,"x_min":32,"x_max":1085,"o":"m 558 989 q 827 924 707 989 q 1016 744 947 858 q 1085 489 1085 631 q 1016 231 1085 346 q 827 49 947 115 q 558 -18 707 -18 q 290 48 410 -18 q 101 230 169 114 q 32 489 32 346 q 101 744 32 631 q 290 924 169 858 q 558 989 410 989 m 561 774 q 427 736 489 774 q 329 633 365 699 q 293 488 293 567 q 330 341 293 407 q 428 237 367 275 q 561 199 489 199 q 694 237 633 199 q 789 341 754 275 q 824 488 824 407 q 789 633 824 567 q 694 736 754 699 q 561 774 633 774 m 814 1267 q 782 1103 814 1158 q 679 1047 750 1047 q 618 1058 646 1047 q 553 1088 590 1068 q 494 1110 514 1110 q 456 1051 456 1110 l 315 1051 q 347 1216 315 1160 q 451 1272 379 1272 q 513 1261 483 1272 q 576 1232 542 1250 q 635 1210 618 1210 q 675 1267 675 1210 l 814 1267 z "},"Ṍ":{"ha":1117,"x_min":32,"x_max":1085,"o":"m 558 989 q 827 924 707 989 q 1016 744 947 858 q 1085 489 1085 631 q 1016 231 1085 346 q 827 49 947 115 q 558 -18 707 -18 q 290 48 410 -18 q 101 230 169 114 q 32 489 32 346 q 101 744 32 631 q 290 924 169 858 q 558 989 410 989 m 561 774 q 427 736 489 774 q 329 633 365 699 q 293 488 293 567 q 330 341 293 407 q 428 237 367 275 q 561 199 489 199 q 694 237 633 199 q 789 341 754 275 q 824 488 824 407 q 789 633 824 567 q 694 736 754 699 q 561 774 633 774 z "},"Ṏ":{"ha":1117,"x_min":32,"x_max":1085,"o":"m 558 989 q 827 924 707 989 q 1016 744 947 858 q 1085 489 1085 631 q 1016 231 1085 346 q 827 49 947 115 q 558 -18 707 -18 q 290 48 410 -18 q 101 230 169 114 q 32 489 32 346 q 101 744 32 631 q 290 924 169 858 q 558 989 410 989 m 561 774 q 427 736 489 774 q 329 633 365 699 q 293 488 293 567 q 330 341 293 407 q 428 237 367 275 q 561 199 489 199 q 694 237 633 199 q 789 341 754 275 q 824 488 824 407 q 789 633 824 567 q 694 736 754 699 q 561 774 633 774 z "},"Ȭ":{"ha":1117,"x_min":32,"x_max":1085,"o":"m 558 989 q 827 924 707 989 q 1016 744 947 858 q 1085 489 1085 631 q 1016 231 1085 346 q 827 49 947 115 q 558 -18 707 -18 q 290 48 410 -18 q 101 230 169 114 q 32 489 32 346 q 101 744 32 631 q 290 924 169 858 q 558 989 410 989 m 561 774 q 427 736 489 774 q 329 633 365 699 q 293 488 293 567 q 330 341 293 407 q 428 237 367 275 q 561 199 489 199 q 694 237 633 199 q 789 341 754 275 q 824 488 824 407 q 789 633 824 567 q 694 736 754 699 q 561 774 633 774 z "},"Œ":{"ha":1547,"x_min":32,"x_max":1486,"o":"m 1486 203 l 1486 0 l 557 0 q 290 63 410 0 q 101 237 169 126 q 32 485 32 347 q 100 734 32 622 q 288 910 168 846 q 557 974 408 974 l 1472 974 l 1472 771 l 958 771 l 958 589 l 1422 589 l 1422 388 l 958 388 l 958 203 l 1486 203 m 704 210 l 704 761 l 558 761 q 423 725 483 761 q 328 626 363 689 q 293 483 293 563 q 328 343 293 406 q 423 244 363 281 q 558 208 483 208 l 704 210 z "},"P":{"ha":944,"x_min":94,"x_max":914,"o":"m 522 974 q 811 884 708 974 q 914 632 914 794 q 811 365 914 460 q 522 269 708 269 l 349 269 l 349 0 l 94 0 l 94 974 l 522 974 m 510 472 q 630 511 588 472 q 672 624 672 550 q 630 733 672 694 q 510 771 588 771 l 349 771 l 349 472 l 510 472 z "},"Þ":{"ha":957,"x_min":94,"x_max":926,"o":"m 515 846 q 817 756 707 846 q 926 510 926 667 q 817 249 926 344 q 515 154 708 154 l 349 154 l 349 0 l 94 0 l 94 974 l 349 974 l 349 846 l 515 846 m 504 351 q 624 391 582 351 q 667 503 667 431 q 624 610 667 572 q 504 649 582 649 l 349 649 l 349 351 l 504 351 z "},"Q":{"ha":1122,"x_min":32,"x_max":1133,"o":"m 1133 -124 q 1001 -203 1078 -174 q 850 -232 924 -232 q 669 -175 751 -232 q 539 -18 588 -118 q 279 53 394 -14 q 98 235 164 121 q 32 489 32 349 q 101 744 32 631 q 290 924 169 858 q 558 989 410 989 q 827 924 707 989 q 1016 744 947 858 q 1085 489 1085 631 q 999 203 1085 328 q 768 21 913 78 q 878 -39 819 -39 q 955 -19 911 -39 q 1044 33 999 0 l 1133 -124 m 293 488 q 330 341 293 407 q 428 237 367 275 q 561 199 489 199 q 694 237 633 199 q 789 341 754 275 q 824 488 824 407 q 789 633 824 567 q 694 736 754 699 q 561 774 633 774 q 427 736 489 774 q 329 633 365 699 q 293 488 293 567 z "},"R":{"ha":1006,"x_min":94,"x_max":967,"o":"m 679 0 l 538 269 l 532 269 l 349 269 l 349 0 l 94 0 l 94 974 l 532 974 q 831 884 725 974 q 938 632 938 794 q 893 442 938 522 q 764 318 849 363 l 967 0 l 679 0 m 349 472 l 533 472 q 653 511 611 472 q 696 624 696 550 q 653 733 696 694 q 533 771 611 771 l 349 771 l 349 472 z "},"Ŕ":{"ha":1006,"x_min":94,"x_max":967,"o":"m 679 0 l 538 269 l 532 269 l 349 269 l 349 0 l 94 0 l 94 974 l 532 974 q 831 884 725 974 q 938 632 938 794 q 893 442 938 522 q 764 318 849 363 l 967 0 l 679 0 m 349 472 l 533 472 q 653 511 611 472 q 696 624 696 550 q 653 733 696 694 q 533 771 611 771 l 349 771 l 349 472 m 535 1281 l 739 1203 l 538 1043 l 368 1057 l 535 1281 z "},"Ř":{"ha":1006,"x_min":94,"x_max":967,"o":"m 679 0 l 538 269 l 532 269 l 349 269 l 349 0 l 94 0 l 94 974 l 532 974 q 831 884 725 974 q 938 632 938 794 q 893 442 938 522 q 764 318 849 363 l 967 0 l 679 0 m 349 472 l 533 472 q 653 511 611 472 q 696 624 696 550 q 653 733 696 694 q 533 771 611 771 l 349 771 l 349 472 m 558 1264 l 736 1264 l 585 1051 l 367 1051 l 215 1264 l 393 1264 l 475 1171 l 558 1264 z "},"Ŗ":{"ha":1006,"x_min":94,"x_max":967,"o":"m 679 0 l 538 269 l 532 269 l 349 269 l 349 0 l 94 0 l 94 974 l 532 974 q 831 884 725 974 q 938 632 938 794 q 893 442 938 522 q 764 318 849 363 l 967 0 l 679 0 m 349 472 l 533 472 q 653 511 611 472 q 696 624 696 550 q 653 733 696 694 q 533 771 611 771 l 349 771 l 349 472 m 396 -83 l 597 -83 l 494 -325 l 351 -325 l 396 -83 z "},"Ȑ":{"ha":1006,"x_min":94,"x_max":967,"o":"m 679 0 l 538 269 l 532 269 l 349 269 l 349 0 l 94 0 l 94 974 l 532 974 q 831 884 725 974 q 938 632 938 794 q 893 442 938 522 q 764 318 849 363 l 967 0 l 679 0 m 349 472 l 533 472 q 653 511 611 472 q 696 624 696 550 q 653 733 696 694 q 533 771 611 771 l 349 771 l 349 472 m 354 1282 l 465 1053 l 292 1040 l 167 1213 l 354 1282 m 628 1282 l 739 1053 l 565 1040 l 440 1213 l 628 1282 z "},"Ṛ":{"ha":1006,"x_min":94,"x_max":967,"o":"m 679 0 l 538 269 l 532 269 l 349 269 l 349 0 l 94 0 l 94 974 l 532 974 q 831 884 725 974 q 938 632 938 794 q 893 442 938 522 q 764 318 849 363 l 967 0 l 679 0 m 349 472 l 533 472 q 653 511 611 472 q 696 624 696 550 q 653 733 696 694 q 533 771 611 771 l 349 771 l 349 472 m 496 -94 q 590 -131 553 -94 q 626 -226 626 -168 q 590 -321 626 -283 q 496 -358 553 -358 q 402 -321 439 -358 q 365 -226 365 -283 q 402 -131 365 -168 q 496 -94 439 -94 z "},"Ȓ":{"ha":1006,"x_min":94,"x_max":967,"o":"m 679 0 l 538 269 l 532 269 l 349 269 l 349 0 l 94 0 l 94 974 l 532 974 q 831 884 725 974 q 938 632 938 794 q 893 442 938 522 q 764 318 849 363 l 967 0 l 679 0 m 349 472 l 533 472 q 653 511 611 472 q 696 624 696 550 q 653 733 696 694 q 533 771 611 771 l 349 771 l 349 472 m 263 1051 q 330 1214 267 1153 q 493 1275 393 1275 q 655 1214 592 1275 q 722 1051 718 1153 l 569 1051 q 545 1109 567 1088 q 493 1131 524 1131 q 440 1109 461 1131 q 417 1051 419 1088 l 263 1051 z "},"Ṟ":{"ha":1006,"x_min":94,"x_max":967,"o":"m 679 0 l 538 269 l 532 269 l 349 269 l 349 0 l 94 0 l 94 974 l 532 974 q 831 884 725 974 q 938 632 938 794 q 893 442 938 522 q 764 318 849 363 l 967 0 l 679 0 m 349 472 l 533 472 q 653 511 611 472 q 696 624 696 550 q 653 733 696 694 q 533 771 611 771 l 349 771 l 349 472 m 283 -107 l 713 -107 l 713 -253 l 283 -253 l 283 -107 z "},"S":{"ha":897,"x_min":22,"x_max":863,"o":"m 765 681 q 599 756 688 726 q 451 785 511 785 q 377 767 404 785 q 350 717 350 750 q 374 663 350 685 q 432 628 397 642 q 535 594 467 615 q 702 536 636 565 q 815 447 768 507 q 863 289 863 386 q 811 123 863 192 q 670 19 760 54 q 471 -15 581 -15 q 230 27 350 -15 q 22 143 110 69 l 121 342 q 295 235 194 276 q 474 193 396 193 q 563 214 531 193 q 596 275 596 235 q 572 331 596 308 q 510 366 547 353 q 407 397 474 379 q 242 453 307 425 q 130 540 176 482 q 83 693 83 597 q 131 851 83 783 q 267 956 179 919 q 472 993 356 993 q 681 963 578 993 q 861 883 783 933 l 765 681 z "},"Ś":{"ha":897,"x_min":22,"x_max":863,"o":"m 765 681 q 599 756 688 726 q 451 785 511 785 q 377 767 404 785 q 350 717 350 750 q 374 663 350 685 q 432 628 397 642 q 535 594 467 615 q 702 536 636 565 q 815 447 768 507 q 863 289 863 386 q 811 123 863 192 q 670 19 760 54 q 471 -15 581 -15 q 230 27 350 -15 q 22 143 110 69 l 121 342 q 295 235 194 276 q 474 193 396 193 q 563 214 531 193 q 596 275 596 235 q 572 331 596 308 q 510 366 547 353 q 407 397 474 379 q 242 453 307 425 q 130 540 176 482 q 83 693 83 597 q 131 851 83 783 q 267 956 179 919 q 472 993 356 993 q 681 963 578 993 q 861 883 783 933 l 765 681 m 517 1281 l 721 1203 l 519 1043 l 350 1057 l 517 1281 z "},"Ṥ":{"ha":897,"x_min":22,"x_max":863,"o":"m 765 681 q 599 756 688 726 q 451 785 511 785 q 377 767 404 785 q 350 717 350 750 q 374 663 350 685 q 432 628 397 642 q 535 594 467 615 q 702 536 636 565 q 815 447 768 507 q 863 289 863 386 q 811 123 863 192 q 670 19 760 54 q 471 -15 581 -15 q 230 27 350 -15 q 22 143 110 69 l 121 342 q 295 235 194 276 q 474 193 396 193 q 563 214 531 193 q 596 275 596 235 q 572 331 596 308 q 510 366 547 353 q 407 397 474 379 q 242 453 307 425 q 130 540 176 482 q 83 693 83 597 q 131 851 83 783 q 267 956 179 919 q 472 993 356 993 q 681 963 578 993 q 861 883 783 933 l 765 681 z "},"Ꞌ":{"ha":431,"x_min":89,"x_max":343,"o":"m 89 974 l 343 974 l 311 414 l 89 414 l 89 974 z "},"Š":{"ha":897,"x_min":22,"x_max":863,"o":"m 765 681 q 599 756 688 726 q 451 785 511 785 q 377 767 404 785 q 350 717 350 750 q 374 663 350 685 q 432 628 397 642 q 535 594 467 615 q 702 536 636 565 q 815 447 768 507 q 863 289 863 386 q 811 123 863 192 q 670 19 760 54 q 471 -15 581 -15 q 230 27 350 -15 q 22 143 110 69 l 121 342 q 295 235 194 276 q 474 193 396 193 q 563 214 531 193 q 596 275 596 235 q 572 331 596 308 q 510 366 547 353 q 407 397 474 379 q 242 453 307 425 q 130 540 176 482 q 83 693 83 597 q 131 851 83 783 q 267 956 179 919 q 472 993 356 993 q 681 963 578 993 q 861 883 783 933 l 765 681 m 540 1264 l 718 1264 l 567 1051 l 349 1051 l 197 1264 l 375 1264 l 457 1171 l 540 1264 z "},"Ṧ":{"ha":897,"x_min":22,"x_max":863,"o":"m 765 681 q 599 756 688 726 q 451 785 511 785 q 377 767 404 785 q 350 717 350 750 q 374 663 350 685 q 432 628 397 642 q 535 594 467 615 q 702 536 636 565 q 815 447 768 507 q 863 289 863 386 q 811 123 863 192 q 670 19 760 54 q 471 -15 581 -15 q 230 27 350 -15 q 22 143 110 69 l 121 342 q 295 235 194 276 q 474 193 396 193 q 563 214 531 193 q 596 275 596 235 q 572 331 596 308 q 510 366 547 353 q 407 397 474 379 q 242 453 307 425 q 130 540 176 482 q 83 693 83 597 q 131 851 83 783 q 267 956 179 919 q 472 993 356 993 q 681 963 578 993 q 861 883 783 933 l 765 681 z "},"Ş":{"ha":897,"x_min":22,"x_max":863,"o":"m 863 289 q 773 82 863 160 q 539 -11 683 4 l 515 -78 q 601 -120 574 -90 q 629 -190 629 -150 q 578 -291 629 -257 q 451 -325 528 -325 q 299 -297 375 -325 l 338 -186 q 408 -199 369 -199 q 449 -190 433 -199 q 464 -168 464 -182 q 443 -144 464 -153 q 390 -136 422 -136 l 357 -136 l 397 -11 q 194 40 293 0 q 22 143 96 81 l 121 342 q 295 235 194 276 q 474 193 396 193 q 563 214 531 193 q 596 275 596 235 q 572 331 596 308 q 510 366 547 353 q 407 397 474 379 q 242 453 307 425 q 130 540 176 482 q 83 693 83 597 q 131 851 83 783 q 267 956 179 919 q 472 993 356 993 q 681 963 578 993 q 861 883 783 933 l 765 681 q 599 756 688 726 q 451 785 511 785 q 377 767 404 785 q 350 717 350 750 q 374 663 350 685 q 432 628 397 642 q 535 594 467 615 q 702 536 636 565 q 815 447 768 507 q 863 289 863 386 z "},"Ŝ":{"ha":897,"x_min":22,"x_max":863,"o":"m 765 681 q 599 756 688 726 q 451 785 511 785 q 377 767 404 785 q 350 717 350 750 q 374 663 350 685 q 432 628 397 642 q 535 594 467 615 q 702 536 636 565 q 815 447 768 507 q 863 289 863 386 q 811 123 863 192 q 670 19 760 54 q 471 -15 581 -15 q 230 27 350 -15 q 22 143 110 69 l 121 342 q 295 235 194 276 q 474 193 396 193 q 563 214 531 193 q 596 275 596 235 q 572 331 596 308 q 510 366 547 353 q 407 397 474 379 q 242 453 307 425 q 130 540 176 482 q 83 693 83 597 q 131 851 83 783 q 267 956 179 919 q 472 993 356 993 q 681 963 578 993 q 861 883 783 933 l 765 681 m 736 1051 l 558 1051 l 476 1144 l 393 1051 l 215 1051 l 367 1264 l 585 1264 l 736 1051 z "},"Ș":{"ha":897,"x_min":22,"x_max":863,"o":"m 765 681 q 599 756 688 726 q 451 785 511 785 q 377 767 404 785 q 350 717 350 750 q 374 663 350 685 q 432 628 397 642 q 535 594 467 615 q 702 536 636 565 q 815 447 768 507 q 863 289 863 386 q 811 123 863 192 q 670 19 760 54 q 471 -15 581 -15 q 230 27 350 -15 q 22 143 110 69 l 121 342 q 295 235 194 276 q 474 193 396 193 q 563 214 531 193 q 596 275 596 235 q 572 331 596 308 q 510 366 547 353 q 407 397 474 379 q 242 453 307 425 q 130 540 176 482 q 83 693 83 597 q 131 851 83 783 q 267 956 179 919 q 472 993 356 993 q 681 963 578 993 q 861 883 783 933 l 765 681 m 360 -83 l 561 -83 l 458 -325 l 315 -325 l 360 -83 z "},"Ṡ":{"ha":897,"x_min":22,"x_max":863,"o":"m 765 681 q 599 756 688 726 q 451 785 511 785 q 377 767 404 785 q 350 717 350 750 q 374 663 350 685 q 432 628 397 642 q 535 594 467 615 q 702 536 636 565 q 815 447 768 507 q 863 289 863 386 q 811 123 863 192 q 670 19 760 54 q 471 -15 581 -15 q 230 27 350 -15 q 22 143 110 69 l 121 342 q 295 235 194 276 q 474 193 396 193 q 563 214 531 193 q 596 275 596 235 q 572 331 596 308 q 510 366 547 353 q 407 397 474 379 q 242 453 307 425 q 130 540 176 482 q 83 693 83 597 q 131 851 83 783 q 267 956 179 919 q 472 993 356 993 q 681 963 578 993 q 861 883 783 933 l 765 681 m 475 1313 q 568 1276 532 1313 q 604 1181 604 1239 q 567 1086 604 1124 q 475 1049 531 1049 q 381 1086 418 1049 q 344 1181 344 1124 q 381 1276 344 1239 q 475 1313 418 1313 z "},"Ṣ":{"ha":897,"x_min":22,"x_max":863,"o":"m 765 681 q 599 756 688 726 q 451 785 511 785 q 377 767 404 785 q 350 717 350 750 q 374 663 350 685 q 432 628 397 642 q 535 594 467 615 q 702 536 636 565 q 815 447 768 507 q 863 289 863 386 q 811 123 863 192 q 670 19 760 54 q 471 -15 581 -15 q 230 27 350 -15 q 22 143 110 69 l 121 342 q 295 235 194 276 q 474 193 396 193 q 563 214 531 193 q 596 275 596 235 q 572 331 596 308 q 510 366 547 353 q 407 397 474 379 q 242 453 307 425 q 130 540 176 482 q 83 693 83 597 q 131 851 83 783 q 267 956 179 919 q 472 993 356 993 q 681 963 578 993 q 861 883 783 933 l 765 681 m 460 -94 q 553 -131 517 -94 q 590 -226 590 -168 q 553 -321 590 -283 q 460 -358 517 -358 q 366 -321 403 -358 q 329 -226 329 -283 q 366 -131 329 -168 q 460 -94 403 -94 z "},"Ṩ":{"ha":897,"x_min":22,"x_max":863,"o":"m 765 681 q 599 756 688 726 q 451 785 511 785 q 377 767 404 785 q 350 717 350 750 q 374 663 350 685 q 432 628 397 642 q 535 594 467 615 q 702 536 636 565 q 815 447 768 507 q 863 289 863 386 q 811 123 863 192 q 670 19 760 54 q 471 -15 581 -15 q 230 27 350 -15 q 22 143 110 69 l 121 342 q 295 235 194 276 q 474 193 396 193 q 563 214 531 193 q 596 275 596 235 q 572 331 596 308 q 510 366 547 353 q 407 397 474 379 q 242 453 307 425 q 130 540 176 482 q 83 693 83 597 q 131 851 83 783 q 267 956 179 919 q 472 993 356 993 q 681 963 578 993 q 861 883 783 933 l 765 681 m 460 -94 q 553 -131 517 -94 q 590 -226 590 -168 q 553 -321 590 -283 q 460 -358 517 -358 q 366 -321 403 -358 q 329 -226 329 -283 q 366 -131 329 -168 q 460 -94 403 -94 m 463 1313 q 556 1276 519 1313 q 592 1181 592 1239 q 555 1086 592 1124 q 463 1049 518 1049 q 369 1086 406 1049 q 332 1181 332 1124 q 369 1276 332 1239 q 463 1313 406 1313 z "},"ẞ":{"ha":988,"x_min":71,"x_max":954,"o":"m 754 551 q 902 454 850 522 q 954 288 954 386 q 858 77 954 154 q 583 0 763 0 l 469 0 l 469 197 l 550 197 q 654 226 617 197 q 692 306 692 254 q 655 385 692 357 q 550 414 618 414 l 511 414 l 511 569 l 667 756 q 549 775 615 775 q 384 714 443 775 q 325 544 325 653 l 325 0 l 71 0 l 71 528 q 192 864 71 743 q 531 985 314 985 q 874 882 725 985 l 874 697 l 754 551 z "},"Ə":{"ha":1099,"x_min":38,"x_max":1060,"o":"m 550 -18 q 282 52 399 -18 q 101 250 165 122 q 38 543 38 378 l 797 543 q 714 709 782 644 q 553 774 646 774 q 426 739 485 774 q 329 646 367 704 l 153 825 q 326 947 226 904 q 550 989 426 989 q 810 924 694 989 q 993 744 926 858 q 1060 489 1060 631 q 993 231 1060 346 q 810 49 926 115 q 550 -18 693 -18 m 553 199 q 701 248 639 199 q 788 381 763 297 l 314 381 q 403 248 339 297 q 553 199 467 199 z "},"T":{"ha":853,"x_min":10,"x_max":844,"o":"m 10 974 l 844 974 l 844 764 l 553 764 l 553 0 l 299 0 l 299 764 l 10 764 l 10 974 z "},"Ŧ":{"ha":853,"x_min":10,"x_max":844,"o":"m 844 764 l 553 764 l 553 501 l 729 501 l 729 365 l 553 365 l 553 0 l 299 0 l 299 365 l 121 365 l 121 501 l 299 501 l 299 764 l 10 764 l 10 974 l 844 974 l 844 764 z "},"Ť":{"ha":853,"x_min":10,"x_max":844,"o":"m 10 974 l 844 974 l 844 764 l 553 764 l 553 0 l 299 0 l 299 764 l 10 764 l 10 974 m 510 1264 l 688 1264 l 536 1051 l 318 1051 l 167 1264 l 344 1264 l 426 1171 l 510 1264 z "},"Ţ":{"ha":853,"x_min":10,"x_max":844,"o":"m 507 0 l 479 -78 q 565 -120 538 -90 q 593 -190 593 -150 q 542 -291 593 -257 q 415 -325 492 -325 q 263 -297 339 -325 l 301 -186 q 372 -199 333 -199 q 413 -190 397 -199 q 428 -168 428 -182 q 407 -144 428 -153 q 354 -136 386 -136 l 321 -136 l 365 0 l 299 0 l 299 764 l 10 764 l 10 974 l 844 974 l 844 764 l 553 764 l 553 0 l 507 0 z "},"Ț":{"ha":853,"x_min":10,"x_max":844,"o":"m 10 974 l 844 974 l 844 764 l 553 764 l 553 0 l 299 0 l 299 764 l 10 764 l 10 974 m 324 -83 l 525 -83 l 422 -325 l 279 -325 l 324 -83 z "},"Ṭ":{"ha":853,"x_min":10,"x_max":844,"o":"m 10 974 l 844 974 l 844 764 l 553 764 l 553 0 l 299 0 l 299 764 l 10 764 l 10 974 m 424 -94 q 517 -131 481 -94 q 554 -226 554 -168 q 517 -321 554 -283 q 424 -358 481 -358 q 330 -321 367 -358 q 293 -226 293 -283 q 330 -131 293 -168 q 424 -94 367 -94 z "},"Ṯ":{"ha":853,"x_min":10,"x_max":844,"o":"m 10 974 l 844 974 l 844 764 l 553 764 l 553 0 l 299 0 l 299 764 l 10 764 l 10 974 m 211 -107 l 640 -107 l 640 -253 l 211 -253 l 211 -107 z "},"U":{"ha":1040,"x_min":78,"x_max":961,"o":"m 332 401 q 386 254 332 310 q 524 199 440 199 q 656 253 606 199 q 707 401 707 308 l 707 974 l 961 974 l 961 401 q 908 180 961 275 q 755 33 854 85 q 522 -18 656 -18 q 288 33 389 -18 q 133 180 188 85 q 78 401 78 275 l 78 974 l 332 974 l 332 401 z "},"Ú":{"ha":1040,"x_min":78,"x_max":961,"o":"m 332 401 q 386 254 332 310 q 524 199 440 199 q 656 253 606 199 q 707 401 707 308 l 707 974 l 961 974 l 961 401 q 908 180 961 275 q 755 33 854 85 q 522 -18 656 -18 q 288 33 389 -18 q 133 180 188 85 q 78 401 78 275 l 78 974 l 332 974 l 332 401 m 563 1281 l 767 1203 l 565 1043 l 396 1057 l 563 1281 z "},"Ŭ":{"ha":1040,"x_min":78,"x_max":961,"o":"m 332 401 q 386 254 332 310 q 524 199 440 199 q 656 253 606 199 q 707 401 707 308 l 707 974 l 961 974 l 961 401 q 908 180 961 275 q 755 33 854 85 q 522 -18 656 -18 q 288 33 389 -18 q 133 180 188 85 q 78 401 78 275 l 78 974 l 332 974 l 332 401 m 444 1272 q 468 1215 447 1236 q 521 1193 489 1193 q 573 1215 551 1193 q 597 1272 594 1236 l 750 1272 q 683 1110 746 1171 q 521 1049 621 1049 q 358 1110 421 1049 q 290 1272 294 1171 l 444 1272 z "},"Û":{"ha":1040,"x_min":78,"x_max":961,"o":"m 332 401 q 386 254 332 310 q 524 199 440 199 q 656 253 606 199 q 707 401 707 308 l 707 974 l 961 974 l 961 401 q 908 180 961 275 q 755 33 854 85 q 522 -18 656 -18 q 288 33 389 -18 q 133 180 188 85 q 78 401 78 275 l 78 974 l 332 974 l 332 401 m 782 1051 l 604 1051 l 522 1144 l 439 1051 l 261 1051 l 413 1264 l 631 1264 l 782 1051 z "},"Ȕ":{"ha":1040,"x_min":78,"x_max":961,"o":"m 332 401 q 386 254 332 310 q 524 199 440 199 q 656 253 606 199 q 707 401 707 308 l 707 974 l 961 974 l 961 401 q 908 180 961 275 q 755 33 854 85 q 522 -18 656 -18 q 288 33 389 -18 q 133 180 188 85 q 78 401 78 275 l 78 974 l 332 974 l 332 401 m 382 1282 l 493 1053 l 319 1040 l 194 1213 l 382 1282 m 656 1282 l 767 1053 l 593 1040 l 468 1213 l 656 1282 z "},"Ü":{"ha":1040,"x_min":78,"x_max":961,"o":"m 332 401 q 386 254 332 310 q 524 199 440 199 q 656 253 606 199 q 707 401 707 308 l 707 974 l 961 974 l 961 401 q 908 180 961 275 q 755 33 854 85 q 522 -18 656 -18 q 288 33 389 -18 q 133 180 188 85 q 78 401 78 275 l 78 974 l 332 974 l 332 401 m 389 1263 q 465 1233 435 1263 q 494 1156 494 1203 q 465 1079 494 1110 q 389 1049 435 1049 q 312 1079 342 1049 q 282 1156 282 1110 q 312 1233 282 1203 q 389 1263 342 1263 m 656 1263 q 731 1233 701 1263 q 761 1156 761 1203 q 731 1079 761 1110 q 656 1049 701 1049 q 578 1079 608 1049 q 549 1156 549 1110 q 578 1233 549 1203 q 656 1263 608 1263 z "},"Ụ":{"ha":1040,"x_min":78,"x_max":961,"o":"m 332 401 q 386 254 332 310 q 524 199 440 199 q 656 253 606 199 q 707 401 707 308 l 707 974 l 961 974 l 961 401 q 908 180 961 275 q 755 33 854 85 q 522 -18 656 -18 q 288 33 389 -18 q 133 180 188 85 q 78 401 78 275 l 78 974 l 332 974 l 332 401 m 518 -94 q 612 -131 575 -94 q 649 -226 649 -168 q 612 -321 649 -283 q 518 -358 575 -358 q 424 -321 461 -358 q 388 -226 388 -283 q 424 -131 388 -168 q 518 -94 461 -94 z "},"Ù":{"ha":1040,"x_min":78,"x_max":961,"o":"m 332 401 q 386 254 332 310 q 524 199 440 199 q 656 253 606 199 q 707 401 707 308 l 707 974 l 961 974 l 961 401 q 908 180 961 275 q 755 33 854 85 q 522 -18 656 -18 q 288 33 389 -18 q 133 180 188 85 q 78 401 78 275 l 78 974 l 332 974 l 332 401 m 488 1281 l 635 1057 l 464 1043 l 282 1203 l 488 1281 z "},"Ủ":{"ha":1040,"x_min":78,"x_max":961,"o":"m 332 401 q 386 254 332 310 q 524 199 440 199 q 656 253 606 199 q 707 401 707 308 l 707 974 l 961 974 l 961 401 q 908 180 961 275 q 755 33 854 85 q 522 -18 656 -18 q 288 33 389 -18 q 133 180 188 85 q 78 401 78 275 l 78 974 l 332 974 l 332 401 m 529 1354 q 643 1319 601 1354 q 685 1224 685 1283 q 653 1125 685 1175 q 565 1031 622 1075 l 456 1076 q 501 1130 485 1101 q 517 1182 517 1158 q 506 1209 517 1199 q 478 1219 494 1219 q 426 1200 450 1219 l 363 1301 q 529 1354 443 1354 z "},"Ư":{"ha":1107,"x_min":78,"x_max":1135,"o":"m 1104 1181 q 1135 1044 1135 1107 q 1090 921 1135 969 q 961 853 1046 872 l 961 401 q 908 180 961 275 q 755 33 854 85 q 522 -18 656 -18 q 288 33 389 -18 q 133 180 188 85 q 78 401 78 275 l 78 974 l 332 974 l 332 401 q 386 254 332 310 q 524 199 440 199 q 656 253 606 199 q 707 401 707 308 l 707 974 l 872 974 q 933 993 913 974 q 953 1044 953 1013 q 931 1115 953 1079 l 1104 1181 z "},"Ứ":{"ha":1107,"x_min":78,"x_max":1135,"o":"m 1104 1181 q 1135 1044 1135 1107 q 1090 921 1135 969 q 961 853 1046 872 l 961 401 q 908 180 961 275 q 755 33 854 85 q 522 -18 656 -18 q 288 33 389 -18 q 133 180 188 85 q 78 401 78 275 l 78 974 l 332 974 l 332 401 q 386 254 332 310 q 524 199 440 199 q 656 253 606 199 q 707 401 707 308 l 707 974 l 872 974 q 933 993 913 974 q 953 1044 953 1013 q 931 1115 953 1079 l 1104 1181 m 563 1281 l 767 1203 l 565 1043 l 396 1057 l 563 1281 z "},"Ự":{"ha":1106,"x_min":78,"x_max":1135,"o":"m 1104 1181 q 1135 1044 1135 1107 q 1090 921 1135 969 q 961 853 1046 872 l 961 401 q 908 180 961 275 q 755 33 854 85 q 522 -18 656 -18 q 288 33 389 -18 q 133 180 188 85 q 78 401 78 275 l 78 974 l 332 974 l 332 401 q 386 254 332 310 q 524 199 440 199 q 656 253 606 199 q 707 401 707 308 l 707 974 l 872 974 q 933 993 913 974 q 953 1044 953 1013 q 931 1115 953 1079 l 1104 1181 m 518 -94 q 612 -131 575 -94 q 649 -226 649 -168 q 612 -321 649 -283 q 518 -358 575 -358 q 424 -321 461 -358 q 388 -226 388 -283 q 424 -131 388 -168 q 518 -94 461 -94 z "},"Ừ":{"ha":1107,"x_min":78,"x_max":1135,"o":"m 1104 1181 q 1135 1044 1135 1107 q 1090 921 1135 969 q 961 853 1046 872 l 961 401 q 908 180 961 275 q 755 33 854 85 q 522 -18 656 -18 q 288 33 389 -18 q 133 180 188 85 q 78 401 78 275 l 78 974 l 332 974 l 332 401 q 386 254 332 310 q 524 199 440 199 q 656 253 606 199 q 707 401 707 308 l 707 974 l 872 974 q 933 993 913 974 q 953 1044 953 1013 q 931 1115 953 1079 l 1104 1181 m 488 1281 l 635 1057 l 464 1043 l 282 1203 l 488 1281 z "},"Ử":{"ha":1107,"x_min":78,"x_max":1135,"o":"m 1104 1181 q 1135 1044 1135 1107 q 1090 921 1135 969 q 961 853 1046 872 l 961 401 q 908 180 961 275 q 755 33 854 85 q 522 -18 656 -18 q 288 33 389 -18 q 133 180 188 85 q 78 401 78 275 l 78 974 l 332 974 l 332 401 q 386 254 332 310 q 524 199 440 199 q 656 253 606 199 q 707 401 707 308 l 707 974 l 872 974 q 933 993 913 974 q 953 1044 953 1013 q 931 1115 953 1079 l 1104 1181 m 529 1354 q 643 1319 601 1354 q 685 1224 685 1283 q 653 1125 685 1175 q 565 1031 622 1075 l 456 1076 q 501 1130 485 1101 q 517 1182 517 1158 q 506 1209 517 1199 q 478 1219 494 1219 q 426 1200 450 1219 l 363 1301 q 529 1354 443 1354 z "},"Ữ":{"ha":1107,"x_min":78,"x_max":1135,"o":"m 1104 1181 q 1135 1044 1135 1107 q 1090 921 1135 969 q 961 853 1046 872 l 961 401 q 908 180 961 275 q 755 33 854 85 q 522 -18 656 -18 q 288 33 389 -18 q 133 180 188 85 q 78 401 78 275 l 78 974 l 332 974 l 332 401 q 386 254 332 310 q 524 199 440 199 q 656 253 606 199 q 707 401 707 308 l 707 974 l 872 974 q 933 993 913 974 q 953 1044 953 1013 q 931 1115 953 1079 l 1104 1181 m 776 1267 q 744 1103 776 1158 q 642 1047 713 1047 q 581 1058 608 1047 q 515 1088 553 1068 q 457 1110 476 1110 q 418 1051 418 1110 l 278 1051 q 310 1216 278 1160 q 414 1272 342 1272 q 475 1261 446 1272 q 539 1232 504 1250 q 597 1210 581 1210 q 638 1267 638 1210 l 776 1267 z "},"Ű":{"ha":1040,"x_min":78,"x_max":961,"o":"m 332 401 q 386 254 332 310 q 524 199 440 199 q 656 253 606 199 q 707 401 707 308 l 707 974 l 961 974 l 961 401 q 908 180 961 275 q 755 33 854 85 q 522 -18 656 -18 q 288 33 389 -18 q 133 180 188 85 q 78 401 78 275 l 78 974 l 332 974 l 332 401 m 388 1285 l 575 1215 l 450 1043 l 276 1056 l 388 1285 m 661 1285 l 849 1215 l 724 1043 l 550 1056 l 661 1285 z "},"Ȗ":{"ha":1040,"x_min":78,"x_max":961,"o":"m 332 401 q 386 254 332 310 q 524 199 440 199 q 656 253 606 199 q 707 401 707 308 l 707 974 l 961 974 l 961 401 q 908 180 961 275 q 755 33 854 85 q 522 -18 656 -18 q 288 33 389 -18 q 133 180 188 85 q 78 401 78 275 l 78 974 l 332 974 l 332 401 m 290 1051 q 358 1214 294 1153 q 521 1275 421 1275 q 683 1214 619 1275 q 750 1051 746 1153 l 597 1051 q 573 1109 594 1088 q 521 1131 551 1131 q 468 1109 489 1131 q 444 1051 447 1088 l 290 1051 z "},"Ū":{"ha":1040,"x_min":78,"x_max":961,"o":"m 332 401 q 386 254 332 310 q 524 199 440 199 q 656 253 606 199 q 707 401 707 308 l 707 974 l 961 974 l 961 401 q 908 180 961 275 q 755 33 854 85 q 522 -18 656 -18 q 288 33 389 -18 q 133 180 188 85 q 78 401 78 275 l 78 974 l 332 974 l 332 401 m 279 1200 l 763 1200 l 763 1054 l 279 1054 l 279 1200 z "},"Ṻ":{"ha":1040,"x_min":78,"x_max":961,"o":"m 332 401 q 386 254 332 310 q 524 199 440 199 q 656 253 606 199 q 707 401 707 308 l 707 974 l 961 974 l 961 401 q 908 180 961 275 q 755 33 854 85 q 522 -18 656 -18 q 288 33 389 -18 q 133 180 188 85 q 78 401 78 275 l 78 974 l 332 974 l 332 401 z "},"Ų":{"ha":1040,"x_min":78,"x_max":961,"o":"m 961 974 l 961 401 q 922 208 961 293 q 810 68 883 122 q 731 -34 761 21 q 701 -129 701 -89 q 732 -172 701 -172 q 772 -161 753 -172 l 813 -293 q 681 -324 742 -324 q 566 -285 610 -324 q 522 -174 522 -247 q 588 -15 522 -90 q 522 -18 546 -18 q 288 33 389 -18 q 133 180 188 85 q 78 401 78 275 l 78 974 l 332 974 l 332 401 q 386 254 332 310 q 524 199 440 199 q 656 253 606 199 q 707 401 707 308 l 707 974 l 961 974 z "},"Ů":{"ha":1040,"x_min":78,"x_max":961,"o":"m 332 401 q 386 254 332 310 q 524 199 440 199 q 656 253 606 199 q 707 401 707 308 l 707 974 l 961 974 l 961 401 q 908 180 961 275 q 755 33 854 85 q 522 -18 656 -18 q 288 33 389 -18 q 133 180 188 85 q 78 401 78 275 l 78 974 l 332 974 l 332 401 m 521 1354 q 637 1306 589 1354 q 685 1190 685 1258 q 637 1074 685 1122 q 521 1026 589 1026 q 405 1074 453 1026 q 357 1190 357 1122 q 405 1306 357 1258 q 521 1354 453 1354 m 521 1251 q 476 1233 494 1251 q 458 1190 458 1215 q 476 1148 458 1165 q 521 1131 494 1131 q 565 1148 547 1131 q 583 1190 583 1165 q 565 1233 583 1215 q 521 1251 547 1251 z "},"Ũ":{"ha":1040,"x_min":78,"x_max":961,"o":"m 332 401 q 386 254 332 310 q 524 199 440 199 q 656 253 606 199 q 707 401 707 308 l 707 974 l 961 974 l 961 401 q 908 180 961 275 q 755 33 854 85 q 522 -18 656 -18 q 288 33 389 -18 q 133 180 188 85 q 78 401 78 275 l 78 974 l 332 974 l 332 401 m 776 1267 q 744 1103 776 1158 q 642 1047 713 1047 q 581 1058 608 1047 q 515 1088 553 1068 q 457 1110 476 1110 q 418 1051 418 1110 l 278 1051 q 310 1216 278 1160 q 414 1272 342 1272 q 475 1261 446 1272 q 539 1232 504 1250 q 597 1210 581 1210 q 638 1267 638 1210 l 776 1267 z "},"Ṹ":{"ha":1040,"x_min":78,"x_max":961,"o":"m 332 401 q 386 254 332 310 q 524 199 440 199 q 656 253 606 199 q 707 401 707 308 l 707 974 l 961 974 l 961 401 q 908 180 961 275 q 755 33 854 85 q 522 -18 656 -18 q 288 33 389 -18 q 133 180 188 85 q 78 401 78 275 l 78 974 l 332 974 l 332 401 m 768 1235 q 736 1095 768 1142 q 635 1049 704 1049 q 569 1058 600 1049 q 500 1085 538 1068 q 432 1107 453 1107 q 399 1093 408 1107 q 390 1051 390 1079 l 272 1051 q 303 1191 272 1143 q 406 1239 335 1239 q 473 1229 440 1239 q 543 1203 506 1219 q 569 1192 547 1201 q 608 1182 592 1182 q 640 1195 631 1182 q 651 1235 650 1208 l 768 1235 m 582 1511 l 750 1410 l 531 1292 l 383 1331 l 582 1511 z "},"V":{"ha":1017,"x_min":-3,"x_max":1019,"o":"m -3 974 l 271 974 l 514 269 l 758 974 l 1019 974 l 639 0 l 375 0 l -3 974 z "},"W":{"ha":1546,"x_min":-3,"x_max":1549,"o":"m 1288 974 l 1549 974 l 1219 0 l 958 0 l 774 663 l 586 0 l 325 0 l -3 974 l 271 974 l 463 263 l 654 974 l 903 974 l 1097 263 l 1288 974 z "},"Ẃ":{"ha":1546,"x_min":-3,"x_max":1549,"o":"m 1288 974 l 1549 974 l 1219 0 l 958 0 l 774 663 l 586 0 l 325 0 l -3 974 l 271 974 l 463 263 l 654 974 l 903 974 l 1097 263 l 1288 974 m 815 1281 l 1019 1203 l 818 1043 l 649 1057 l 815 1281 z "},"Ŵ":{"ha":1546,"x_min":-3,"x_max":1549,"o":"m 1288 974 l 1549 974 l 1219 0 l 958 0 l 774 663 l 586 0 l 325 0 l -3 974 l 271 974 l 463 263 l 654 974 l 903 974 l 1097 263 l 1288 974 m 1035 1051 l 857 1051 l 775 1144 l 692 1051 l 514 1051 l 665 1264 l 883 1264 l 1035 1051 z "},"Ẅ":{"ha":1546,"x_min":-3,"x_max":1549,"o":"m 1288 974 l 1549 974 l 1219 0 l 958 0 l 774 663 l 586 0 l 325 0 l -3 974 l 271 974 l 463 263 l 654 974 l 903 974 l 1097 263 l 1288 974 m 642 1263 q 717 1233 688 1263 q 747 1156 747 1203 q 717 1079 747 1110 q 642 1049 688 1049 q 565 1079 594 1049 q 535 1156 535 1110 q 565 1233 535 1203 q 642 1263 594 1263 m 908 1263 q 984 1233 954 1263 q 1014 1156 1014 1203 q 984 1079 1014 1110 q 908 1049 954 1049 q 831 1079 861 1049 q 801 1156 801 1110 q 831 1233 801 1203 q 908 1263 861 1263 z "},"Ẁ":{"ha":1546,"x_min":-3,"x_max":1549,"o":"m 1288 974 l 1549 974 l 1219 0 l 958 0 l 774 663 l 586 0 l 325 0 l -3 974 l 271 974 l 463 263 l 654 974 l 903 974 l 1097 263 l 1288 974 m 740 1281 l 888 1057 l 717 1043 l 535 1203 l 740 1281 z "},"X":{"ha":1025,"x_min":6,"x_max":1017,"o":"m 28 974 l 324 974 l 506 697 l 689 974 l 989 974 l 668 508 l 1017 0 l 713 0 l 506 301 l 303 0 l 6 0 l 351 496 l 28 974 z "},"Y":{"ha":950,"x_min":-7,"x_max":957,"o":"m 957 974 l 606 311 l 606 0 l 351 0 l 351 304 l -7 974 l 247 974 l 478 556 l 703 974 l 957 974 z "},"Ý":{"ha":950,"x_min":-7,"x_max":957,"o":"m 957 974 l 606 311 l 606 0 l 351 0 l 351 304 l -7 974 l 247 974 l 478 556 l 703 974 l 957 974 m 517 1281 l 721 1203 l 519 1043 l 350 1057 l 517 1281 z "},"Ŷ":{"ha":950,"x_min":-7,"x_max":957,"o":"m 957 974 l 606 311 l 606 0 l 351 0 l 351 304 l -7 974 l 247 974 l 478 556 l 703 974 l 957 974 m 736 1051 l 558 1051 l 476 1144 l 393 1051 l 215 1051 l 367 1264 l 585 1264 l 736 1051 z "},"Ÿ":{"ha":950,"x_min":-7,"x_max":957,"o":"m 957 974 l 606 311 l 606 0 l 351 0 l 351 304 l -7 974 l 247 974 l 478 556 l 703 974 l 957 974 m 343 1263 q 419 1233 389 1263 q 449 1156 449 1203 q 419 1079 449 1110 q 343 1049 389 1049 q 266 1079 296 1049 q 236 1156 236 1110 q 266 1233 236 1203 q 343 1263 296 1263 m 610 1263 q 685 1233 656 1263 q 715 1156 715 1203 q 685 1079 715 1110 q 610 1049 656 1049 q 533 1079 563 1049 q 503 1156 503 1110 q 533 1233 503 1203 q 610 1263 563 1263 z "},"Ẏ":{"ha":950,"x_min":-7,"x_max":957,"o":"m 957 974 l 606 311 l 606 0 l 351 0 l 351 304 l -7 974 l 247 974 l 478 556 l 703 974 l 957 974 m 475 1313 q 568 1276 532 1313 q 604 1181 604 1239 q 567 1086 604 1124 q 475 1049 531 1049 q 381 1086 418 1049 q 344 1181 344 1124 q 381 1276 344 1239 q 475 1313 418 1313 z "},"Ỵ":{"ha":950,"x_min":-7,"x_max":957,"o":"m 957 974 l 606 311 l 606 0 l 351 0 l 351 304 l -7 974 l 247 974 l 478 556 l 703 974 l 957 974 m 475 -94 q 569 -131 532 -94 q 606 -226 606 -168 q 569 -321 606 -283 q 475 -358 532 -358 q 381 -321 418 -358 q 344 -226 344 -283 q 381 -131 344 -168 q 475 -94 418 -94 z "},"Ỳ":{"ha":950,"x_min":-7,"x_max":957,"o":"m 957 974 l 606 311 l 606 0 l 351 0 l 351 304 l -7 974 l 247 974 l 478 556 l 703 974 l 957 974 m 442 1281 l 589 1057 l 418 1043 l 236 1203 l 442 1281 z "},"Ỷ":{"ha":950,"x_min":-7,"x_max":957,"o":"m 957 974 l 606 311 l 606 0 l 351 0 l 351 304 l -7 974 l 247 974 l 478 556 l 703 974 l 957 974 m 483 1354 q 597 1319 556 1354 q 639 1224 639 1283 q 608 1125 639 1175 q 519 1031 576 1075 l 410 1076 q 455 1130 439 1101 q 471 1182 471 1158 q 460 1209 471 1199 q 432 1219 449 1219 q 381 1200 404 1219 l 317 1301 q 483 1354 397 1354 z "},"Ȳ":{"ha":950,"x_min":-7,"x_max":957,"o":"m 957 974 l 606 311 l 606 0 l 351 0 l 351 304 l -7 974 l 247 974 l 478 556 l 703 974 l 957 974 m 233 1200 l 717 1200 l 717 1054 l 233 1054 l 233 1200 z "},"Ỹ":{"ha":950,"x_min":-7,"x_max":957,"o":"m 957 974 l 606 311 l 606 0 l 351 0 l 351 304 l -7 974 l 247 974 l 478 556 l 703 974 l 957 974 m 731 1267 q 699 1103 731 1158 q 596 1047 667 1047 q 535 1058 563 1047 q 469 1088 507 1068 q 411 1110 431 1110 q 372 1051 372 1110 l 232 1051 q 264 1216 232 1160 q 368 1272 296 1272 q 429 1261 400 1272 q 493 1232 458 1250 q 551 1210 535 1210 q 592 1267 592 1210 l 731 1267 z "},"Z":{"ha":939,"x_min":38,"x_max":900,"o":"m 56 974 l 892 974 l 892 807 l 378 204 l 900 204 l 900 0 l 38 0 l 38 165 l 551 769 l 56 769 l 56 974 z "},"Ź":{"ha":939,"x_min":38,"x_max":900,"o":"m 56 974 l 892 974 l 892 807 l 378 204 l 900 204 l 900 0 l 38 0 l 38 165 l 551 769 l 56 769 l 56 974 m 515 1281 l 719 1203 l 518 1043 l 349 1057 l 515 1281 z "},"Ž":{"ha":939,"x_min":38,"x_max":900,"o":"m 56 974 l 892 974 l 892 807 l 378 204 l 900 204 l 900 0 l 38 0 l 38 165 l 551 769 l 56 769 l 56 974 m 539 1264 l 717 1264 l 565 1051 l 347 1051 l 196 1264 l 374 1264 l 456 1171 l 539 1264 z "},"Ż":{"ha":939,"x_min":38,"x_max":900,"o":"m 56 974 l 892 974 l 892 807 l 378 204 l 900 204 l 900 0 l 38 0 l 38 165 l 551 769 l 56 769 l 56 974 m 474 1313 q 567 1276 531 1313 q 603 1181 603 1239 q 566 1086 603 1124 q 474 1049 529 1049 q 380 1086 417 1049 q 343 1181 343 1124 q 380 1276 343 1239 q 474 1313 417 1313 z "},"Ẓ":{"ha":939,"x_min":38,"x_max":900,"o":"m 56 974 l 892 974 l 892 807 l 378 204 l 900 204 l 900 0 l 38 0 l 38 165 l 551 769 l 56 769 l 56 974 m 467 -94 q 560 -131 524 -94 q 597 -226 597 -168 q 560 -321 597 -283 q 467 -358 524 -358 q 373 -321 410 -358 q 336 -226 336 -283 q 373 -131 336 -168 q 467 -94 410 -94 z "},"a":{"ha":835,"x_min":36,"x_max":763,"o":"m 433 761 q 675 690 589 761 q 763 489 761 618 l 763 0 l 519 0 l 519 85 q 293 -11 444 -11 q 105 53 174 -11 q 36 224 36 118 q 110 390 36 331 q 324 451 185 450 l 519 451 l 519 460 q 483 543 519 514 q 376 572 446 572 q 270 557 329 572 q 151 513 211 542 l 83 679 q 259 741 175 721 q 433 761 343 761 m 369 157 q 467 184 425 157 q 519 254 508 211 l 519 319 l 372 319 q 268 242 268 319 q 295 180 268 203 q 369 157 322 157 z "},"á":{"ha":835,"x_min":36,"x_max":763,"o":"m 433 761 q 675 690 589 761 q 763 489 761 618 l 763 0 l 519 0 l 519 85 q 293 -11 444 -11 q 105 53 174 -11 q 36 224 36 118 q 110 390 36 331 q 324 451 185 450 l 519 451 l 519 460 q 483 543 519 514 q 376 572 446 572 q 270 557 329 572 q 151 513 211 542 l 83 679 q 259 741 175 721 q 433 761 343 761 m 369 157 q 467 184 425 157 q 519 254 508 211 l 519 319 l 372 319 q 268 242 268 319 q 295 180 268 203 q 369 157 322 157 m 458 1069 l 663 992 l 461 832 l 292 846 l 458 1069 z "},"ă":{"ha":835,"x_min":36,"x_max":763,"o":"m 433 761 q 675 690 589 761 q 763 489 761 618 l 763 0 l 519 0 l 519 85 q 293 -11 444 -11 q 105 53 174 -11 q 36 224 36 118 q 110 390 36 331 q 324 451 185 450 l 519 451 l 519 460 q 483 543 519 514 q 376 572 446 572 q 270 557 329 572 q 151 513 211 542 l 83 679 q 259 741 175 721 q 433 761 343 761 m 369 157 q 467 184 425 157 q 519 254 508 211 l 519 319 l 372 319 q 268 242 268 319 q 295 180 268 203 q 369 157 322 157 m 340 1057 q 364 999 343 1021 q 417 978 385 978 q 469 999 447 978 q 493 1057 490 1021 l 646 1057 q 579 894 642 956 q 417 833 517 833 q 253 894 317 833 q 186 1057 190 956 l 340 1057 z "},"ắ":{"ha":835,"x_min":36,"x_max":763,"o":"m 433 761 q 675 690 589 761 q 763 489 761 618 l 763 0 l 519 0 l 519 85 q 293 -11 444 -11 q 105 53 174 -11 q 36 224 36 118 q 110 390 36 331 q 324 451 185 450 l 519 451 l 519 460 q 483 543 519 514 q 376 572 446 572 q 270 557 329 572 q 151 513 211 542 l 83 679 q 259 741 175 721 q 433 761 343 761 m 369 157 q 467 184 425 157 q 519 254 508 211 l 519 319 l 372 319 q 268 242 268 319 q 295 180 268 203 q 369 157 322 157 m 332 1035 q 358 988 335 1006 q 417 969 382 969 q 475 988 451 969 q 501 1035 499 1006 l 649 1035 q 581 889 644 943 q 417 835 517 835 q 253 889 317 835 q 185 1035 189 943 l 332 1035 m 478 1268 l 646 1167 l 426 1049 l 279 1088 l 478 1268 z "},"ặ":{"ha":835,"x_min":36,"x_max":763,"o":"m 433 761 q 675 690 589 761 q 763 489 761 618 l 763 0 l 519 0 l 519 85 q 293 -11 444 -11 q 105 53 174 -11 q 36 224 36 118 q 110 390 36 331 q 324 451 185 450 l 519 451 l 519 460 q 483 543 519 514 q 376 572 446 572 q 270 557 329 572 q 151 513 211 542 l 83 679 q 259 741 175 721 q 433 761 343 761 m 369 157 q 467 184 425 157 q 519 254 508 211 l 519 319 l 372 319 q 268 242 268 319 q 295 180 268 203 q 369 157 322 157 m 393 -94 q 487 -131 450 -94 q 524 -226 524 -168 q 487 -321 524 -283 q 393 -358 450 -358 q 299 -321 336 -358 q 263 -226 263 -283 q 299 -131 263 -168 q 393 -94 336 -94 m 319 1057 q 343 999 322 1021 q 396 978 364 978 q 448 999 426 978 q 472 1057 469 1021 l 625 1057 q 558 894 621 956 q 396 833 496 833 q 233 894 296 833 q 165 1057 169 956 l 319 1057 z "},"ằ":{"ha":835,"x_min":36,"x_max":763,"o":"m 433 761 q 675 690 589 761 q 763 489 761 618 l 763 0 l 519 0 l 519 85 q 293 -11 444 -11 q 105 53 174 -11 q 36 224 36 118 q 110 390 36 331 q 324 451 185 450 l 519 451 l 519 460 q 483 543 519 514 q 376 572 446 572 q 270 557 329 572 q 151 513 211 542 l 83 679 q 259 741 175 721 q 433 761 343 761 m 369 157 q 467 184 425 157 q 519 254 508 211 l 519 319 l 372 319 q 268 242 268 319 q 295 180 268 203 q 369 157 322 157 m 332 1035 q 358 988 335 1006 q 417 969 382 969 q 475 988 451 969 q 501 1035 499 1006 l 649 1035 q 581 889 644 943 q 417 835 517 835 q 253 889 317 835 q 185 1035 189 943 l 332 1035 m 342 1268 l 539 1088 l 393 1049 l 174 1167 l 342 1268 z "},"ẳ":{"ha":835,"x_min":36,"x_max":763,"o":"m 433 761 q 675 690 589 761 q 763 489 761 618 l 763 0 l 519 0 l 519 85 q 293 -11 444 -11 q 105 53 174 -11 q 36 224 36 118 q 110 390 36 331 q 324 451 185 450 l 519 451 l 519 460 q 483 543 519 514 q 376 572 446 572 q 270 557 329 572 q 151 513 211 542 l 83 679 q 259 741 175 721 q 433 761 343 761 m 369 157 q 467 184 425 157 q 519 254 508 211 l 519 319 l 372 319 q 268 242 268 319 q 295 180 268 203 q 369 157 322 157 m 332 1035 q 358 988 335 1006 q 417 969 382 969 q 475 988 451 969 q 501 1035 499 1006 l 649 1035 q 581 889 644 943 q 417 835 517 835 q 253 889 317 835 q 185 1035 189 943 l 332 1035 m 413 1289 q 510 1260 476 1289 q 544 1189 544 1231 q 519 1116 544 1150 q 442 1046 493 1082 l 342 1085 q 393 1147 393 1121 q 385 1165 393 1158 q 363 1171 376 1171 q 321 1157 336 1171 l 261 1243 q 413 1289 338 1289 z "},"ẵ":{"ha":835,"x_min":36,"x_max":763,"o":"m 433 761 q 675 690 589 761 q 763 489 761 618 l 763 0 l 519 0 l 519 85 q 293 -11 444 -11 q 105 53 174 -11 q 36 224 36 118 q 110 390 36 331 q 324 451 185 450 l 519 451 l 519 460 q 483 543 519 514 q 376 572 446 572 q 270 557 329 572 q 151 513 211 542 l 83 679 q 259 741 175 721 q 433 761 343 761 m 369 157 q 467 184 425 157 q 519 254 508 211 l 519 319 l 372 319 q 268 242 268 319 q 295 180 268 203 q 369 157 322 157 m 325 1035 q 351 988 328 1006 q 410 969 375 969 q 468 988 444 969 q 494 1035 492 1006 l 642 1035 q 574 889 638 943 q 410 835 510 835 q 246 889 310 835 q 178 1035 182 943 l 325 1035 m 664 1276 q 632 1137 664 1183 q 531 1090 600 1090 q 465 1100 496 1090 q 396 1126 433 1110 q 328 1149 349 1149 q 295 1135 304 1149 q 286 1093 286 1121 l 168 1093 q 199 1233 168 1185 q 301 1281 231 1281 q 369 1271 336 1281 q 439 1244 401 1261 q 465 1233 443 1243 q 504 1224 488 1224 q 536 1237 526 1224 q 547 1276 546 1250 l 664 1276 z "},"â":{"ha":835,"x_min":36,"x_max":763,"o":"m 433 761 q 675 690 589 761 q 763 489 761 618 l 763 0 l 519 0 l 519 85 q 293 -11 444 -11 q 105 53 174 -11 q 36 224 36 118 q 110 390 36 331 q 324 451 185 450 l 519 451 l 519 460 q 483 543 519 514 q 376 572 446 572 q 270 557 329 572 q 151 513 211 542 l 83 679 q 259 741 175 721 q 433 761 343 761 m 369 157 q 467 184 425 157 q 519 254 508 211 l 519 319 l 372 319 q 268 242 268 319 q 295 180 268 203 q 369 157 322 157 m 676 847 l 499 847 l 417 940 l 333 847 l 156 847 l 307 1060 l 525 1060 l 676 847 z "},"ấ":{"ha":835,"x_min":36,"x_max":763,"o":"m 433 761 q 675 690 589 761 q 763 489 761 618 l 763 0 l 519 0 l 519 85 q 293 -11 444 -11 q 105 53 174 -11 q 36 224 36 118 q 110 390 36 331 q 324 451 185 450 l 519 451 l 519 460 q 483 543 519 514 q 376 572 446 572 q 270 557 329 572 q 151 513 211 542 l 83 679 q 259 741 175 721 q 433 761 343 761 m 369 157 q 467 184 425 157 q 519 254 508 211 l 519 319 l 372 319 q 268 242 268 319 q 295 180 268 203 q 369 157 322 157 m 704 835 l 504 835 l 417 921 l 325 835 l 128 835 l 288 1006 l 543 1006 l 704 835 m 476 1268 l 644 1167 l 425 1049 l 278 1088 l 476 1268 z "},"ậ":{"ha":835,"x_min":36,"x_max":763,"o":"m 433 761 q 675 690 589 761 q 763 489 761 618 l 763 0 l 519 0 l 519 85 q 293 -11 444 -11 q 105 53 174 -11 q 36 224 36 118 q 110 390 36 331 q 324 451 185 450 l 519 451 l 519 460 q 483 543 519 514 q 376 572 446 572 q 270 557 329 572 q 151 513 211 542 l 83 679 q 259 741 175 721 q 433 761 343 761 m 369 157 q 467 184 425 157 q 519 254 508 211 l 519 319 l 372 319 q 268 242 268 319 q 295 180 268 203 q 369 157 322 157 m 393 -94 q 487 -131 450 -94 q 524 -226 524 -168 q 487 -321 524 -283 q 393 -358 450 -358 q 299 -321 336 -358 q 263 -226 263 -283 q 299 -131 263 -168 q 393 -94 336 -94 m 656 847 l 478 847 l 396 940 l 313 847 l 135 847 l 286 1060 l 504 1060 l 656 847 z "},"ầ":{"ha":835,"x_min":36,"x_max":763,"o":"m 433 761 q 675 690 589 761 q 763 489 761 618 l 763 0 l 519 0 l 519 85 q 293 -11 444 -11 q 105 53 174 -11 q 36 224 36 118 q 110 390 36 331 q 324 451 185 450 l 519 451 l 519 460 q 483 543 519 514 q 376 572 446 572 q 270 557 329 572 q 151 513 211 542 l 83 679 q 259 741 175 721 q 433 761 343 761 m 369 157 q 467 184 425 157 q 519 254 508 211 l 519 319 l 372 319 q 268 242 268 319 q 295 180 268 203 q 369 157 322 157 m 704 835 l 504 835 l 417 921 l 325 835 l 128 835 l 288 1006 l 543 1006 l 704 835 m 340 1268 l 538 1088 l 392 1049 l 172 1167 l 340 1268 z "},"ẩ":{"ha":835,"x_min":36,"x_max":763,"o":"m 433 761 q 675 690 589 761 q 763 489 761 618 l 763 0 l 519 0 l 519 85 q 293 -11 444 -11 q 105 53 174 -11 q 36 224 36 118 q 110 390 36 331 q 324 451 185 450 l 519 451 l 519 460 q 483 543 519 514 q 376 572 446 572 q 270 557 329 572 q 151 513 211 542 l 83 679 q 259 741 175 721 q 433 761 343 761 m 369 157 q 467 184 425 157 q 519 254 508 211 l 519 319 l 372 319 q 268 242 268 319 q 295 180 268 203 q 369 157 322 157 m 704 835 l 504 835 l 417 921 l 325 835 l 128 835 l 288 1006 l 543 1006 l 704 835 m 413 1289 q 510 1260 476 1289 q 544 1189 544 1231 q 519 1116 544 1150 q 442 1046 493 1082 l 342 1085 q 393 1147 393 1121 q 385 1165 393 1158 q 363 1171 376 1171 q 321 1157 336 1171 l 261 1243 q 413 1289 338 1289 z "},"ẫ":{"ha":835,"x_min":36,"x_max":763,"o":"m 433 761 q 675 690 589 761 q 763 489 761 618 l 763 0 l 519 0 l 519 85 q 293 -11 444 -11 q 105 53 174 -11 q 36 224 36 118 q 110 390 36 331 q 324 451 185 450 l 519 451 l 519 460 q 483 543 519 514 q 376 572 446 572 q 270 557 329 572 q 151 513 211 542 l 83 679 q 259 741 175 721 q 433 761 343 761 m 369 157 q 467 184 425 157 q 519 254 508 211 l 519 319 l 372 319 q 268 242 268 319 q 295 180 268 203 q 369 157 322 157 m 704 835 l 504 835 l 417 921 l 325 835 l 128 835 l 288 1006 l 543 1006 l 704 835 m 663 1238 q 631 1098 663 1144 q 529 1051 599 1051 q 463 1061 494 1051 q 394 1088 432 1071 q 326 1110 347 1110 q 294 1096 303 1110 q 285 1054 285 1082 l 167 1054 q 198 1194 167 1146 q 300 1242 229 1242 q 367 1232 335 1242 q 438 1206 400 1222 q 464 1194 442 1204 q 503 1185 486 1185 q 535 1198 525 1185 q 546 1238 544 1211 l 663 1238 z "},"ȁ":{"ha":835,"x_min":36,"x_max":763,"o":"m 433 761 q 675 690 589 761 q 763 489 761 618 l 763 0 l 519 0 l 519 85 q 293 -11 444 -11 q 105 53 174 -11 q 36 224 36 118 q 110 390 36 331 q 324 451 185 450 l 519 451 l 519 460 q 483 543 519 514 q 376 572 446 572 q 270 557 329 572 q 151 513 211 542 l 83 679 q 259 741 175 721 q 433 761 343 761 m 369 157 q 467 184 425 157 q 519 254 508 211 l 519 319 l 372 319 q 268 242 268 319 q 295 180 268 203 q 369 157 322 157 m 278 1074 l 389 844 l 215 832 l 90 1004 l 278 1074 m 551 1074 l 663 844 l 489 832 l 364 1004 l 551 1074 z "},"ä":{"ha":835,"x_min":36,"x_max":763,"o":"m 433 761 q 675 690 589 761 q 763 489 761 618 l 763 0 l 519 0 l 519 85 q 293 -11 444 -11 q 105 53 174 -11 q 36 224 36 118 q 110 390 36 331 q 324 451 185 450 l 519 451 l 519 460 q 483 543 519 514 q 376 572 446 572 q 270 557 329 572 q 151 513 211 542 l 83 679 q 259 741 175 721 q 433 761 343 761 m 369 157 q 467 184 425 157 q 519 254 508 211 l 519 319 l 372 319 q 268 242 268 319 q 295 180 268 203 q 369 157 322 157 m 283 1064 q 359 1033 329 1064 q 389 956 389 1003 q 359 880 389 910 q 283 850 329 850 q 208 880 238 850 q 178 956 178 910 q 208 1033 178 1003 q 283 1064 238 1064 m 550 1064 q 626 1033 596 1064 q 656 956 656 1003 q 626 880 656 910 q 550 850 596 850 q 474 880 503 850 q 444 956 444 910 q 474 1034 444 1004 q 550 1064 503 1064 z "},"ạ":{"ha":835,"x_min":36,"x_max":763,"o":"m 433 761 q 675 690 589 761 q 763 489 761 618 l 763 0 l 519 0 l 519 85 q 293 -11 444 -11 q 105 53 174 -11 q 36 224 36 118 q 110 390 36 331 q 324 451 185 450 l 519 451 l 519 460 q 483 543 519 514 q 376 572 446 572 q 270 557 329 572 q 151 513 211 542 l 83 679 q 259 741 175 721 q 433 761 343 761 m 369 157 q 467 184 425 157 q 519 254 508 211 l 519 319 l 372 319 q 268 242 268 319 q 295 180 268 203 q 369 157 322 157 m 393 -94 q 487 -131 450 -94 q 524 -226 524 -168 q 487 -321 524 -283 q 393 -358 450 -358 q 299 -321 336 -358 q 263 -226 263 -283 q 299 -131 263 -168 q 393 -94 336 -94 z "},"à":{"ha":835,"x_min":36,"x_max":763,"o":"m 433 761 q 675 690 589 761 q 763 489 761 618 l 763 0 l 519 0 l 519 85 q 293 -11 444 -11 q 105 53 174 -11 q 36 224 36 118 q 110 390 36 331 q 324 451 185 450 l 519 451 l 519 460 q 483 543 519 514 q 376 572 446 572 q 270 557 329 572 q 151 513 211 542 l 83 679 q 259 741 175 721 q 433 761 343 761 m 369 157 q 467 184 425 157 q 519 254 508 211 l 519 319 l 372 319 q 268 242 268 319 q 295 180 268 203 q 369 157 322 157 m 382 1069 l 529 846 l 358 832 l 176 992 l 382 1069 z "},"ả":{"ha":835,"x_min":36,"x_max":763,"o":"m 433 761 q 675 690 589 761 q 763 489 761 618 l 763 0 l 519 0 l 519 85 q 293 -11 444 -11 q 105 53 174 -11 q 36 224 36 118 q 110 390 36 331 q 324 451 185 450 l 519 451 l 519 460 q 483 543 519 514 q 376 572 446 572 q 270 557 329 572 q 151 513 211 542 l 83 679 q 259 741 175 721 q 433 761 343 761 m 369 157 q 467 184 425 157 q 519 254 508 211 l 519 319 l 372 319 q 268 242 268 319 q 295 180 268 203 q 369 157 322 157 m 425 1133 q 539 1098 497 1133 q 581 1003 581 1063 q 549 904 581 954 q 461 810 518 854 l 351 856 q 397 909 381 881 q 413 961 413 938 q 401 988 413 978 q 374 999 390 999 q 322 979 346 999 l 258 1081 q 425 1133 339 1133 z "},"ȃ":{"ha":835,"x_min":36,"x_max":763,"o":"m 433 761 q 675 690 589 761 q 763 489 761 618 l 763 0 l 519 0 l 519 85 q 293 -11 444 -11 q 105 53 174 -11 q 36 224 36 118 q 110 390 36 331 q 324 451 185 450 l 519 451 l 519 460 q 483 543 519 514 q 376 572 446 572 q 270 557 329 572 q 151 513 211 542 l 83 679 q 259 741 175 721 q 433 761 343 761 m 369 157 q 467 184 425 157 q 519 254 508 211 l 519 319 l 372 319 q 268 242 268 319 q 295 180 268 203 q 369 157 322 157 m 186 833 q 253 996 190 935 q 417 1057 317 1057 q 578 996 515 1057 q 646 833 642 935 l 493 833 q 469 891 490 869 q 417 913 447 913 q 364 891 385 913 q 340 833 343 869 l 186 833 z "},"ā":{"ha":835,"x_min":36,"x_max":763,"o":"m 433 761 q 675 690 589 761 q 763 489 761 618 l 763 0 l 519 0 l 519 85 q 293 -11 444 -11 q 105 53 174 -11 q 36 224 36 118 q 110 390 36 331 q 324 451 185 450 l 519 451 l 519 460 q 483 543 519 514 q 376 572 446 572 q 270 557 329 572 q 151 513 211 542 l 83 679 q 259 741 175 721 q 433 761 343 761 m 369 157 q 467 184 425 157 q 519 254 508 211 l 519 319 l 372 319 q 268 242 268 319 q 295 180 268 203 q 369 157 322 157 m 201 1033 l 631 1033 l 631 888 l 201 888 l 201 1033 z "},"ą":{"ha":835,"x_min":36,"x_max":763,"o":"m 717 0 q 636 -71 663 -39 q 610 -135 610 -103 q 618 -162 610 -153 q 642 -172 626 -172 q 681 -161 658 -172 l 721 -293 q 586 -324 653 -324 q 472 -283 513 -324 q 431 -176 431 -243 q 519 8 431 -76 l 519 85 q 293 -11 444 -11 q 105 53 174 -11 q 36 224 36 118 q 110 390 36 331 q 324 451 185 450 l 519 451 l 519 460 q 483 543 519 514 q 376 572 446 572 q 270 557 329 572 q 151 513 211 542 l 83 679 q 259 741 175 721 q 433 761 343 761 q 675 690 589 761 q 763 489 761 618 l 763 0 l 717 0 m 369 157 q 467 184 425 157 q 519 254 508 211 l 519 319 l 372 319 q 268 242 268 319 q 295 180 268 203 q 369 157 322 157 z "},"å":{"ha":835,"x_min":36,"x_max":763,"o":"m 433 761 q 675 690 589 761 q 763 489 761 618 l 763 0 l 519 0 l 519 85 q 293 -11 444 -11 q 105 53 174 -11 q 36 224 36 118 q 110 390 36 331 q 324 451 185 450 l 519 451 l 519 460 q 483 543 519 514 q 376 572 446 572 q 270 557 329 572 q 151 513 211 542 l 83 679 q 259 741 175 721 q 433 761 343 761 m 369 157 q 467 184 425 157 q 519 254 508 211 l 519 319 l 372 319 q 268 242 268 319 q 295 180 268 203 q 369 157 322 157 m 417 1132 q 533 1084 485 1132 q 581 968 581 1036 q 533 852 581 900 q 417 804 485 804 q 301 852 349 804 q 253 968 253 900 q 301 1084 253 1036 q 417 1132 349 1132 m 417 1029 q 372 1011 390 1029 q 354 968 354 993 q 372 926 354 943 q 417 908 390 908 q 461 926 443 908 q 479 968 479 943 q 461 1011 479 993 q 417 1029 443 1029 z "},"ǻ":{"ha":835,"x_min":36,"x_max":763,"o":"m 433 761 q 675 690 589 761 q 763 489 761 618 l 763 0 l 519 0 l 519 85 q 293 -11 444 -11 q 105 53 174 -11 q 36 224 36 118 q 110 390 36 331 q 324 451 185 450 l 519 451 l 519 460 q 483 543 519 514 q 376 572 446 572 q 270 557 329 572 q 151 513 211 542 l 83 679 q 259 741 175 721 q 433 761 343 761 m 369 157 q 467 184 425 157 q 519 254 508 211 l 519 319 l 372 319 q 268 242 268 319 q 295 180 268 203 q 369 157 322 157 m 417 1132 q 533 1084 485 1132 q 581 968 581 1036 q 533 852 581 900 q 417 804 485 804 q 301 852 349 804 q 253 968 253 900 q 301 1084 253 1036 q 417 1132 349 1132 m 417 1029 q 372 1011 390 1029 q 354 968 354 993 q 372 926 354 943 q 417 908 390 908 q 461 926 443 908 q 479 968 479 943 q 461 1011 479 993 q 417 1029 443 1029 m 478 1385 l 646 1283 l 426 1165 l 279 1204 l 478 1385 z "},"ã":{"ha":835,"x_min":36,"x_max":763,"o":"m 433 761 q 675 690 589 761 q 763 489 761 618 l 763 0 l 519 0 l 519 85 q 293 -11 444 -11 q 105 53 174 -11 q 36 224 36 118 q 110 390 36 331 q 324 451 185 450 l 519 451 l 519 460 q 483 543 519 514 q 376 572 446 572 q 270 557 329 572 q 151 513 211 542 l 83 679 q 259 741 175 721 q 433 761 343 761 m 369 157 q 467 184 425 157 q 519 254 508 211 l 519 319 l 372 319 q 268 242 268 319 q 295 180 268 203 q 369 157 322 157 m 672 1050 q 640 886 672 942 q 538 831 608 831 q 476 841 504 831 q 411 871 449 851 q 353 893 372 893 q 314 835 314 893 l 174 835 q 206 999 174 943 q 310 1056 238 1056 q 371 1044 342 1056 q 435 1015 400 1033 q 493 993 476 993 q 533 1050 533 993 l 672 1050 z "},"æ":{"ha":1340,"x_min":36,"x_max":1314,"o":"m 776 307 q 833 215 783 251 q 947 178 882 178 q 1042 197 996 178 q 1125 254 1088 217 l 1254 125 q 1112 26 1196 60 q 925 -8 1028 -8 q 740 31 819 -8 q 617 146 661 71 q 494 28 572 69 q 310 -12 417 -12 q 110 51 183 -12 q 36 221 36 115 q 110 384 36 328 q 325 443 185 440 l 522 443 l 522 469 q 482 546 519 519 q 378 572 444 572 q 266 557 328 572 q 140 513 204 542 l 83 681 q 435 761 269 761 q 685 679 600 761 q 919 760 776 760 q 1133 706 1043 760 q 1269 552 1224 651 q 1308 321 1314 453 l 775 321 l 776 307 m 1061 440 q 1022 548 1061 506 q 921 590 982 590 q 822 549 861 590 q 771 440 782 508 l 1061 440 m 376 324 q 296 302 324 324 q 268 242 268 281 q 296 176 268 200 q 371 151 324 151 q 460 174 421 151 q 524 240 499 196 l 522 324 l 376 324 z "},"ǽ":{"ha":1340,"x_min":36,"x_max":1310,"o":"m 776 307 q 833 215 783 251 q 947 178 882 178 q 1042 197 996 178 q 1125 254 1088 217 l 1254 125 q 1112 26 1196 60 q 925 -8 1028 -8 q 740 31 819 -8 q 617 146 661 71 q 494 28 572 69 q 310 -12 417 -12 q 110 51 183 -12 q 36 221 36 115 q 110 384 36 328 q 325 443 185 440 l 522 443 l 522 469 q 482 546 519 519 q 378 572 444 572 q 266 557 328 572 q 140 513 204 542 l 83 681 q 435 761 269 761 q 685 679 600 761 q 919 760 776 760 q 1133 706 1043 760 q 1269 552 1224 651 q 1308 321 1314 453 l 775 321 l 776 307 m 1061 440 q 1022 548 1061 506 q 921 590 982 590 q 822 549 861 590 q 771 440 782 508 l 1061 440 m 376 324 q 296 302 324 324 q 268 242 268 281 q 296 176 268 200 q 371 151 324 151 q 460 174 421 151 q 524 240 499 196 l 522 324 l 376 324 m 714 1069 l 918 992 l 717 832 l 547 846 l 714 1069 z "},"b":{"ha":953,"x_min":101,"x_max":919,"o":"m 569 760 q 753 712 674 760 q 876 576 832 664 q 919 372 919 488 q 877 172 919 258 q 756 39 835 86 q 575 -8 678 -8 q 447 19 504 -8 q 349 97 389 46 l 349 0 l 101 0 l 101 1031 l 349 1031 l 349 654 q 569 760 431 760 m 508 192 q 626 243 581 192 q 671 378 671 294 q 626 513 671 461 q 508 565 581 565 q 393 513 438 565 q 349 378 349 461 q 393 243 349 294 q 508 192 438 192 z "},"c":{"ha":781,"x_min":33,"x_max":761,"o":"m 579 478 q 432 556 526 556 q 324 505 365 556 q 282 374 282 454 q 324 242 282 292 q 432 192 365 192 q 579 276 535 192 l 761 172 q 628 39 717 86 q 419 -8 539 -8 q 217 39 304 -8 q 81 172 129 86 q 33 372 33 258 q 82 576 33 488 q 219 712 131 664 q 422 760 307 760 q 622 713 535 760 q 758 582 710 667 l 579 478 z "},"ć":{"ha":781,"x_min":33,"x_max":761,"o":"m 579 478 q 432 556 526 556 q 324 505 365 556 q 282 374 282 454 q 324 242 282 292 q 432 192 365 192 q 579 276 535 192 l 761 172 q 628 39 717 86 q 419 -8 539 -8 q 217 39 304 -8 q 81 172 129 86 q 33 372 33 258 q 82 576 33 488 q 219 712 131 664 q 422 760 307 760 q 622 713 535 760 q 758 582 710 667 l 579 478 m 460 1069 l 664 992 l 463 832 l 293 846 l 460 1069 z "},"č":{"ha":781,"x_min":33,"x_max":761,"o":"m 579 478 q 432 556 526 556 q 324 505 365 556 q 282 374 282 454 q 324 242 282 292 q 432 192 365 192 q 579 276 535 192 l 761 172 q 628 39 717 86 q 419 -8 539 -8 q 217 39 304 -8 q 81 172 129 86 q 33 372 33 258 q 82 576 33 488 q 219 712 131 664 q 422 760 307 760 q 622 713 535 760 q 758 582 710 667 l 579 478 m 500 1060 l 678 1060 l 526 847 l 308 847 l 157 1060 l 335 1060 l 417 967 l 500 1060 z "},"ç":{"ha":781,"x_min":33,"x_max":761,"o":"m 761 172 q 651 51 722 97 q 482 -4 579 6 l 456 -78 q 542 -120 514 -90 q 569 -190 569 -150 q 519 -291 569 -257 q 392 -325 468 -325 q 239 -297 315 -325 l 278 -186 q 349 -199 310 -199 q 389 -190 374 -199 q 404 -168 404 -182 q 383 -144 404 -153 q 331 -136 363 -136 l 297 -136 l 342 -3 q 117 121 200 21 q 33 372 33 221 q 82 576 33 488 q 219 712 131 664 q 422 760 307 760 q 622 713 535 760 q 758 582 710 667 l 579 478 q 432 556 526 556 q 324 505 365 556 q 282 374 282 454 q 324 242 282 292 q 432 192 365 192 q 579 276 535 192 l 761 172 z "},"ḉ":{"ha":781,"x_min":33,"x_max":761,"o":"m 638 992 l 436 832 l 267 846 l 433 1069 l 638 992 m 761 172 q 651 51 722 97 q 482 -4 579 6 l 456 -78 q 542 -120 514 -90 q 569 -190 569 -150 q 519 -291 569 -257 q 392 -325 468 -325 q 239 -297 315 -325 l 278 -186 q 349 -199 310 -199 q 389 -190 374 -199 q 404 -168 404 -182 q 383 -144 404 -153 q 331 -136 363 -136 l 297 -136 l 342 -3 q 117 121 200 21 q 33 372 33 221 q 82 576 33 488 q 219 712 131 664 q 422 760 307 760 q 622 713 535 760 q 758 582 710 667 l 579 478 q 432 556 526 556 q 324 505 365 556 q 282 374 282 454 q 324 242 282 292 q 432 192 365 192 q 579 276 535 192 l 761 172 z "},"ĉ":{"ha":781,"x_min":33,"x_max":761,"o":"m 579 478 q 432 556 526 556 q 324 505 365 556 q 282 374 282 454 q 324 242 282 292 q 432 192 365 192 q 579 276 535 192 l 761 172 q 628 39 717 86 q 419 -8 539 -8 q 217 39 304 -8 q 81 172 129 86 q 33 372 33 258 q 82 576 33 488 q 219 712 131 664 q 422 760 307 760 q 622 713 535 760 q 758 582 710 667 l 579 478 m 678 847 l 500 847 l 418 940 l 335 847 l 157 847 l 308 1060 l 526 1060 l 678 847 z "},"ċ":{"ha":781,"x_min":33,"x_max":761,"o":"m 579 478 q 432 556 526 556 q 324 505 365 556 q 282 374 282 454 q 324 242 282 292 q 432 192 365 192 q 579 276 535 192 l 761 172 q 628 39 717 86 q 419 -8 539 -8 q 217 39 304 -8 q 81 172 129 86 q 33 372 33 258 q 82 576 33 488 q 219 712 131 664 q 422 760 307 760 q 622 713 535 760 q 758 582 710 667 l 579 478 m 415 1097 q 509 1060 472 1097 q 546 965 546 1024 q 509 871 546 908 q 415 833 472 833 q 322 871 358 833 q 285 965 285 908 q 322 1060 285 1024 q 415 1097 358 1097 z "},"d":{"ha":954,"x_min":33,"x_max":853,"o":"m 853 1031 l 853 0 l 606 0 l 606 97 q 510 17 567 44 q 383 -10 454 -10 q 200 39 279 -10 q 77 176 121 88 q 33 379 33 264 q 76 579 33 493 q 197 713 119 665 q 378 760 275 760 q 508 732 450 760 q 606 653 565 704 l 606 1031 l 853 1031 m 444 185 q 561 237 517 185 q 606 372 606 289 q 561 508 606 457 q 444 560 517 560 q 327 508 372 560 q 282 372 282 456 q 327 237 282 289 q 444 185 372 185 z "},"ð":{"ha":840,"x_min":29,"x_max":808,"o":"m 596 861 q 753 645 697 764 q 808 399 808 526 q 757 182 808 275 q 612 38 706 89 q 393 -12 518 -12 q 201 28 283 -12 q 74 142 119 68 q 29 314 29 217 q 68 475 29 406 q 178 582 107 544 q 344 619 250 619 q 472 598 411 619 q 565 540 532 576 q 520 663 560 601 q 415 779 481 724 l 169 667 l 124 761 l 317 850 q 140 939 232 903 l 306 1042 q 504 936 411 1001 l 700 1026 l 746 929 l 596 861 m 404 196 q 506 231 468 196 q 544 324 544 265 q 506 417 544 382 q 403 453 467 453 q 302 418 339 453 q 265 326 265 383 q 303 231 265 267 q 404 196 340 196 z "},"ď":{"ha":1114,"x_min":33,"x_max":1149,"o":"m 853 1031 l 853 0 l 606 0 l 606 97 q 510 17 567 44 q 383 -10 454 -10 q 200 39 279 -10 q 77 176 121 88 q 33 379 33 264 q 76 579 33 493 q 197 713 119 665 q 378 760 275 760 q 508 732 450 760 q 606 653 565 704 l 606 1031 l 853 1031 m 444 185 q 561 237 517 185 q 606 372 606 289 q 561 508 606 457 q 444 560 517 560 q 327 508 372 560 q 282 372 282 456 q 327 237 282 289 q 444 185 372 185 m 960 1031 l 1149 1031 l 1107 726 l 960 726 l 960 1031 z "},"đ":{"ha":953,"x_min":33,"x_max":942,"o":"m 942 800 l 851 800 l 851 -1 l 606 -1 l 606 96 q 508 18 565 46 q 382 -10 451 -10 q 199 36 278 -10 q 76 165 119 82 q 33 356 33 247 q 76 544 33 463 q 196 669 118 625 q 375 714 274 714 q 505 686 446 714 q 606 607 564 658 l 606 800 l 365 800 l 365 921 l 606 921 l 606 1031 l 851 1031 l 851 921 l 942 921 l 942 800 m 444 185 q 560 231 515 185 q 606 350 606 276 q 560 468 606 422 q 444 514 515 514 q 327 469 372 514 q 282 350 282 424 q 327 231 282 276 q 444 185 372 185 z "},"ḍ":{"ha":954,"x_min":33,"x_max":853,"o":"m 853 1031 l 853 0 l 606 0 l 606 97 q 510 17 567 44 q 383 -10 454 -10 q 200 39 279 -10 q 77 176 121 88 q 33 379 33 264 q 76 579 33 493 q 197 713 119 665 q 378 760 275 760 q 508 732 450 760 q 606 653 565 704 l 606 1031 l 853 1031 m 444 185 q 561 237 517 185 q 606 372 606 289 q 561 508 606 457 q 444 560 517 560 q 327 508 372 560 q 282 372 282 456 q 327 237 282 289 q 444 185 372 185 m 490 -94 q 584 -131 547 -94 q 621 -226 621 -168 q 584 -321 621 -283 q 490 -358 547 -358 q 397 -321 433 -358 q 360 -226 360 -283 q 397 -131 360 -168 q 490 -94 433 -94 z "},"ḏ":{"ha":954,"x_min":33,"x_max":853,"o":"m 853 1031 l 853 0 l 606 0 l 606 97 q 510 17 567 44 q 383 -10 454 -10 q 200 39 279 -10 q 77 176 121 88 q 33 379 33 264 q 76 579 33 493 q 197 713 119 665 q 378 760 275 760 q 508 732 450 760 q 606 653 565 704 l 606 1031 l 853 1031 m 444 185 q 561 237 517 185 q 606 372 606 289 q 561 508 606 457 q 444 560 517 560 q 327 508 372 560 q 282 372 282 456 q 327 237 282 289 q 444 185 372 185 m 278 -107 l 707 -107 l 707 -253 l 278 -253 l 278 -107 z "},"ǆ":{"ha":1724,"x_min":33,"x_max":1686,"o":"m 853 1031 l 853 0 l 606 0 l 606 97 q 510 17 567 44 q 383 -10 454 -10 q 200 39 279 -10 q 77 176 121 88 q 33 379 33 264 q 76 579 33 493 q 197 713 119 665 q 378 760 275 760 q 508 732 450 760 q 606 653 565 704 l 606 1031 l 853 1031 m 444 185 q 561 237 517 185 q 606 372 606 289 q 561 508 606 457 q 444 560 517 560 q 327 508 372 560 q 282 372 282 456 q 327 237 282 289 q 444 185 372 185 m 1014 751 l 1672 750 l 1672 600 l 1311 189 l 1686 189 l 1686 0 l 1001 0 l 1001 150 l 1363 561 l 1014 561 l 1014 751 m 1424 1060 l 1601 1060 l 1450 847 l 1232 847 l 1081 1060 l 1258 1060 l 1340 967 l 1424 1060 z "},"e":{"ha":838,"x_min":33,"x_max":806,"o":"m 425 760 q 707 651 608 760 q 806 354 806 543 q 804 310 806 325 l 282 310 q 344 212 300 246 q 453 178 389 178 q 547 197 501 178 q 629 254 592 217 l 758 125 q 617 26 700 60 q 431 -8 535 -8 q 219 39 310 -8 q 81 172 129 86 q 33 372 33 258 q 82 576 33 488 q 219 712 131 664 q 425 760 308 760 m 565 442 q 527 547 565 507 q 426 586 489 586 q 328 547 368 586 q 276 442 289 508 l 565 442 z "},"é":{"ha":838,"x_min":33,"x_max":806,"o":"m 425 760 q 707 651 608 760 q 806 354 806 543 q 804 310 806 325 l 282 310 q 344 212 300 246 q 453 178 389 178 q 547 197 501 178 q 629 254 592 217 l 758 125 q 617 26 700 60 q 431 -8 535 -8 q 219 39 310 -8 q 81 172 129 86 q 33 372 33 258 q 82 576 33 488 q 219 712 131 664 q 425 760 308 760 m 565 442 q 527 547 565 507 q 426 586 489 586 q 328 547 368 586 q 276 442 289 508 l 565 442 m 460 1069 l 664 992 l 463 832 l 293 846 l 460 1069 z "},"ĕ":{"ha":838,"x_min":33,"x_max":806,"o":"m 425 760 q 707 651 608 760 q 806 354 806 543 q 804 310 806 325 l 282 310 q 344 212 300 246 q 453 178 389 178 q 547 197 501 178 q 629 254 592 217 l 758 125 q 617 26 700 60 q 431 -8 535 -8 q 219 39 310 -8 q 81 172 129 86 q 33 372 33 258 q 82 576 33 488 q 219 712 131 664 q 425 760 308 760 m 565 442 q 527 547 565 507 q 426 586 489 586 q 328 547 368 586 q 276 442 289 508 l 565 442 m 342 1057 q 365 999 344 1021 q 418 978 386 978 q 470 999 449 978 q 494 1057 492 1021 l 647 1057 q 581 894 643 956 q 418 833 518 833 q 255 894 318 833 q 188 1057 192 956 l 342 1057 z "},"ě":{"ha":838,"x_min":33,"x_max":806,"o":"m 425 760 q 707 651 608 760 q 806 354 806 543 q 804 310 806 325 l 282 310 q 344 212 300 246 q 453 178 389 178 q 547 197 501 178 q 629 254 592 217 l 758 125 q 617 26 700 60 q 431 -8 535 -8 q 219 39 310 -8 q 81 172 129 86 q 33 372 33 258 q 82 576 33 488 q 219 712 131 664 q 425 760 308 760 m 565 442 q 527 547 565 507 q 426 586 489 586 q 328 547 368 586 q 276 442 289 508 l 565 442 m 500 1060 l 678 1060 l 526 847 l 308 847 l 157 1060 l 335 1060 l 417 967 l 500 1060 z "},"ḝ":{"ha":838,"x_min":33,"x_max":806,"o":"m 411 833 q 248 894 311 833 q 181 1057 185 956 l 335 1057 q 358 999 338 1021 q 411 978 379 978 q 463 999 442 978 q 488 1057 485 1021 l 640 1057 q 574 894 636 956 q 411 833 511 833 m 425 760 q 707 651 608 760 q 806 354 806 543 q 804 310 806 325 l 282 310 q 344 212 300 246 q 453 178 389 178 q 547 197 501 178 q 629 254 592 217 l 758 125 q 501 -4 663 17 l 475 -78 q 561 -120 533 -90 q 589 -190 589 -150 q 538 -291 589 -257 q 411 -325 488 -325 q 258 -297 335 -325 l 297 -186 q 368 -199 329 -199 q 408 -190 393 -199 q 424 -168 424 -182 q 403 -144 424 -153 q 350 -136 382 -136 l 317 -136 l 360 -4 q 120 116 207 15 q 33 372 33 217 q 82 576 33 488 q 219 712 131 664 q 425 760 308 760 m 565 442 q 527 547 565 507 q 426 586 489 586 q 328 547 368 586 q 276 442 289 508 l 565 442 z "},"ê":{"ha":838,"x_min":33,"x_max":806,"o":"m 425 760 q 707 651 608 760 q 806 354 806 543 q 804 310 806 325 l 282 310 q 344 212 300 246 q 453 178 389 178 q 547 197 501 178 q 629 254 592 217 l 758 125 q 617 26 700 60 q 431 -8 535 -8 q 219 39 310 -8 q 81 172 129 86 q 33 372 33 258 q 82 576 33 488 q 219 712 131 664 q 425 760 308 760 m 565 442 q 527 547 565 507 q 426 586 489 586 q 328 547 368 586 q 276 442 289 508 l 565 442 m 678 847 l 500 847 l 418 940 l 335 847 l 157 847 l 308 1060 l 526 1060 l 678 847 z "},"ế":{"ha":838,"x_min":33,"x_max":806,"o":"m 425 760 q 707 651 608 760 q 806 354 806 543 q 804 310 806 325 l 282 310 q 344 212 300 246 q 453 178 389 178 q 547 197 501 178 q 629 254 592 217 l 758 125 q 617 26 700 60 q 431 -8 535 -8 q 219 39 310 -8 q 81 172 129 86 q 33 372 33 258 q 82 576 33 488 q 219 712 131 664 q 425 760 308 760 m 565 442 q 527 547 565 507 q 426 586 489 586 q 328 547 368 586 q 276 442 289 508 l 565 442 m 706 835 l 506 835 l 418 921 l 326 835 l 129 835 l 289 1006 l 544 1006 l 706 835 m 478 1268 l 646 1167 l 426 1049 l 279 1088 l 478 1268 z "},"ệ":{"ha":838,"x_min":33,"x_max":806,"o":"m 425 760 q 707 651 608 760 q 806 354 806 543 q 804 310 806 325 l 282 310 q 344 212 300 246 q 453 178 389 178 q 547 197 501 178 q 629 254 592 217 l 758 125 q 617 26 700 60 q 431 -8 535 -8 q 219 39 310 -8 q 81 172 129 86 q 33 372 33 258 q 82 576 33 488 q 219 712 131 664 q 425 760 308 760 m 565 442 q 527 547 565 507 q 426 586 489 586 q 328 547 368 586 q 276 442 289 508 l 565 442 m 419 -94 q 513 -131 476 -94 q 550 -226 550 -168 q 513 -321 550 -283 q 419 -358 476 -358 q 326 -321 363 -358 q 289 -226 289 -283 q 326 -131 289 -168 q 419 -94 363 -94 m 682 847 l 504 847 l 422 940 l 339 847 l 161 847 l 313 1060 l 531 1060 l 682 847 z "},"ề":{"ha":838,"x_min":33,"x_max":806,"o":"m 425 760 q 707 651 608 760 q 806 354 806 543 q 804 310 806 325 l 282 310 q 344 212 300 246 q 453 178 389 178 q 547 197 501 178 q 629 254 592 217 l 758 125 q 617 26 700 60 q 431 -8 535 -8 q 219 39 310 -8 q 81 172 129 86 q 33 372 33 258 q 82 576 33 488 q 219 712 131 664 q 425 760 308 760 m 565 442 q 527 547 565 507 q 426 586 489 586 q 328 547 368 586 q 276 442 289 508 l 565 442 m 706 835 l 506 835 l 418 921 l 326 835 l 129 835 l 289 1006 l 544 1006 l 706 835 m 342 1268 l 539 1088 l 393 1049 l 174 1167 l 342 1268 z "},"ể":{"ha":838,"x_min":33,"x_max":806,"o":"m 425 760 q 707 651 608 760 q 806 354 806 543 q 804 310 806 325 l 282 310 q 344 212 300 246 q 453 178 389 178 q 547 197 501 178 q 629 254 592 217 l 758 125 q 617 26 700 60 q 431 -8 535 -8 q 219 39 310 -8 q 81 172 129 86 q 33 372 33 258 q 82 576 33 488 q 219 712 131 664 q 425 760 308 760 m 565 442 q 527 547 565 507 q 426 586 489 586 q 328 547 368 586 q 276 442 289 508 l 565 442 m 706 835 l 506 835 l 418 921 l 326 835 l 129 835 l 289 1006 l 544 1006 l 706 835 m 414 1289 q 512 1260 478 1289 q 546 1189 546 1231 q 520 1116 546 1150 q 443 1046 494 1082 l 343 1085 q 394 1147 394 1121 q 386 1165 394 1158 q 364 1171 378 1171 q 322 1157 338 1171 l 263 1243 q 414 1289 339 1289 z "},"ễ":{"ha":838,"x_min":33,"x_max":806,"o":"m 425 760 q 707 651 608 760 q 806 354 806 543 q 804 310 806 325 l 282 310 q 344 212 300 246 q 453 178 389 178 q 547 197 501 178 q 629 254 592 217 l 758 125 q 617 26 700 60 q 431 -8 535 -8 q 219 39 310 -8 q 81 172 129 86 q 33 372 33 258 q 82 576 33 488 q 219 712 131 664 q 425 760 308 760 m 565 442 q 527 547 565 507 q 426 586 489 586 q 328 547 368 586 q 276 442 289 508 l 565 442 m 706 835 l 506 835 l 418 921 l 326 835 l 129 835 l 289 1006 l 544 1006 l 706 835 m 664 1238 q 632 1098 664 1144 q 531 1051 600 1051 q 465 1061 496 1051 q 396 1088 433 1071 q 328 1110 349 1110 q 295 1096 304 1110 q 286 1054 286 1082 l 168 1054 q 199 1194 168 1146 q 301 1242 231 1242 q 369 1232 336 1242 q 439 1206 401 1222 q 465 1194 443 1204 q 504 1185 488 1185 q 536 1198 526 1185 q 547 1238 546 1211 l 664 1238 z "},"ȅ":{"ha":838,"x_min":33,"x_max":806,"o":"m 425 760 q 707 651 608 760 q 806 354 806 543 q 804 310 806 325 l 282 310 q 344 212 300 246 q 453 178 389 178 q 547 197 501 178 q 629 254 592 217 l 758 125 q 617 26 700 60 q 431 -8 535 -8 q 219 39 310 -8 q 81 172 129 86 q 33 372 33 258 q 82 576 33 488 q 219 712 131 664 q 425 760 308 760 m 565 442 q 527 547 565 507 q 426 586 489 586 q 328 547 368 586 q 276 442 289 508 l 565 442 m 279 1074 l 390 844 l 217 832 l 92 1004 l 279 1074 m 553 1074 l 664 844 l 490 832 l 365 1004 l 553 1074 z "},"ë":{"ha":838,"x_min":33,"x_max":806,"o":"m 425 760 q 707 651 608 760 q 806 354 806 543 q 804 310 806 325 l 282 310 q 344 212 300 246 q 453 178 389 178 q 547 197 501 178 q 629 254 592 217 l 758 125 q 617 26 700 60 q 431 -8 535 -8 q 219 39 310 -8 q 81 172 129 86 q 33 372 33 258 q 82 576 33 488 q 219 712 131 664 q 425 760 308 760 m 565 442 q 527 547 565 507 q 426 586 489 586 q 328 547 368 586 q 276 442 289 508 l 565 442 m 285 1064 q 360 1033 331 1064 q 390 956 390 1003 q 360 880 390 910 q 285 850 331 850 q 209 880 239 850 q 179 956 179 910 q 209 1033 179 1003 q 285 1064 239 1064 m 551 1064 q 627 1033 597 1064 q 657 956 657 1003 q 627 880 657 910 q 551 850 597 850 q 475 880 504 850 q 446 956 446 910 q 475 1034 446 1004 q 551 1064 504 1064 z "},"ė":{"ha":838,"x_min":33,"x_max":806,"o":"m 425 760 q 707 651 608 760 q 806 354 806 543 q 804 310 806 325 l 282 310 q 344 212 300 246 q 453 178 389 178 q 547 197 501 178 q 629 254 592 217 l 758 125 q 617 26 700 60 q 431 -8 535 -8 q 219 39 310 -8 q 81 172 129 86 q 33 372 33 258 q 82 576 33 488 q 219 712 131 664 q 425 760 308 760 m 565 442 q 527 547 565 507 q 426 586 489 586 q 328 547 368 586 q 276 442 289 508 l 565 442 m 415 1097 q 509 1060 472 1097 q 546 965 546 1024 q 509 871 546 908 q 415 833 472 833 q 322 871 358 833 q 285 965 285 908 q 322 1060 285 1024 q 415 1097 358 1097 z "},"ẹ":{"ha":838,"x_min":33,"x_max":806,"o":"m 425 760 q 707 651 608 760 q 806 354 806 543 q 804 310 806 325 l 282 310 q 344 212 300 246 q 453 178 389 178 q 547 197 501 178 q 629 254 592 217 l 758 125 q 617 26 700 60 q 431 -8 535 -8 q 219 39 310 -8 q 81 172 129 86 q 33 372 33 258 q 82 576 33 488 q 219 712 131 664 q 425 760 308 760 m 565 442 q 527 547 565 507 q 426 586 489 586 q 328 547 368 586 q 276 442 289 508 l 565 442 m 419 -94 q 513 -131 476 -94 q 550 -226 550 -168 q 513 -321 550 -283 q 419 -358 476 -358 q 326 -321 363 -358 q 289 -226 289 -283 q 326 -131 289 -168 q 419 -94 363 -94 z "},"è":{"ha":838,"x_min":33,"x_max":806,"o":"m 425 760 q 707 651 608 760 q 806 354 806 543 q 804 310 806 325 l 282 310 q 344 212 300 246 q 453 178 389 178 q 547 197 501 178 q 629 254 592 217 l 758 125 q 617 26 700 60 q 431 -8 535 -8 q 219 39 310 -8 q 81 172 129 86 q 33 372 33 258 q 82 576 33 488 q 219 712 131 664 q 425 760 308 760 m 565 442 q 527 547 565 507 q 426 586 489 586 q 328 547 368 586 q 276 442 289 508 l 565 442 m 383 1069 l 531 846 l 360 832 l 178 992 l 383 1069 z "},"ẻ":{"ha":838,"x_min":33,"x_max":806,"o":"m 425 760 q 707 651 608 760 q 806 354 806 543 q 804 310 806 325 l 282 310 q 344 212 300 246 q 453 178 389 178 q 547 197 501 178 q 629 254 592 217 l 758 125 q 617 26 700 60 q 431 -8 535 -8 q 219 39 310 -8 q 81 172 129 86 q 33 372 33 258 q 82 576 33 488 q 219 712 131 664 q 425 760 308 760 m 565 442 q 527 547 565 507 q 426 586 489 586 q 328 547 368 586 q 276 442 289 508 l 565 442 m 426 1133 q 540 1098 499 1133 q 582 1003 582 1063 q 551 904 582 954 q 463 810 519 854 l 353 856 q 398 909 382 881 q 414 961 414 938 q 403 988 414 978 q 375 999 392 999 q 324 979 347 999 l 260 1081 q 426 1133 340 1133 z "},"ȇ":{"ha":838,"x_min":33,"x_max":806,"o":"m 425 760 q 707 651 608 760 q 806 354 806 543 q 804 310 806 325 l 282 310 q 344 212 300 246 q 453 178 389 178 q 547 197 501 178 q 629 254 592 217 l 758 125 q 617 26 700 60 q 431 -8 535 -8 q 219 39 310 -8 q 81 172 129 86 q 33 372 33 258 q 82 576 33 488 q 219 712 131 664 q 425 760 308 760 m 565 442 q 527 547 565 507 q 426 586 489 586 q 328 547 368 586 q 276 442 289 508 l 565 442 m 188 833 q 255 996 192 935 q 418 1057 318 1057 q 580 996 517 1057 q 647 833 643 935 l 494 833 q 470 891 492 869 q 418 913 449 913 q 365 891 386 913 q 342 833 344 869 l 188 833 z "},"ē":{"ha":838,"x_min":33,"x_max":806,"o":"m 425 760 q 707 651 608 760 q 806 354 806 543 q 804 310 806 325 l 282 310 q 344 212 300 246 q 453 178 389 178 q 547 197 501 178 q 629 254 592 217 l 758 125 q 617 26 700 60 q 431 -8 535 -8 q 219 39 310 -8 q 81 172 129 86 q 33 372 33 258 q 82 576 33 488 q 219 712 131 664 q 425 760 308 760 m 565 442 q 527 547 565 507 q 426 586 489 586 q 328 547 368 586 q 276 442 289 508 l 565 442 m 203 1033 l 632 1033 l 632 888 l 203 888 l 203 1033 z "},"ḗ":{"ha":838,"x_min":33,"x_max":806,"o":"m 425 760 q 707 651 608 760 q 806 354 806 543 q 804 310 806 325 l 282 310 q 344 212 300 246 q 453 178 389 178 q 547 197 501 178 q 629 254 592 217 l 758 125 q 617 26 700 60 q 431 -8 535 -8 q 219 39 310 -8 q 81 172 129 86 q 33 372 33 258 q 82 576 33 488 q 219 712 131 664 q 425 760 308 760 m 565 442 q 527 547 565 507 q 426 586 489 586 q 328 547 368 586 q 276 442 289 508 l 565 442 m 189 974 l 594 974 l 594 835 l 189 835 l 189 974 m 453 1254 l 621 1153 l 401 1035 l 254 1074 l 453 1254 z "},"ḕ":{"ha":838,"x_min":33,"x_max":806,"o":"m 425 760 q 707 651 608 760 q 806 354 806 543 q 804 310 806 325 l 282 310 q 344 212 300 246 q 453 178 389 178 q 547 197 501 178 q 629 254 592 217 l 758 125 q 617 26 700 60 q 431 -8 535 -8 q 219 39 310 -8 q 81 172 129 86 q 33 372 33 258 q 82 576 33 488 q 219 712 131 664 q 425 760 308 760 m 565 442 q 527 547 565 507 q 426 586 489 586 q 328 547 368 586 q 276 442 289 508 l 565 442 m 189 974 l 594 974 l 594 835 l 189 835 l 189 974 m 317 1254 l 514 1074 l 368 1035 l 149 1153 l 317 1254 z "},"ę":{"ha":838,"x_min":33,"x_max":806,"o":"m 425 760 q 707 651 608 760 q 806 354 806 543 q 804 310 806 325 l 282 310 q 344 212 300 246 q 453 178 389 178 q 547 197 501 178 q 629 254 592 217 l 758 125 q 707 78 740 103 q 622 -29 654 28 q 589 -129 589 -86 q 619 -172 589 -172 q 660 -161 640 -172 l 700 -293 q 568 -324 629 -324 q 453 -285 497 -324 q 410 -174 410 -247 q 483 -6 410 -87 q 431 -8 450 -8 q 219 39 310 -8 q 81 172 129 86 q 33 372 33 258 q 82 576 33 488 q 219 712 131 664 q 425 760 308 760 m 565 442 q 527 547 565 507 q 426 586 489 586 q 328 547 368 586 q 276 442 289 508 l 565 442 z "},"ẽ":{"ha":838,"x_min":33,"x_max":806,"o":"m 425 760 q 707 651 608 760 q 806 354 806 543 q 804 310 806 325 l 282 310 q 344 212 300 246 q 453 178 389 178 q 547 197 501 178 q 629 254 592 217 l 758 125 q 617 26 700 60 q 431 -8 535 -8 q 219 39 310 -8 q 81 172 129 86 q 33 372 33 258 q 82 576 33 488 q 219 712 131 664 q 425 760 308 760 m 565 442 q 527 547 565 507 q 426 586 489 586 q 328 547 368 586 q 276 442 289 508 l 565 442 m 674 1050 q 642 886 674 942 q 539 831 610 831 q 478 841 506 831 q 413 871 450 851 q 354 893 374 893 q 315 835 315 893 l 175 835 q 207 999 175 943 q 311 1056 239 1056 q 372 1044 343 1056 q 436 1015 401 1033 q 494 993 478 993 q 535 1050 535 993 l 674 1050 z "},"ə":{"ha":838,"x_min":32,"x_max":804,"o":"m 407 760 q 618 713 528 760 q 756 579 708 665 q 804 379 804 493 q 756 176 804 264 q 618 40 707 88 q 413 -8 529 -8 q 131 100 229 -8 q 32 397 32 208 q 33 442 32 426 l 556 442 q 493 540 538 506 q 385 574 449 574 q 291 554 336 574 q 208 497 246 535 l 79 626 q 220 726 138 692 q 407 760 303 760 m 411 165 q 510 204 471 165 q 561 310 549 243 l 272 310 q 310 205 272 244 q 411 165 349 165 z "},"f":{"ha":550,"x_min":38,"x_max":585,"o":"m 469 844 q 408 824 432 844 q 385 764 385 803 l 385 715 l 551 715 l 551 551 l 385 551 l 385 0 l 139 0 l 139 551 l 38 551 l 38 715 l 139 715 l 139 785 q 219 973 139 904 q 424 1042 299 1042 q 585 1013 506 1042 l 553 825 q 469 844 497 844 z "},"g":{"ha":900,"x_min":33,"x_max":814,"o":"m 814 751 l 814 67 q 763 -116 814 -37 q 619 -237 711 -194 q 406 -279 526 -279 q 224 -253 311 -279 q 69 -182 136 -226 l 156 -11 q 267 -65 207 -46 q 388 -85 326 -85 q 519 -46 471 -85 q 568 60 568 -7 l 568 140 q 354 42 493 42 q 188 87 261 42 q 74 215 115 132 q 33 404 33 297 q 73 590 33 510 q 185 715 113 671 q 349 760 257 760 q 474 734 418 760 q 568 660 531 708 l 568 751 l 814 751 m 417 222 q 526 271 485 222 q 568 397 568 319 q 526 525 568 476 q 417 574 485 574 q 306 524 349 574 q 264 397 264 475 q 306 271 264 319 q 417 222 349 222 z "},"ğ":{"ha":900,"x_min":33,"x_max":814,"o":"m 814 751 l 814 67 q 763 -116 814 -37 q 619 -237 711 -194 q 406 -279 526 -279 q 224 -253 311 -279 q 69 -182 136 -226 l 156 -11 q 267 -65 207 -46 q 388 -85 326 -85 q 519 -46 471 -85 q 568 60 568 -7 l 568 140 q 354 42 493 42 q 188 87 261 42 q 74 215 115 132 q 33 404 33 297 q 73 590 33 510 q 185 715 113 671 q 349 760 257 760 q 474 734 418 760 q 568 660 531 708 l 568 751 l 814 751 m 417 222 q 526 271 485 222 q 568 397 568 319 q 526 525 568 476 q 417 574 485 574 q 306 524 349 574 q 264 397 264 475 q 306 271 264 319 q 417 222 349 222 m 353 1057 q 376 999 356 1021 q 429 978 397 978 q 481 999 460 978 q 506 1057 503 1021 l 658 1057 q 592 894 654 956 q 429 833 529 833 q 266 894 329 833 q 199 1057 203 956 l 353 1057 z "},"ǧ":{"ha":900,"x_min":33,"x_max":814,"o":"m 814 751 l 814 67 q 763 -116 814 -37 q 619 -237 711 -194 q 406 -279 526 -279 q 224 -253 311 -279 q 69 -182 136 -226 l 156 -11 q 267 -65 207 -46 q 388 -85 326 -85 q 519 -46 471 -85 q 568 60 568 -7 l 568 140 q 354 42 493 42 q 188 87 261 42 q 74 215 115 132 q 33 404 33 297 q 73 590 33 510 q 185 715 113 671 q 349 760 257 760 q 474 734 418 760 q 568 660 531 708 l 568 751 l 814 751 m 417 222 q 526 271 485 222 q 568 397 568 319 q 526 525 568 476 q 417 574 485 574 q 306 524 349 574 q 264 397 264 475 q 306 271 264 319 q 417 222 349 222 m 511 1060 l 689 1060 l 538 847 l 319 847 l 168 1060 l 346 1060 l 428 967 l 511 1060 z "},"ĝ":{"ha":900,"x_min":33,"x_max":814,"o":"m 814 751 l 814 67 q 763 -116 814 -37 q 619 -237 711 -194 q 406 -279 526 -279 q 224 -253 311 -279 q 69 -182 136 -226 l 156 -11 q 267 -65 207 -46 q 388 -85 326 -85 q 519 -46 471 -85 q 568 60 568 -7 l 568 140 q 354 42 493 42 q 188 87 261 42 q 74 215 115 132 q 33 404 33 297 q 73 590 33 510 q 185 715 113 671 q 349 760 257 760 q 474 734 418 760 q 568 660 531 708 l 568 751 l 814 751 m 417 222 q 526 271 485 222 q 568 397 568 319 q 526 525 568 476 q 417 574 485 574 q 306 524 349 574 q 264 397 264 475 q 306 271 264 319 q 417 222 349 222 m 689 847 l 511 847 l 429 940 l 346 847 l 168 847 l 319 1060 l 538 1060 l 689 847 z "},"ģ":{"ha":900,"x_min":33,"x_max":814,"o":"m 814 751 l 814 67 q 763 -116 814 -37 q 619 -237 711 -194 q 406 -279 526 -279 q 224 -253 311 -279 q 69 -182 136 -226 l 156 -11 q 267 -65 207 -46 q 388 -85 326 -85 q 519 -46 471 -85 q 568 60 568 -7 l 568 140 q 354 42 493 42 q 188 87 261 42 q 74 215 115 132 q 33 404 33 297 q 73 590 33 510 q 185 715 113 671 q 349 760 257 760 q 474 734 418 760 q 568 660 531 708 l 568 751 l 814 751 m 417 222 q 526 271 485 222 q 568 397 568 319 q 526 525 568 476 q 417 574 485 574 q 306 524 349 574 q 264 397 264 475 q 306 271 264 319 q 417 222 349 222 m 511 847 l 310 847 l 413 1089 l 556 1089 l 511 847 z "},"ġ":{"ha":900,"x_min":33,"x_max":814,"o":"m 814 751 l 814 67 q 763 -116 814 -37 q 619 -237 711 -194 q 406 -279 526 -279 q 224 -253 311 -279 q 69 -182 136 -226 l 156 -11 q 267 -65 207 -46 q 388 -85 326 -85 q 519 -46 471 -85 q 568 60 568 -7 l 568 140 q 354 42 493 42 q 188 87 261 42 q 74 215 115 132 q 33 404 33 297 q 73 590 33 510 q 185 715 113 671 q 349 760 257 760 q 474 734 418 760 q 568 660 531 708 l 568 751 l 814 751 m 417 222 q 526 271 485 222 q 568 397 568 319 q 526 525 568 476 q 417 574 485 574 q 306 524 349 574 q 264 397 264 475 q 306 271 264 319 q 417 222 349 222 m 426 1097 q 520 1060 483 1097 q 557 965 557 1024 q 520 871 557 908 q 426 833 483 833 q 333 871 369 833 q 296 965 296 908 q 333 1060 296 1024 q 426 1097 369 1097 z "},"ḡ":{"ha":900,"x_min":33,"x_max":814,"o":"m 814 751 l 814 67 q 763 -116 814 -37 q 619 -237 711 -194 q 406 -279 526 -279 q 224 -253 311 -279 q 69 -182 136 -226 l 156 -11 q 267 -65 207 -46 q 388 -85 326 -85 q 519 -46 471 -85 q 568 60 568 -7 l 568 140 q 354 42 493 42 q 188 87 261 42 q 74 215 115 132 q 33 404 33 297 q 73 590 33 510 q 185 715 113 671 q 349 760 257 760 q 474 734 418 760 q 568 660 531 708 l 568 751 l 814 751 m 417 222 q 526 271 485 222 q 568 397 568 319 q 526 525 568 476 q 417 574 485 574 q 306 524 349 574 q 264 397 264 475 q 306 271 264 319 q 417 222 349 222 m 214 1033 l 643 1033 l 643 888 l 214 888 l 214 1033 z "},"h":{"ha":943,"x_min":101,"x_max":871,"o":"m 597 761 q 797 683 722 761 q 871 474 871 606 l 871 0 l 624 0 l 624 403 q 590 503 624 467 q 496 540 556 540 q 388 492 428 539 q 349 371 349 446 l 349 0 l 101 0 l 101 1031 l 349 1031 l 349 629 q 452 728 389 694 q 597 761 515 761 z "},"ħ":{"ha":943,"x_min":13,"x_max":871,"o":"m 597 714 q 796 635 721 714 q 871 426 871 557 l 871 0 l 624 0 l 624 356 q 590 456 624 419 q 496 492 556 492 q 388 444 428 492 q 349 322 349 397 l 349 0 l 101 0 l 101 800 l 13 800 l 13 921 l 101 921 l 101 1031 l 349 1031 l 349 921 l 589 921 l 589 800 l 349 800 l 349 582 q 452 681 389 647 q 597 714 515 714 z "},"ḫ":{"ha":943,"x_min":101,"x_max":871,"o":"m 597 761 q 797 683 722 761 q 871 474 871 606 l 871 0 l 624 0 l 624 403 q 590 503 624 467 q 496 540 556 540 q 388 492 428 539 q 349 371 349 446 l 349 0 l 101 0 l 101 1031 l 349 1031 l 349 629 q 452 728 389 694 q 597 761 515 761 m 410 -82 q 433 -140 413 -118 q 486 -161 454 -161 q 538 -140 517 -161 q 563 -82 560 -118 l 715 -82 q 649 -244 711 -183 q 486 -306 586 -306 q 323 -244 386 -306 q 256 -82 260 -183 l 410 -82 z "},"ĥ":{"ha":943,"x_min":-43,"x_max":871,"o":"m 597 761 q 797 683 722 761 q 871 474 871 606 l 871 0 l 624 0 l 624 403 q 590 503 624 467 q 496 540 556 540 q 388 492 428 539 q 349 371 349 446 l 349 0 l 101 0 l 101 1031 l 349 1031 l 349 629 q 452 728 389 694 q 597 761 515 761 m 478 1126 l 300 1126 l 218 1219 l 135 1126 l -43 1126 l 108 1339 l 326 1339 l 478 1126 z "},"ḥ":{"ha":943,"x_min":101,"x_max":871,"o":"m 597 761 q 797 683 722 761 q 871 474 871 606 l 871 0 l 624 0 l 624 403 q 590 503 624 467 q 496 540 556 540 q 388 492 428 539 q 349 371 349 446 l 349 0 l 101 0 l 101 1031 l 349 1031 l 349 629 q 452 728 389 694 q 597 761 515 761 m 483 -94 q 577 -131 540 -94 q 614 -226 614 -168 q 577 -321 614 -283 q 483 -358 540 -358 q 390 -321 426 -358 q 353 -226 353 -283 q 390 -131 353 -168 q 483 -94 426 -94 z "},"i":{"ha":435,"x_min":85,"x_max":346,"o":"m 94 751 l 340 751 l 340 0 l 94 0 l 94 751 m 215 1097 q 309 1060 272 1097 q 346 965 346 1024 q 309 871 346 908 q 215 833 272 833 q 122 871 158 833 q 85 965 85 908 q 122 1060 85 1024 q 215 1097 158 1097 z "},"ı":{"ha":435,"x_min":94,"x_max":340,"o":"m 94 751 l 340 751 l 340 0 l 94 0 l 94 751 z "},"í":{"ha":435,"x_min":93,"x_max":464,"o":"m 94 751 l 340 751 l 340 0 l 94 0 l 94 751 m 260 1069 l 464 992 l 263 832 l 93 846 l 260 1069 z "},"ĭ":{"ha":435,"x_min":-12,"x_max":447,"o":"m 94 751 l 340 751 l 340 0 l 94 0 l 94 751 m 142 1057 q 165 999 144 1021 q 218 978 186 978 q 270 999 249 978 q 294 1057 292 1021 l 447 1057 q 381 894 443 956 q 218 833 318 833 q 55 894 118 833 q -12 1057 -8 956 l 142 1057 z "},"î":{"ha":435,"x_min":-43,"x_max":478,"o":"m 94 751 l 340 751 l 340 0 l 94 0 l 94 751 m 478 847 l 300 847 l 218 940 l 135 847 l -43 847 l 108 1060 l 326 1060 l 478 847 z "},"ȉ":{"ha":435,"x_min":-108,"x_max":464,"o":"m 94 751 l 340 751 l 340 0 l 94 0 l 94 751 m 79 1074 l 190 844 l 17 832 l -108 1004 l 79 1074 m 353 1074 l 464 844 l 290 832 l 165 1004 l 353 1074 z "},"ï":{"ha":435,"x_min":-15,"x_max":451,"o":"m 94 751 l 340 751 l 340 0 l 94 0 l 94 751 m 90 1064 q 167 1034 138 1064 q 196 957 196 1004 q 167 879 196 910 q 90 849 138 849 q 15 879 44 849 q -15 957 -15 910 q 15 1034 -15 1004 q 90 1064 44 1064 m 346 1064 q 422 1034 392 1064 q 451 957 451 1004 q 422 879 451 910 q 346 849 392 849 q 269 879 299 849 q 239 957 239 910 q 269 1034 239 1004 q 346 1064 299 1064 z "},"ḯ":{"ha":435,"x_min":-22,"x_max":457,"o":"m 94 751 l 340 751 l 340 0 l 94 0 l 94 751 m 82 1047 q 157 1017 128 1047 q 186 940 186 988 q 157 865 186 894 q 82 835 128 835 q 7 865 36 835 q -22 940 -22 894 q 7 1017 -22 988 q 82 1047 36 1047 m 353 1047 q 428 1017 399 1047 q 457 940 457 988 q 428 865 457 894 q 353 835 399 835 q 277 865 307 835 q 247 940 247 894 q 277 1017 247 988 q 353 1047 307 1047 m 278 1297 l 446 1196 l 226 1078 l 79 1117 l 278 1297 z "},"ị":{"ha":435,"x_min":85,"x_max":346,"o":"m 94 751 l 340 751 l 340 0 l 94 0 l 94 751 m 215 1097 q 309 1060 272 1097 q 346 965 346 1024 q 309 871 346 908 q 215 833 272 833 q 122 871 158 833 q 85 965 85 908 q 122 1060 85 1024 q 215 1097 158 1097 m 215 -94 q 309 -131 272 -94 q 346 -226 346 -168 q 309 -321 346 -283 q 215 -358 272 -358 q 122 -321 158 -358 q 85 -226 85 -283 q 122 -131 85 -168 q 215 -94 158 -94 z "},"ì":{"ha":435,"x_min":-22,"x_max":340,"o":"m 94 751 l 340 751 l 340 0 l 94 0 l 94 751 m 183 1069 l 331 846 l 160 832 l -22 992 l 183 1069 z "},"ỉ":{"ha":435,"x_min":60,"x_max":382,"o":"m 94 751 l 340 751 l 340 0 l 94 0 l 94 751 m 226 1133 q 340 1098 299 1133 q 382 1003 382 1063 q 351 904 382 954 q 263 810 319 854 l 153 856 q 198 909 182 881 q 214 961 214 938 q 203 988 214 978 q 175 999 192 999 q 124 979 147 999 l 60 1081 q 226 1133 140 1133 z "},"ȋ":{"ha":435,"x_min":-3,"x_max":438,"o":"m 94 751 l 340 751 l 340 0 l 94 0 l 94 751 m -3 833 q 61 997 1 936 q 218 1057 121 1057 q 374 996 314 1057 q 438 833 433 935 l 288 833 q 265 890 283 868 q 218 911 246 911 q 170 890 189 911 q 149 833 151 868 l -3 833 z "},"ĳ":{"ha":872,"x_min":85,"x_max":782,"o":"m 94 751 l 340 751 l 340 0 l 94 0 l 94 751 m 215 1097 q 309 1060 272 1097 q 346 965 346 1024 q 309 871 346 908 q 215 833 272 833 q 122 871 158 833 q 85 965 85 908 q 122 1060 85 1024 q 215 1097 158 1097 m 396 -74 q 457 -83 432 -83 q 513 -60 493 -83 q 532 10 532 -36 l 532 751 l 779 751 l 779 -28 q 708 -212 779 -144 q 514 -279 636 -279 q 347 -250 426 -279 l 396 -74 m 651 1097 q 745 1060 708 1097 q 782 965 782 1024 q 745 871 782 908 q 651 833 708 833 q 558 871 594 833 q 521 965 521 908 q 558 1060 521 1024 q 651 1097 594 1097 z "},"ī":{"ha":435,"x_min":22,"x_max":413,"o":"m 94 751 l 340 751 l 340 0 l 94 0 l 94 751 m 22 1033 l 413 1033 l 413 888 l 22 888 l 22 1033 z "},"į":{"ha":435,"x_min":7,"x_max":346,"o":"m 215 833 q 122 871 158 833 q 85 965 85 908 q 122 1060 85 1024 q 215 1097 158 1097 q 309 1060 272 1097 q 346 965 346 1024 q 309 871 346 908 q 215 833 272 833 m 94 751 l 340 751 l 340 0 l 293 0 q 213 -71 239 -39 q 186 -135 186 -103 q 194 -162 186 -153 q 218 -172 203 -172 q 257 -161 235 -172 l 297 -293 q 163 -324 229 -324 q 48 -283 89 -324 q 7 -176 7 -243 q 94 7 7 -79 l 94 751 z "},"ĩ":{"ha":435,"x_min":-6,"x_max":460,"o":"m 94 751 l 340 751 l 340 0 l 94 0 l 94 751 m 460 1047 q 428 882 460 936 q 331 828 397 828 q 274 838 300 828 q 218 865 249 847 q 199 876 215 867 q 169 886 182 886 q 133 832 133 886 l -6 832 q 26 997 -6 942 q 124 1053 57 1053 q 179 1043 153 1053 q 235 1017 206 1033 q 262 1003 249 1008 q 285 997 275 997 q 313 1009 304 997 q 321 1047 321 1021 l 460 1047 z "},"j":{"ha":433,"x_min":-87,"x_max":347,"o":"m -39 -74 q 22 -83 -3 -83 q 78 -60 58 -83 q 97 10 97 -36 l 97 751 l 344 751 l 344 -28 q 273 -212 344 -144 q 79 -279 201 -279 q -87 -250 -8 -279 l -39 -74 m 217 1097 q 310 1060 274 1097 q 347 965 347 1024 q 310 871 347 908 q 217 833 274 833 q 123 871 160 833 q 86 965 86 908 q 123 1060 86 1024 q 217 1097 160 1097 z "},"ȷ":{"ha":433,"x_min":-87,"x_max":344,"o":"m -39 -74 q 22 -83 -3 -83 q 78 -60 58 -83 q 97 10 97 -36 l 97 751 l 344 751 l 344 -28 q 273 -212 344 -144 q 79 -279 201 -279 q -87 -250 -8 -279 l -39 -74 z "},"ĵ":{"ha":433,"x_min":-87,"x_max":479,"o":"m -39 -74 q 22 -83 -3 -83 q 78 -60 58 -83 q 97 10 97 -36 l 97 751 l 344 751 l 344 -28 q 273 -212 344 -144 q 79 -279 201 -279 q -87 -250 -8 -279 l -39 -74 m 479 847 l 301 847 l 219 940 l 136 847 l -42 847 l 110 1060 l 328 1060 l 479 847 z "},"k":{"ha":879,"x_min":101,"x_max":875,"o":"m 583 0 l 425 283 l 349 204 l 349 0 l 101 0 l 101 1031 l 349 1031 l 349 497 l 589 751 l 869 751 l 594 461 l 875 0 l 583 0 z "},"ķ":{"ha":879,"x_min":101,"x_max":875,"o":"m 583 0 l 425 283 l 349 204 l 349 0 l 101 0 l 101 1031 l 349 1031 l 349 497 l 589 751 l 869 751 l 594 461 l 875 0 l 583 0 m 353 -83 l 554 -83 l 451 -325 l 308 -325 l 353 -83 z "},"ĸ":{"ha":871,"x_min":94,"x_max":867,"o":"m 574 0 l 415 283 l 340 204 l 340 0 l 94 0 l 94 751 l 340 751 l 340 485 l 581 751 l 861 751 l 586 461 l 867 0 l 574 0 z "},"l":{"ha":450,"x_min":101,"x_max":349,"o":"m 101 1031 l 349 1031 l 349 0 l 101 0 l 101 1031 z "},"ĺ":{"ha":450,"x_min":100,"x_max":471,"o":"m 101 1031 l 349 1031 l 349 0 l 101 0 l 101 1031 m 267 1349 l 471 1271 l 269 1111 l 100 1125 l 267 1349 z "},"ľ":{"ha":603,"x_min":101,"x_max":638,"o":"m 101 1031 l 349 1031 l 349 0 l 101 0 l 101 1031 m 449 1031 l 638 1031 l 596 726 l 449 726 l 449 1031 z "},"ļ":{"ha":450,"x_min":78,"x_max":349,"o":"m 101 1031 l 349 1031 l 349 0 l 101 0 l 101 1031 m 122 -83 l 324 -83 l 221 -325 l 78 -325 l 122 -83 z "},"ŀ":{"ha":669,"x_min":101,"x_max":674,"o":"m 101 1031 l 349 1031 l 349 0 l 101 0 l 101 1031 m 543 686 q 637 649 600 686 q 674 554 674 613 q 637 460 674 497 q 543 422 600 422 q 449 460 486 422 q 413 554 413 497 q 449 649 413 613 q 543 686 486 686 z "},"ḷ":{"ha":450,"x_min":92,"x_max":353,"o":"m 101 1031 l 349 1031 l 349 0 l 101 0 l 101 1031 m 222 -94 q 316 -131 279 -94 q 353 -226 353 -168 q 316 -321 353 -283 q 222 -358 279 -358 q 128 -321 165 -358 q 92 -226 92 -283 q 128 -131 92 -168 q 222 -94 165 -94 z "},"ǉ":{"ha":883,"x_min":101,"x_max":797,"o":"m 101 1031 l 349 1031 l 349 0 l 101 0 l 101 1031 m 411 -74 q 472 -83 447 -83 q 528 -60 508 -83 q 547 10 547 -36 l 547 751 l 794 751 l 794 -28 q 723 -212 794 -144 q 529 -279 651 -279 q 363 -250 442 -279 l 411 -74 m 667 1097 q 760 1060 724 1097 q 797 965 797 1024 q 760 871 797 908 q 667 833 724 833 q 573 871 610 833 q 536 965 536 908 q 573 1060 536 1024 q 667 1097 610 1097 z "},"ḻ":{"ha":450,"x_min":10,"x_max":439,"o":"m 101 1031 l 349 1031 l 349 0 l 101 0 l 101 1031 m 10 -107 l 439 -107 l 439 -253 l 10 -253 l 10 -107 z "},"ł":{"ha":586,"x_min":25,"x_max":563,"o":"m 563 756 l 563 615 l 418 540 l 418 0 l 171 0 l 171 413 l 25 338 l 25 478 l 171 553 l 171 1031 l 418 1031 l 418 681 l 563 756 z "},"m":{"ha":1440,"x_min":94,"x_max":1367,"o":"m 1097 761 q 1293 683 1219 761 q 1367 474 1367 606 l 1367 0 l 1119 0 l 1119 403 q 1086 503 1119 467 q 996 540 1053 540 q 892 492 931 539 q 854 371 854 446 l 854 0 l 607 0 l 607 403 q 574 503 607 467 q 483 540 540 540 q 379 492 418 539 q 340 371 340 446 l 340 0 l 94 0 l 94 751 l 340 751 l 340 628 q 441 727 379 693 q 585 761 503 761 q 742 717 676 761 q 835 593 807 672 q 938 719 871 676 q 1097 761 1006 761 z "},"ṃ":{"ha":1440,"x_min":94,"x_max":1367,"o":"m 1097 761 q 1293 683 1219 761 q 1367 474 1367 606 l 1367 0 l 1119 0 l 1119 403 q 1086 503 1119 467 q 996 540 1053 540 q 892 492 931 539 q 854 371 854 446 l 854 0 l 607 0 l 607 403 q 574 503 607 467 q 483 540 540 540 q 379 492 418 539 q 340 371 340 446 l 340 0 l 94 0 l 94 751 l 340 751 l 340 628 q 441 727 379 693 q 585 761 503 761 q 742 717 676 761 q 835 593 807 672 q 938 719 871 676 q 1097 761 1006 761 m 729 -94 q 823 -131 786 -94 q 860 -226 860 -168 q 823 -321 860 -283 q 729 -358 786 -358 q 635 -321 672 -358 q 599 -226 599 -283 q 635 -131 599 -168 q 729 -94 672 -94 z "},"n":{"ha":936,"x_min":94,"x_max":863,"o":"m 590 761 q 788 683 714 761 q 863 474 863 606 l 863 0 l 617 0 l 617 403 q 582 503 617 467 q 489 540 547 540 q 388 500 428 539 q 342 397 349 461 l 342 0 l 94 0 l 94 751 l 342 751 l 342 629 q 445 728 382 694 q 590 761 508 761 z "},"ń":{"ha":936,"x_min":94,"x_max":863,"o":"m 590 761 q 788 683 714 761 q 863 474 863 606 l 863 0 l 617 0 l 617 403 q 582 503 617 467 q 489 540 547 540 q 388 500 428 539 q 342 397 349 461 l 342 0 l 94 0 l 94 751 l 342 751 l 342 629 q 445 728 382 694 q 590 761 508 761 m 533 1069 l 738 992 l 536 832 l 367 846 l 533 1069 z "},"ŉ":{"ha":1147,"x_min":61,"x_max":1074,"o":"m 61 974 l 228 974 l 196 608 l 61 608 l 61 974 m 801 761 q 999 683 925 761 q 1074 474 1074 606 l 1074 0 l 828 0 l 828 403 q 793 503 828 467 q 700 540 758 540 q 599 500 639 539 q 553 397 560 461 l 553 0 l 306 0 l 306 751 l 553 751 l 553 629 q 656 728 593 694 q 801 761 719 761 z "},"ň":{"ha":936,"x_min":94,"x_max":863,"o":"m 590 761 q 788 683 714 761 q 863 474 863 606 l 863 0 l 617 0 l 617 403 q 582 503 617 467 q 489 540 547 540 q 388 500 428 539 q 342 397 349 461 l 342 0 l 94 0 l 94 751 l 342 751 l 342 629 q 445 728 382 694 q 590 761 508 761 m 574 1060 l 751 1060 l 600 847 l 382 847 l 231 1060 l 408 1060 l 490 967 l 574 1060 z "},"ņ":{"ha":936,"x_min":94,"x_max":863,"o":"m 590 761 q 788 683 714 761 q 863 474 863 606 l 863 0 l 617 0 l 617 403 q 582 503 617 467 q 489 540 547 540 q 388 500 428 539 q 342 397 349 461 l 342 0 l 94 0 l 94 751 l 342 751 l 342 629 q 445 728 382 694 q 590 761 508 761 m 372 -83 l 574 -83 l 471 -325 l 328 -325 l 372 -83 z "},"ṅ":{"ha":936,"x_min":94,"x_max":863,"o":"m 590 761 q 788 683 714 761 q 863 474 863 606 l 863 0 l 617 0 l 617 403 q 582 503 617 467 q 489 540 547 540 q 388 500 428 539 q 342 397 349 461 l 342 0 l 94 0 l 94 751 l 342 751 l 342 629 q 445 728 382 694 q 590 761 508 761 m 489 1097 q 583 1060 546 1097 q 619 965 619 1024 q 583 871 619 908 q 489 833 546 833 q 395 871 432 833 q 358 965 358 908 q 395 1060 358 1024 q 489 1097 432 1097 z "},"ṇ":{"ha":936,"x_min":94,"x_max":863,"o":"m 590 761 q 788 683 714 761 q 863 474 863 606 l 863 0 l 617 0 l 617 403 q 582 503 617 467 q 489 540 547 540 q 388 500 428 539 q 342 397 349 461 l 342 0 l 94 0 l 94 751 l 342 751 l 342 629 q 445 728 382 694 q 590 761 508 761 m 472 -94 q 566 -131 529 -94 q 603 -226 603 -168 q 566 -321 603 -283 q 472 -358 529 -358 q 378 -321 415 -358 q 342 -226 342 -283 q 378 -131 342 -168 q 472 -94 415 -94 z "},"ŋ":{"ha":936,"x_min":94,"x_max":863,"o":"m 590 761 q 788 683 714 761 q 863 474 863 606 l 863 -28 q 786 -212 863 -144 q 592 -279 710 -279 q 397 -232 481 -279 l 460 -56 q 543 -82 504 -82 q 597 -62 576 -82 q 617 -1 617 -42 l 617 403 q 582 503 617 467 q 489 540 547 540 q 388 500 428 539 q 342 397 349 461 l 342 0 l 94 0 l 94 751 l 342 751 l 342 629 q 445 728 382 694 q 590 761 508 761 z "},"ǌ":{"ha":1369,"x_min":94,"x_max":1283,"o":"m 590 761 q 788 683 714 761 q 863 474 863 606 l 863 0 l 617 0 l 617 403 q 582 503 617 467 q 489 540 547 540 q 388 500 428 539 q 342 397 349 461 l 342 0 l 94 0 l 94 751 l 342 751 l 342 629 q 445 728 382 694 q 590 761 508 761 m 897 -74 q 958 -83 933 -83 q 1014 -60 994 -83 q 1033 10 1033 -36 l 1033 751 l 1281 751 l 1281 -28 q 1209 -212 1281 -144 q 1015 -279 1138 -279 q 849 -250 928 -279 l 897 -74 m 1153 1097 q 1247 1060 1210 1097 q 1283 965 1283 1024 q 1247 871 1283 908 q 1153 833 1210 833 q 1059 871 1096 833 q 1022 965 1022 908 q 1059 1060 1022 1024 q 1153 1097 1096 1097 z "},"ṉ":{"ha":936,"x_min":94,"x_max":863,"o":"m 590 761 q 788 683 714 761 q 863 474 863 606 l 863 0 l 617 0 l 617 403 q 582 503 617 467 q 489 540 547 540 q 388 500 428 539 q 342 397 349 461 l 342 0 l 94 0 l 94 751 l 342 751 l 342 629 q 445 728 382 694 q 590 761 508 761 m 260 -107 l 689 -107 l 689 -253 l 260 -253 l 260 -107 z "},"ñ":{"ha":936,"x_min":94,"x_max":863,"o":"m 590 761 q 788 683 714 761 q 863 474 863 606 l 863 0 l 617 0 l 617 403 q 582 503 617 467 q 489 540 547 540 q 388 500 428 539 q 342 397 349 461 l 342 0 l 94 0 l 94 751 l 342 751 l 342 629 q 445 728 382 694 q 590 761 508 761 m 747 1050 q 715 886 747 942 q 613 831 683 831 q 551 841 579 831 q 486 871 524 851 q 428 893 447 893 q 389 835 389 893 l 249 835 q 281 999 249 943 q 385 1056 313 1056 q 446 1044 417 1056 q 510 1015 475 1033 q 568 993 551 993 q 608 1050 608 993 l 747 1050 z "},"o":{"ha":886,"x_min":33,"x_max":854,"o":"m 443 760 q 658 712 565 760 q 803 577 751 664 q 854 376 854 490 q 803 174 854 261 q 658 40 751 88 q 443 -8 565 -8 q 228 40 321 -8 q 84 174 135 88 q 33 376 33 261 q 84 577 33 490 q 228 712 135 664 q 443 760 321 760 m 443 560 q 326 508 371 560 q 282 374 282 457 q 326 238 282 289 q 443 186 371 186 q 561 238 517 186 q 606 374 606 289 q 560 508 606 457 q 443 560 515 560 z "},"ó":{"ha":886,"x_min":33,"x_max":854,"o":"m 443 760 q 658 712 565 760 q 803 577 751 664 q 854 376 854 490 q 803 174 854 261 q 658 40 751 88 q 443 -8 565 -8 q 228 40 321 -8 q 84 174 135 88 q 33 376 33 261 q 84 577 33 490 q 228 712 135 664 q 443 760 321 760 m 443 560 q 326 508 371 560 q 282 374 282 457 q 326 238 282 289 q 443 186 371 186 q 561 238 517 186 q 606 374 606 289 q 560 508 606 457 q 443 560 515 560 m 485 1069 l 689 992 l 488 832 l 318 846 l 485 1069 z "},"ŏ":{"ha":886,"x_min":33,"x_max":854,"o":"m 443 760 q 658 712 565 760 q 803 577 751 664 q 854 376 854 490 q 803 174 854 261 q 658 40 751 88 q 443 -8 565 -8 q 228 40 321 -8 q 84 174 135 88 q 33 376 33 261 q 84 577 33 490 q 228 712 135 664 q 443 760 321 760 m 443 560 q 326 508 371 560 q 282 374 282 457 q 326 238 282 289 q 443 186 371 186 q 561 238 517 186 q 606 374 606 289 q 560 508 606 457 q 443 560 515 560 m 367 1057 q 390 999 369 1021 q 443 978 411 978 q 495 999 474 978 q 519 1057 517 1021 l 672 1057 q 606 894 668 956 q 443 833 543 833 q 280 894 343 833 q 213 1057 217 956 l 367 1057 z "},"ô":{"ha":886,"x_min":33,"x_max":854,"o":"m 443 760 q 658 712 565 760 q 803 577 751 664 q 854 376 854 490 q 803 174 854 261 q 658 40 751 88 q 443 -8 565 -8 q 228 40 321 -8 q 84 174 135 88 q 33 376 33 261 q 84 577 33 490 q 228 712 135 664 q 443 760 321 760 m 443 560 q 326 508 371 560 q 282 374 282 457 q 326 238 282 289 q 443 186 371 186 q 561 238 517 186 q 606 374 606 289 q 560 508 606 457 q 443 560 515 560 m 703 847 l 525 847 l 443 940 l 360 847 l 182 847 l 333 1060 l 551 1060 l 703 847 z "},"ố":{"ha":886,"x_min":33,"x_max":854,"o":"m 443 760 q 658 712 565 760 q 803 577 751 664 q 854 376 854 490 q 803 174 854 261 q 658 40 751 88 q 443 -8 565 -8 q 228 40 321 -8 q 84 174 135 88 q 33 376 33 261 q 84 577 33 490 q 228 712 135 664 q 443 760 321 760 m 443 560 q 326 508 371 560 q 282 374 282 457 q 326 238 282 289 q 443 186 371 186 q 561 238 517 186 q 606 374 606 289 q 560 508 606 457 q 443 560 515 560 m 731 835 l 531 835 l 443 921 l 351 835 l 154 835 l 314 1006 l 569 1006 l 731 835 m 503 1268 l 671 1167 l 451 1049 l 304 1088 l 503 1268 z "},"ộ":{"ha":886,"x_min":33,"x_max":854,"o":"m 443 760 q 658 712 565 760 q 803 577 751 664 q 854 376 854 490 q 803 174 854 261 q 658 40 751 88 q 443 -8 565 -8 q 228 40 321 -8 q 84 174 135 88 q 33 376 33 261 q 84 577 33 490 q 228 712 135 664 q 443 760 321 760 m 443 560 q 326 508 371 560 q 282 374 282 457 q 326 238 282 289 q 443 186 371 186 q 561 238 517 186 q 606 374 606 289 q 560 508 606 457 q 443 560 515 560 m 440 -94 q 534 -131 497 -94 q 571 -226 571 -168 q 534 -321 571 -283 q 440 -358 497 -358 q 347 -321 383 -358 q 310 -226 310 -283 q 347 -131 310 -168 q 440 -94 383 -94 m 703 847 l 525 847 l 443 940 l 360 847 l 182 847 l 333 1060 l 551 1060 l 703 847 z "},"ồ":{"ha":886,"x_min":33,"x_max":854,"o":"m 443 760 q 658 712 565 760 q 803 577 751 664 q 854 376 854 490 q 803 174 854 261 q 658 40 751 88 q 443 -8 565 -8 q 228 40 321 -8 q 84 174 135 88 q 33 376 33 261 q 84 577 33 490 q 228 712 135 664 q 443 760 321 760 m 443 560 q 326 508 371 560 q 282 374 282 457 q 326 238 282 289 q 443 186 371 186 q 561 238 517 186 q 606 374 606 289 q 560 508 606 457 q 443 560 515 560 m 731 835 l 531 835 l 443 921 l 351 835 l 154 835 l 314 1006 l 569 1006 l 731 835 m 367 1268 l 564 1088 l 418 1049 l 199 1167 l 367 1268 z "},"ổ":{"ha":886,"x_min":33,"x_max":854,"o":"m 443 760 q 658 712 565 760 q 803 577 751 664 q 854 376 854 490 q 803 174 854 261 q 658 40 751 88 q 443 -8 565 -8 q 228 40 321 -8 q 84 174 135 88 q 33 376 33 261 q 84 577 33 490 q 228 712 135 664 q 443 760 321 760 m 443 560 q 326 508 371 560 q 282 374 282 457 q 326 238 282 289 q 443 186 371 186 q 561 238 517 186 q 606 374 606 289 q 560 508 606 457 q 443 560 515 560 m 731 835 l 531 835 l 443 921 l 351 835 l 154 835 l 314 1006 l 569 1006 l 731 835 m 439 1289 q 537 1260 503 1289 q 571 1189 571 1231 q 545 1116 571 1150 q 468 1046 519 1082 l 368 1085 q 419 1147 419 1121 q 411 1165 419 1158 q 389 1171 403 1171 q 347 1157 363 1171 l 288 1243 q 439 1289 364 1289 z "},"ỗ":{"ha":886,"x_min":33,"x_max":854,"o":"m 443 760 q 658 712 565 760 q 803 577 751 664 q 854 376 854 490 q 803 174 854 261 q 658 40 751 88 q 443 -8 565 -8 q 228 40 321 -8 q 84 174 135 88 q 33 376 33 261 q 84 577 33 490 q 228 712 135 664 q 443 760 321 760 m 443 560 q 326 508 371 560 q 282 374 282 457 q 326 238 282 289 q 443 186 371 186 q 561 238 517 186 q 606 374 606 289 q 560 508 606 457 q 443 560 515 560 m 731 835 l 531 835 l 443 921 l 351 835 l 154 835 l 314 1006 l 569 1006 l 731 835 m 689 1238 q 657 1098 689 1144 q 556 1051 625 1051 q 490 1061 521 1051 q 421 1088 458 1071 q 353 1110 374 1110 q 320 1096 329 1110 q 311 1054 311 1082 l 193 1054 q 224 1194 193 1146 q 326 1242 256 1242 q 394 1232 361 1242 q 464 1206 426 1222 q 490 1194 468 1204 q 529 1185 513 1185 q 561 1198 551 1185 q 572 1238 571 1211 l 689 1238 z "},"ȍ":{"ha":886,"x_min":33,"x_max":854,"o":"m 443 760 q 658 712 565 760 q 803 577 751 664 q 854 376 854 490 q 803 174 854 261 q 658 40 751 88 q 443 -8 565 -8 q 228 40 321 -8 q 84 174 135 88 q 33 376 33 261 q 84 577 33 490 q 228 712 135 664 q 443 760 321 760 m 443 560 q 326 508 371 560 q 282 374 282 457 q 326 238 282 289 q 443 186 371 186 q 561 238 517 186 q 606 374 606 289 q 560 508 606 457 q 443 560 515 560 m 304 1074 l 415 844 l 242 832 l 117 1004 l 304 1074 m 578 1074 l 689 844 l 515 832 l 390 1004 l 578 1074 z "},"ö":{"ha":886,"x_min":33,"x_max":854,"o":"m 443 760 q 658 712 565 760 q 803 577 751 664 q 854 376 854 490 q 803 174 854 261 q 658 40 751 88 q 443 -8 565 -8 q 228 40 321 -8 q 84 174 135 88 q 33 376 33 261 q 84 577 33 490 q 228 712 135 664 q 443 760 321 760 m 443 560 q 326 508 371 560 q 282 374 282 457 q 326 238 282 289 q 443 186 371 186 q 561 238 517 186 q 606 374 606 289 q 560 508 606 457 q 443 560 515 560 m 310 1064 q 385 1033 356 1064 q 415 956 415 1003 q 385 880 415 910 q 310 850 356 850 q 234 880 264 850 q 204 956 204 910 q 234 1033 204 1003 q 310 1064 264 1064 m 576 1064 q 652 1033 622 1064 q 682 956 682 1003 q 652 880 682 910 q 576 850 622 850 q 500 880 529 850 q 471 956 471 910 q 500 1034 471 1004 q 576 1064 529 1064 z "},"ȫ":{"ha":886,"x_min":33,"x_max":854,"o":"m 443 760 q 658 712 565 760 q 803 577 751 664 q 854 376 854 490 q 803 174 854 261 q 658 40 751 88 q 443 -8 565 -8 q 228 40 321 -8 q 84 174 135 88 q 33 376 33 261 q 84 577 33 490 q 228 712 135 664 q 443 760 321 760 m 443 560 q 326 508 371 560 q 282 374 282 457 q 326 238 282 289 q 443 186 371 186 q 561 238 517 186 q 606 374 606 289 q 560 508 606 457 q 443 560 515 560 m 307 1047 q 382 1017 353 1047 q 411 940 411 988 q 382 865 411 894 q 307 835 353 835 q 232 865 261 835 q 203 940 203 894 q 232 1017 203 988 q 307 1047 261 1047 m 578 1047 q 653 1017 624 1047 q 682 940 682 988 q 653 865 682 894 q 578 835 624 835 q 502 865 532 835 q 472 940 472 894 q 502 1017 472 988 q 578 1047 532 1047 m 239 1239 l 644 1239 l 644 1100 l 239 1100 l 239 1239 z "},"ȱ":{"ha":886,"x_min":33,"x_max":854,"o":"m 443 760 q 658 712 565 760 q 803 577 751 664 q 854 376 854 490 q 803 174 854 261 q 658 40 751 88 q 443 -8 565 -8 q 228 40 321 -8 q 84 174 135 88 q 33 376 33 261 q 84 577 33 490 q 228 712 135 664 q 443 760 321 760 m 443 560 q 326 508 371 560 q 282 374 282 457 q 326 238 282 289 q 443 186 371 186 q 561 238 517 186 q 606 374 606 289 q 560 508 606 457 q 443 560 515 560 m 442 1063 q 524 1031 492 1063 q 556 947 556 999 q 524 866 556 899 q 442 833 492 833 q 360 866 393 833 q 328 947 328 899 q 360 1031 328 999 q 442 1063 392 1063 m 239 1239 l 644 1239 l 644 1100 l 239 1100 l 239 1239 z "},"ọ":{"ha":886,"x_min":33,"x_max":854,"o":"m 443 760 q 658 712 565 760 q 803 577 751 664 q 854 376 854 490 q 803 174 854 261 q 658 40 751 88 q 443 -8 565 -8 q 228 40 321 -8 q 84 174 135 88 q 33 376 33 261 q 84 577 33 490 q 228 712 135 664 q 443 760 321 760 m 443 560 q 326 508 371 560 q 282 374 282 457 q 326 238 282 289 q 443 186 371 186 q 561 238 517 186 q 606 374 606 289 q 560 508 606 457 q 443 560 515 560 m 440 -94 q 534 -131 497 -94 q 571 -226 571 -168 q 534 -321 571 -283 q 440 -358 497 -358 q 347 -321 383 -358 q 310 -226 310 -283 q 347 -131 310 -168 q 440 -94 383 -94 z "},"ò":{"ha":886,"x_min":33,"x_max":854,"o":"m 443 760 q 658 712 565 760 q 803 577 751 664 q 854 376 854 490 q 803 174 854 261 q 658 40 751 88 q 443 -8 565 -8 q 228 40 321 -8 q 84 174 135 88 q 33 376 33 261 q 84 577 33 490 q 228 712 135 664 q 443 760 321 760 m 443 560 q 326 508 371 560 q 282 374 282 457 q 326 238 282 289 q 443 186 371 186 q 561 238 517 186 q 606 374 606 289 q 560 508 606 457 q 443 560 515 560 m 408 1069 l 556 846 l 385 832 l 203 992 l 408 1069 z "},"ỏ":{"ha":886,"x_min":33,"x_max":854,"o":"m 443 760 q 658 712 565 760 q 803 577 751 664 q 854 376 854 490 q 803 174 854 261 q 658 40 751 88 q 443 -8 565 -8 q 228 40 321 -8 q 84 174 135 88 q 33 376 33 261 q 84 577 33 490 q 228 712 135 664 q 443 760 321 760 m 443 560 q 326 508 371 560 q 282 374 282 457 q 326 238 282 289 q 443 186 371 186 q 561 238 517 186 q 606 374 606 289 q 560 508 606 457 q 443 560 515 560 m 451 1133 q 565 1098 524 1133 q 607 1003 607 1063 q 576 904 607 954 q 488 810 544 854 l 378 856 q 423 909 407 881 q 439 961 439 938 q 428 988 439 978 q 400 999 417 999 q 349 979 372 999 l 285 1081 q 451 1133 365 1133 z "},"ơ":{"ha":943,"x_min":33,"x_max":965,"o":"m 926 958 q 965 808 965 881 q 920 671 965 729 q 794 590 875 613 q 854 376 854 499 q 803 174 854 261 q 658 40 751 88 q 443 -8 565 -8 q 228 40 321 -8 q 84 174 135 88 q 33 376 33 261 q 84 577 33 490 q 228 712 135 664 q 443 760 321 760 q 638 722 547 760 l 640 721 l 647 718 q 690 710 665 710 q 751 736 729 710 q 774 801 774 763 q 743 892 774 849 l 926 958 m 443 186 q 561 238 517 186 q 606 374 606 289 q 560 508 606 457 q 443 560 515 560 q 326 508 371 560 q 282 374 282 457 q 326 238 282 289 q 443 186 371 186 z "},"ớ":{"ha":943,"x_min":33,"x_max":965,"o":"m 926 958 q 965 808 965 881 q 920 671 965 729 q 794 590 875 613 q 854 376 854 499 q 803 174 854 261 q 658 40 751 88 q 443 -8 565 -8 q 228 40 321 -8 q 84 174 135 88 q 33 376 33 261 q 84 577 33 490 q 228 712 135 664 q 443 760 321 760 q 638 722 547 760 l 640 721 l 647 718 q 690 710 665 710 q 751 736 729 710 q 774 801 774 763 q 743 892 774 849 l 926 958 m 443 186 q 561 238 517 186 q 606 374 606 289 q 560 508 606 457 q 443 560 515 560 q 326 508 371 560 q 282 374 282 457 q 326 238 282 289 q 443 186 371 186 m 486 1069 l 690 992 l 489 832 l 319 846 l 486 1069 z "},"ợ":{"ha":944,"x_min":33,"x_max":965,"o":"m 926 958 q 965 808 965 881 q 920 671 965 729 q 794 590 875 613 q 854 376 854 499 q 803 174 854 261 q 658 40 751 88 q 443 -8 565 -8 q 228 40 321 -8 q 84 174 135 88 q 33 376 33 261 q 84 577 33 490 q 228 712 135 664 q 443 760 321 760 q 638 722 547 760 l 640 721 l 647 718 q 690 710 665 710 q 751 736 729 710 q 774 801 774 763 q 743 892 774 849 l 926 958 m 443 186 q 561 238 517 186 q 606 374 606 289 q 560 508 606 457 q 443 560 515 560 q 326 508 371 560 q 282 374 282 457 q 326 238 282 289 q 443 186 371 186 m 442 -94 q 535 -131 499 -94 q 572 -226 572 -168 q 535 -321 572 -283 q 442 -358 499 -358 q 348 -321 385 -358 q 311 -226 311 -283 q 348 -131 311 -168 q 442 -94 385 -94 z "},"ờ":{"ha":943,"x_min":33,"x_max":965,"o":"m 926 958 q 965 808 965 881 q 920 671 965 729 q 794 590 875 613 q 854 376 854 499 q 803 174 854 261 q 658 40 751 88 q 443 -8 565 -8 q 228 40 321 -8 q 84 174 135 88 q 33 376 33 261 q 84 577 33 490 q 228 712 135 664 q 443 760 321 760 q 638 722 547 760 l 640 721 l 647 718 q 690 710 665 710 q 751 736 729 710 q 774 801 774 763 q 743 892 774 849 l 926 958 m 443 186 q 561 238 517 186 q 606 374 606 289 q 560 508 606 457 q 443 560 515 560 q 326 508 371 560 q 282 374 282 457 q 326 238 282 289 q 443 186 371 186 m 410 1069 l 557 846 l 386 832 l 204 992 l 410 1069 z "},"ở":{"ha":943,"x_min":33,"x_max":965,"o":"m 926 958 q 965 808 965 881 q 920 671 965 729 q 794 590 875 613 q 854 376 854 499 q 803 174 854 261 q 658 40 751 88 q 443 -8 565 -8 q 228 40 321 -8 q 84 174 135 88 q 33 376 33 261 q 84 577 33 490 q 228 712 135 664 q 443 760 321 760 q 638 722 547 760 l 640 721 l 647 718 q 690 710 665 710 q 751 736 729 710 q 774 801 774 763 q 743 892 774 849 l 926 958 m 443 186 q 561 238 517 186 q 606 374 606 289 q 560 508 606 457 q 443 560 515 560 q 326 508 371 560 q 282 374 282 457 q 326 238 282 289 q 443 186 371 186 m 451 1133 q 565 1098 524 1133 q 607 1003 607 1063 q 576 904 607 954 q 488 810 544 854 l 378 856 q 423 909 407 881 q 439 961 439 938 q 428 988 439 978 q 400 999 417 999 q 349 979 372 999 l 285 1081 q 451 1133 365 1133 z "},"ỡ":{"ha":943,"x_min":33,"x_max":965,"o":"m 926 958 q 965 808 965 881 q 920 671 965 729 q 794 590 875 613 q 854 376 854 499 q 803 174 854 261 q 658 40 751 88 q 443 -8 565 -8 q 228 40 321 -8 q 84 174 135 88 q 33 376 33 261 q 84 577 33 490 q 228 712 135 664 q 443 760 321 760 q 638 722 547 760 l 640 721 l 647 718 q 690 710 665 710 q 751 736 729 710 q 774 801 774 763 q 743 892 774 849 l 926 958 m 443 186 q 561 238 517 186 q 606 374 606 289 q 560 508 606 457 q 443 560 515 560 q 326 508 371 560 q 282 374 282 457 q 326 238 282 289 q 443 186 371 186 m 699 1050 q 667 886 699 942 q 564 831 635 831 q 503 841 531 831 q 438 871 475 851 q 379 893 399 893 q 340 835 340 893 l 200 835 q 232 999 200 943 q 336 1056 264 1056 q 397 1044 368 1056 q 461 1015 426 1033 q 519 993 503 993 q 560 1050 560 993 l 699 1050 z "},"ő":{"ha":886,"x_min":33,"x_max":854,"o":"m 443 760 q 658 712 565 760 q 803 577 751 664 q 854 376 854 490 q 803 174 854 261 q 658 40 751 88 q 443 -8 565 -8 q 228 40 321 -8 q 84 174 135 88 q 33 376 33 261 q 84 577 33 490 q 228 712 135 664 q 443 760 321 760 m 443 560 q 326 508 371 560 q 282 374 282 457 q 326 238 282 289 q 443 186 371 186 q 561 238 517 186 q 606 374 606 289 q 560 508 606 457 q 443 560 515 560 m 310 1074 l 497 1004 l 372 832 l 199 844 l 310 1074 m 583 1074 l 771 1004 l 646 832 l 472 844 l 583 1074 z "},"ȏ":{"ha":886,"x_min":33,"x_max":854,"o":"m 443 760 q 658 712 565 760 q 803 577 751 664 q 854 376 854 490 q 803 174 854 261 q 658 40 751 88 q 443 -8 565 -8 q 228 40 321 -8 q 84 174 135 88 q 33 376 33 261 q 84 577 33 490 q 228 712 135 664 q 443 760 321 760 m 443 560 q 326 508 371 560 q 282 374 282 457 q 326 238 282 289 q 443 186 371 186 q 561 238 517 186 q 606 374 606 289 q 560 508 606 457 q 443 560 515 560 m 213 833 q 280 996 217 935 q 443 1057 343 1057 q 605 996 542 1057 q 672 833 668 935 l 519 833 q 495 891 517 869 q 443 913 474 913 q 390 891 411 913 q 367 833 369 869 l 213 833 z "},"ō":{"ha":886,"x_min":33,"x_max":854,"o":"m 443 760 q 658 712 565 760 q 803 577 751 664 q 854 376 854 490 q 803 174 854 261 q 658 40 751 88 q 443 -8 565 -8 q 228 40 321 -8 q 84 174 135 88 q 33 376 33 261 q 84 577 33 490 q 228 712 135 664 q 443 760 321 760 m 443 560 q 326 508 371 560 q 282 374 282 457 q 326 238 282 289 q 443 186 371 186 q 561 238 517 186 q 606 374 606 289 q 560 508 606 457 q 443 560 515 560 m 228 1033 l 657 1033 l 657 888 l 228 888 l 228 1033 z "},"ṓ":{"ha":886,"x_min":33,"x_max":854,"o":"m 443 760 q 658 712 565 760 q 803 577 751 664 q 854 376 854 490 q 803 174 854 261 q 658 40 751 88 q 443 -8 565 -8 q 228 40 321 -8 q 84 174 135 88 q 33 376 33 261 q 84 577 33 490 q 228 712 135 664 q 443 760 321 760 m 443 560 q 326 508 371 560 q 282 374 282 457 q 326 238 282 289 q 443 186 371 186 q 561 238 517 186 q 606 374 606 289 q 560 508 606 457 q 443 560 515 560 m 214 974 l 619 974 l 619 835 l 214 835 l 214 974 m 478 1254 l 646 1153 l 426 1035 l 279 1074 l 478 1254 z "},"ṑ":{"ha":886,"x_min":33,"x_max":854,"o":"m 443 760 q 658 712 565 760 q 803 577 751 664 q 854 376 854 490 q 803 174 854 261 q 658 40 751 88 q 443 -8 565 -8 q 228 40 321 -8 q 84 174 135 88 q 33 376 33 261 q 84 577 33 490 q 228 712 135 664 q 443 760 321 760 m 443 560 q 326 508 371 560 q 282 374 282 457 q 326 238 282 289 q 443 186 371 186 q 561 238 517 186 q 606 374 606 289 q 560 508 606 457 q 443 560 515 560 m 214 974 l 619 974 l 619 835 l 214 835 l 214 974 m 342 1254 l 539 1074 l 393 1035 l 174 1153 l 342 1254 z "},"ǫ":{"ha":886,"x_min":33,"x_max":854,"o":"m 719 78 q 633 -28 665 29 q 600 -129 600 -86 q 631 -172 600 -172 q 671 -161 651 -172 l 711 -293 q 579 -324 640 -324 q 465 -285 508 -324 q 421 -174 421 -247 q 494 -6 421 -87 q 443 -8 461 -8 q 228 40 321 -8 q 84 174 135 88 q 33 376 33 261 q 84 577 33 490 q 228 712 135 664 q 443 760 321 760 q 658 712 565 760 q 803 577 751 664 q 854 376 854 490 q 819 206 854 282 q 719 78 785 129 m 282 374 q 326 238 282 289 q 443 186 371 186 q 561 238 517 186 q 606 374 606 289 q 560 508 606 457 q 443 560 515 560 q 326 508 371 560 q 282 374 282 457 z "},"ø":{"ha":886,"x_min":33,"x_max":854,"o":"m 711 679 q 817 551 779 629 q 854 376 854 474 q 803 174 854 261 q 658 40 751 88 q 443 -8 565 -8 q 265 22 346 -8 l 168 -119 l 50 -119 l 179 69 q 71 199 108 119 q 33 376 33 278 q 84 577 33 490 q 228 712 135 664 q 443 760 321 760 q 626 726 544 760 l 724 871 l 842 871 l 711 679 m 265 374 q 299 246 265 296 l 515 565 q 443 581 482 581 q 315 524 364 581 q 265 374 265 467 m 443 165 q 572 223 522 165 q 621 374 621 281 q 589 500 621 447 l 372 179 q 443 165 407 165 z "},"ǿ":{"ha":886,"x_min":33,"x_max":854,"o":"m 711 679 q 817 551 779 629 q 854 376 854 474 q 803 174 854 261 q 658 40 751 88 q 443 -8 565 -8 q 265 22 346 -8 l 168 -119 l 50 -119 l 179 69 q 71 199 108 119 q 33 376 33 278 q 84 577 33 490 q 228 712 135 664 q 443 760 321 760 q 626 726 544 760 l 724 871 l 842 871 l 711 679 m 265 374 q 299 246 265 296 l 515 565 q 443 581 482 581 q 315 524 364 581 q 265 374 265 467 m 443 165 q 572 223 522 165 q 621 374 621 281 q 589 500 621 447 l 372 179 q 443 165 407 165 m 501 1069 l 706 992 l 504 832 l 335 846 l 501 1069 z "},"õ":{"ha":886,"x_min":33,"x_max":854,"o":"m 443 760 q 658 712 565 760 q 803 577 751 664 q 854 376 854 490 q 803 174 854 261 q 658 40 751 88 q 443 -8 565 -8 q 228 40 321 -8 q 84 174 135 88 q 33 376 33 261 q 84 577 33 490 q 228 712 135 664 q 443 760 321 760 m 443 560 q 326 508 371 560 q 282 374 282 457 q 326 238 282 289 q 443 186 371 186 q 561 238 517 186 q 606 374 606 289 q 560 508 606 457 q 443 560 515 560 m 699 1050 q 667 886 699 942 q 564 831 635 831 q 503 841 531 831 q 438 871 475 851 q 379 893 399 893 q 340 835 340 893 l 200 835 q 232 999 200 943 q 336 1056 264 1056 q 397 1044 368 1056 q 461 1015 426 1033 q 519 993 503 993 q 560 1050 560 993 l 699 1050 z "},"ṍ":{"ha":886,"x_min":33,"x_max":854,"o":"m 443 760 q 658 712 565 760 q 803 577 751 664 q 854 376 854 490 q 803 174 854 261 q 658 40 751 88 q 443 -8 565 -8 q 228 40 321 -8 q 84 174 135 88 q 33 376 33 261 q 84 577 33 490 q 228 712 135 664 q 443 760 321 760 m 443 560 q 326 508 371 560 q 282 374 282 457 q 326 238 282 289 q 443 186 371 186 q 561 238 517 186 q 606 374 606 289 q 560 508 606 457 q 443 560 515 560 m 690 1018 q 658 878 690 925 q 557 832 626 832 q 491 842 522 832 q 422 868 460 851 q 354 890 375 890 q 322 876 331 890 q 313 835 313 863 l 194 835 q 226 974 194 926 q 328 1022 257 1022 q 395 1013 363 1022 q 465 986 428 1003 q 492 975 469 985 q 531 965 514 965 q 563 978 553 965 q 574 1018 572 992 l 690 1018 m 504 1294 l 672 1193 l 453 1075 l 306 1114 l 504 1294 z "},"ṏ":{"ha":886,"x_min":33,"x_max":854,"o":"m 443 760 q 658 712 565 760 q 803 577 751 664 q 854 376 854 490 q 803 174 854 261 q 658 40 751 88 q 443 -8 565 -8 q 228 40 321 -8 q 84 174 135 88 q 33 376 33 261 q 84 577 33 490 q 228 712 135 664 q 443 760 321 760 m 443 560 q 326 508 371 560 q 282 374 282 457 q 326 238 282 289 q 443 186 371 186 q 561 238 517 186 q 606 374 606 289 q 560 508 606 457 q 443 560 515 560 m 669 1018 q 638 878 669 925 q 536 832 606 832 q 470 842 501 832 q 401 868 439 851 q 333 890 354 890 q 301 876 310 890 q 292 835 292 863 l 174 835 q 205 974 174 926 q 307 1022 236 1022 q 374 1013 342 1022 q 444 986 407 1003 q 471 975 449 985 q 510 965 493 965 q 542 978 532 965 q 553 1018 551 992 l 669 1018 m 288 1286 q 363 1256 333 1286 q 392 1179 392 1226 q 363 1103 392 1133 q 288 1074 333 1074 q 213 1103 242 1074 q 183 1179 183 1133 q 213 1256 183 1226 q 288 1286 242 1286 m 558 1286 q 633 1256 604 1286 q 663 1179 663 1226 q 633 1103 663 1133 q 558 1074 604 1074 q 483 1103 513 1074 q 453 1179 453 1133 q 483 1256 453 1226 q 558 1286 513 1286 z "},"ȭ":{"ha":886,"x_min":33,"x_max":854,"o":"m 443 760 q 658 712 565 760 q 803 577 751 664 q 854 376 854 490 q 803 174 854 261 q 658 40 751 88 q 443 -8 565 -8 q 228 40 321 -8 q 84 174 135 88 q 33 376 33 261 q 84 577 33 490 q 228 712 135 664 q 443 760 321 760 m 443 560 q 326 508 371 560 q 282 374 282 457 q 326 238 282 289 q 443 186 371 186 q 561 238 517 186 q 606 374 606 289 q 560 508 606 457 q 443 560 515 560 m 690 1018 q 658 878 690 925 q 557 832 626 832 q 491 842 522 832 q 422 868 460 851 q 354 890 375 890 q 322 876 331 890 q 313 835 313 863 l 194 835 q 226 974 194 926 q 328 1022 257 1022 q 395 1013 363 1022 q 465 986 428 1003 q 492 975 469 985 q 531 965 514 965 q 563 978 553 965 q 574 1018 572 992 l 690 1018 m 240 1214 l 646 1214 l 646 1075 l 240 1075 l 240 1214 z "},"œ":{"ha":1413,"x_min":33,"x_max":1385,"o":"m 989 760 q 1204 706 1114 760 q 1340 552 1294 651 q 1379 321 1385 453 l 840 321 q 903 215 857 253 q 1017 178 950 178 q 1197 254 1117 178 l 1326 125 q 996 -8 1204 -8 q 835 24 904 -8 q 722 115 765 56 q 606 24 676 56 q 443 -8 535 -8 q 228 40 321 -8 q 84 174 135 88 q 33 376 33 261 q 84 577 33 490 q 228 712 135 664 q 443 760 321 760 q 606 728 535 760 q 724 635 676 696 q 835 727 768 694 q 989 760 903 760 m 1132 440 q 1094 548 1133 506 q 992 590 1054 590 q 891 549 932 590 q 838 440 850 508 l 1132 440 m 443 186 q 560 238 515 186 q 606 372 606 289 q 561 508 606 457 q 443 560 517 560 q 326 508 371 560 q 282 372 282 457 q 326 238 282 289 q 443 186 371 186 z "},"p":{"ha":953,"x_min":101,"x_max":919,"o":"m 569 760 q 753 712 674 760 q 876 576 832 664 q 919 372 919 488 q 877 172 919 258 q 756 39 835 86 q 575 -8 678 -8 q 447 19 504 -8 q 349 97 389 46 l 349 -269 l 101 -269 l 101 751 l 349 751 l 349 654 q 569 760 431 760 m 508 192 q 626 243 581 192 q 671 378 671 294 q 626 513 671 461 q 508 565 581 565 q 393 513 438 565 q 349 378 349 461 q 393 243 349 294 q 508 192 438 192 z "},"þ":{"ha":953,"x_min":101,"x_max":919,"o":"m 349 654 q 442 733 386 706 q 569 760 499 760 q 753 712 674 760 q 876 576 832 664 q 919 372 919 488 q 877 172 919 258 q 756 39 835 86 q 575 -8 678 -8 q 445 19 503 -8 q 349 97 388 46 l 349 -269 l 101 -269 l 101 1031 l 349 1031 l 349 654 m 508 565 q 393 513 438 565 q 349 378 349 461 q 393 243 349 294 q 508 192 438 192 q 626 243 581 192 q 671 378 671 294 q 626 513 671 461 q 508 565 581 565 z "},"q":{"ha":954,"x_min":33,"x_max":853,"o":"m 853 751 l 853 -269 l 606 -269 l 606 97 q 510 17 567 44 q 383 -10 454 -10 q 200 39 279 -10 q 77 176 121 88 q 33 379 33 264 q 76 579 33 493 q 197 713 119 665 q 378 760 275 760 q 508 732 450 760 q 606 653 565 704 l 606 751 l 853 751 m 444 185 q 561 237 517 185 q 606 372 606 289 q 561 508 606 457 q 444 560 517 560 q 327 508 372 560 q 282 372 282 456 q 327 237 282 289 q 444 185 372 185 z "},"r":{"ha":597,"x_min":94,"x_max":583,"o":"m 342 626 q 442 726 381 692 q 583 761 504 761 l 583 535 q 546 536 571 536 q 404 495 458 536 q 342 383 350 454 l 342 0 l 94 0 l 94 751 l 342 751 l 342 626 z "},"ŕ":{"ha":597,"x_min":94,"x_max":583,"o":"m 342 626 q 442 726 381 692 q 583 761 504 761 l 583 535 q 546 536 571 536 q 404 495 458 536 q 342 383 350 454 l 342 0 l 94 0 l 94 751 l 342 751 l 342 626 m 378 1069 l 582 992 l 381 832 l 211 846 l 378 1069 z "},"ř":{"ha":597,"x_min":75,"x_max":596,"o":"m 342 626 q 442 726 381 692 q 583 761 504 761 l 583 535 q 546 536 571 536 q 404 495 458 536 q 342 383 350 454 l 342 0 l 94 0 l 94 751 l 342 751 l 342 626 m 418 1060 l 596 1060 l 444 847 l 226 847 l 75 1060 l 253 1060 l 335 967 l 418 1060 z "},"ŗ":{"ha":597,"x_min":69,"x_max":583,"o":"m 342 626 q 442 726 381 692 q 583 761 504 761 l 583 535 q 546 536 571 536 q 404 495 458 536 q 342 383 350 454 l 342 0 l 94 0 l 94 751 l 342 751 l 342 626 m 114 -83 l 315 -83 l 213 -325 l 69 -325 l 114 -83 z "},"ȑ":{"ha":597,"x_min":10,"x_max":583,"o":"m 342 626 q 442 726 381 692 q 583 761 504 761 l 583 535 q 546 536 571 536 q 404 495 458 536 q 342 383 350 454 l 342 0 l 94 0 l 94 751 l 342 751 l 342 626 m 197 1074 l 308 844 l 135 832 l 10 1004 l 197 1074 m 471 1074 l 582 844 l 408 832 l 283 1004 l 471 1074 z "},"ṛ":{"ha":597,"x_min":83,"x_max":583,"o":"m 342 626 q 442 726 381 692 q 583 761 504 761 l 583 535 q 546 536 571 536 q 404 495 458 536 q 342 383 350 454 l 342 0 l 94 0 l 94 751 l 342 751 l 342 626 m 214 -94 q 308 -131 271 -94 q 344 -226 344 -168 q 308 -321 344 -283 q 214 -358 271 -358 q 120 -321 157 -358 q 83 -226 83 -283 q 120 -131 83 -168 q 214 -94 157 -94 z "},"ȓ":{"ha":597,"x_min":94,"x_max":583,"o":"m 342 626 q 442 726 381 692 q 583 761 504 761 l 583 535 q 546 536 571 536 q 404 495 458 536 q 342 383 350 454 l 342 0 l 94 0 l 94 751 l 342 751 l 342 626 m 106 833 q 173 996 110 935 q 336 1057 236 1057 q 498 996 435 1057 q 565 833 561 935 l 413 833 q 388 891 410 869 q 336 913 367 913 q 283 891 304 913 q 260 833 263 869 l 106 833 z "},"ṟ":{"ha":597,"x_min":1,"x_max":583,"o":"m 342 626 q 442 726 381 692 q 583 761 504 761 l 583 535 q 546 536 571 536 q 404 495 458 536 q 342 383 350 454 l 342 0 l 94 0 l 94 751 l 342 751 l 342 626 m 1 -107 l 431 -107 l 431 -253 l 1 -253 l 1 -107 z "},"s":{"ha":718,"x_min":22,"x_max":679,"o":"m 596 514 q 357 590 450 590 q 306 578 325 590 q 286 543 286 567 q 317 503 286 518 q 414 469 347 488 q 548 423 494 446 q 640 353 601 400 q 679 232 679 307 q 591 53 679 118 q 361 -11 503 -11 q 178 16 265 -11 q 22 96 90 43 l 100 256 q 234 187 164 211 q 367 163 304 163 q 424 174 403 163 q 446 208 446 186 q 415 251 446 236 q 317 285 383 267 q 186 331 238 308 q 97 400 135 354 q 58 519 58 446 q 144 698 58 633 q 367 763 231 763 q 528 740 449 763 q 679 675 608 718 l 596 514 z "},"ś":{"ha":718,"x_min":22,"x_max":679,"o":"m 596 514 q 357 590 450 590 q 306 578 325 590 q 286 543 286 567 q 317 503 286 518 q 414 469 347 488 q 548 423 494 446 q 640 353 601 400 q 679 232 679 307 q 591 53 679 118 q 361 -11 503 -11 q 178 16 265 -11 q 22 96 90 43 l 100 256 q 234 187 164 211 q 367 163 304 163 q 424 174 403 163 q 446 208 446 186 q 415 251 446 236 q 317 285 383 267 q 186 331 238 308 q 97 400 135 354 q 58 519 58 446 q 144 698 58 633 q 367 763 231 763 q 528 740 449 763 q 679 675 608 718 l 596 514 m 414 1069 l 618 992 l 417 832 l 247 846 l 414 1069 z "},"ṥ":{"ha":718,"x_min":22,"x_max":679,"o":"m 596 514 q 357 590 450 590 q 306 578 325 590 q 286 543 286 567 q 317 503 286 518 q 414 469 347 488 q 548 423 494 446 q 640 353 601 400 q 679 232 679 307 q 591 53 679 118 q 361 -11 503 -11 q 178 16 265 -11 q 22 96 90 43 l 100 256 q 234 187 164 211 q 367 163 304 163 q 424 174 403 163 q 446 208 446 186 q 415 251 446 236 q 317 285 383 267 q 186 331 238 308 q 97 400 135 354 q 58 519 58 446 q 144 698 58 633 q 367 763 231 763 q 528 740 449 763 q 679 675 608 718 l 596 514 m 388 1054 l 556 953 l 336 835 l 189 874 l 388 1054 m 372 1319 q 454 1288 422 1319 q 486 1204 486 1256 q 454 1123 486 1156 q 372 1090 422 1090 q 291 1123 324 1090 q 258 1204 258 1156 q 290 1288 258 1256 q 372 1319 322 1319 z "},"ꞌ":{"ha":422,"x_min":89,"x_max":335,"o":"m 89 953 l 335 953 l 301 414 l 89 414 l 89 953 z "},"š":{"ha":718,"x_min":22,"x_max":679,"o":"m 596 514 q 357 590 450 590 q 306 578 325 590 q 286 543 286 567 q 317 503 286 518 q 414 469 347 488 q 548 423 494 446 q 640 353 601 400 q 679 232 679 307 q 591 53 679 118 q 361 -11 503 -11 q 178 16 265 -11 q 22 96 90 43 l 100 256 q 234 187 164 211 q 367 163 304 163 q 424 174 403 163 q 446 208 446 186 q 415 251 446 236 q 317 285 383 267 q 186 331 238 308 q 97 400 135 354 q 58 519 58 446 q 144 698 58 633 q 367 763 231 763 q 528 740 449 763 q 679 675 608 718 l 596 514 m 454 1060 l 632 1060 l 481 847 l 263 847 l 111 1060 l 289 1060 l 371 967 l 454 1060 z "},"ṧ":{"ha":718,"x_min":22,"x_max":679,"o":"m 596 514 q 357 590 450 590 q 306 578 325 590 q 286 543 286 567 q 317 503 286 518 q 414 469 347 488 q 548 423 494 446 q 640 353 601 400 q 679 232 679 307 q 591 53 679 118 q 361 -11 503 -11 q 178 16 265 -11 q 22 96 90 43 l 100 256 q 234 187 164 211 q 367 163 304 163 q 424 174 403 163 q 446 208 446 186 q 415 251 446 236 q 317 285 383 267 q 186 331 238 308 q 97 400 135 354 q 58 519 58 446 q 144 698 58 633 q 367 763 231 763 q 528 740 449 763 q 679 675 608 718 l 596 514 m 476 1007 l 674 1007 l 514 836 l 258 836 l 97 1007 l 297 1007 l 385 921 l 476 1007 m 385 1294 q 467 1263 435 1294 q 499 1179 499 1231 q 467 1098 499 1131 q 385 1065 435 1065 q 303 1098 336 1065 q 271 1179 271 1131 q 303 1263 271 1231 q 385 1294 335 1294 z "},"ş":{"ha":718,"x_min":22,"x_max":679,"o":"m 286 543 q 317 503 286 518 q 414 469 347 488 q 548 423 494 446 q 640 353 601 400 q 679 232 679 307 q 613 73 679 135 q 435 -6 547 11 l 410 -78 q 496 -120 468 -90 q 524 -190 524 -150 q 473 -291 524 -257 q 346 -325 422 -325 q 193 -297 269 -325 l 232 -186 q 303 -199 263 -199 q 343 -190 328 -199 q 358 -168 358 -182 q 338 -144 358 -153 q 285 -136 317 -136 l 251 -136 l 293 -7 q 22 96 135 8 l 100 256 q 234 187 164 211 q 367 163 304 163 q 424 174 403 163 q 446 208 446 186 q 415 251 446 236 q 317 285 383 267 q 186 331 238 308 q 97 400 135 354 q 58 519 58 446 q 144 698 58 633 q 367 763 231 763 q 528 740 449 763 q 679 675 608 718 l 596 514 q 357 590 450 590 q 306 578 325 590 q 286 543 286 567 z "},"ŝ":{"ha":718,"x_min":22,"x_max":679,"o":"m 596 514 q 357 590 450 590 q 306 578 325 590 q 286 543 286 567 q 317 503 286 518 q 414 469 347 488 q 548 423 494 446 q 640 353 601 400 q 679 232 679 307 q 591 53 679 118 q 361 -11 503 -11 q 178 16 265 -11 q 22 96 90 43 l 100 256 q 234 187 164 211 q 367 163 304 163 q 424 174 403 163 q 446 208 446 186 q 415 251 446 236 q 317 285 383 267 q 186 331 238 308 q 97 400 135 354 q 58 519 58 446 q 144 698 58 633 q 367 763 231 763 q 528 740 449 763 q 679 675 608 718 l 596 514 m 632 847 l 454 847 l 372 940 l 289 847 l 111 847 l 263 1060 l 481 1060 l 632 847 z "},"ș":{"ha":718,"x_min":22,"x_max":679,"o":"m 596 514 q 357 590 450 590 q 306 578 325 590 q 286 543 286 567 q 317 503 286 518 q 414 469 347 488 q 548 423 494 446 q 640 353 601 400 q 679 232 679 307 q 591 53 679 118 q 361 -11 503 -11 q 178 16 265 -11 q 22 96 90 43 l 100 256 q 234 187 164 211 q 367 163 304 163 q 424 174 403 163 q 446 208 446 186 q 415 251 446 236 q 317 285 383 267 q 186 331 238 308 q 97 400 135 354 q 58 519 58 446 q 144 698 58 633 q 367 763 231 763 q 528 740 449 763 q 679 675 608 718 l 596 514 m 254 -83 l 456 -83 l 353 -325 l 210 -325 l 254 -83 z "},"ṡ":{"ha":718,"x_min":22,"x_max":679,"o":"m 596 514 q 357 590 450 590 q 306 578 325 590 q 286 543 286 567 q 317 503 286 518 q 414 469 347 488 q 548 423 494 446 q 640 353 601 400 q 679 232 679 307 q 591 53 679 118 q 361 -11 503 -11 q 178 16 265 -11 q 22 96 90 43 l 100 256 q 234 187 164 211 q 367 163 304 163 q 424 174 403 163 q 446 208 446 186 q 415 251 446 236 q 317 285 383 267 q 186 331 238 308 q 97 400 135 354 q 58 519 58 446 q 144 698 58 633 q 367 763 231 763 q 528 740 449 763 q 679 675 608 718 l 596 514 m 369 1097 q 463 1060 426 1097 q 500 965 500 1024 q 463 871 500 908 q 369 833 426 833 q 276 871 313 833 q 239 965 239 908 q 276 1060 239 1024 q 369 1097 313 1097 z "},"ṣ":{"ha":718,"x_min":22,"x_max":679,"o":"m 596 514 q 357 590 450 590 q 306 578 325 590 q 286 543 286 567 q 317 503 286 518 q 414 469 347 488 q 548 423 494 446 q 640 353 601 400 q 679 232 679 307 q 591 53 679 118 q 361 -11 503 -11 q 178 16 265 -11 q 22 96 90 43 l 100 256 q 234 187 164 211 q 367 163 304 163 q 424 174 403 163 q 446 208 446 186 q 415 251 446 236 q 317 285 383 267 q 186 331 238 308 q 97 400 135 354 q 58 519 58 446 q 144 698 58 633 q 367 763 231 763 q 528 740 449 763 q 679 675 608 718 l 596 514 m 354 -94 q 448 -131 411 -94 q 485 -226 485 -168 q 448 -321 485 -283 q 354 -358 411 -358 q 260 -321 297 -358 q 224 -226 224 -283 q 260 -131 224 -168 q 354 -94 297 -94 z "},"ṩ":{"ha":718,"x_min":22,"x_max":679,"o":"m 596 514 q 357 590 450 590 q 306 578 325 590 q 286 543 286 567 q 317 503 286 518 q 414 469 347 488 q 548 423 494 446 q 640 353 601 400 q 679 232 679 307 q 591 53 679 118 q 361 -11 503 -11 q 178 16 265 -11 q 22 96 90 43 l 100 256 q 234 187 164 211 q 367 163 304 163 q 424 174 403 163 q 446 208 446 186 q 415 251 446 236 q 317 285 383 267 q 186 331 238 308 q 97 400 135 354 q 58 519 58 446 q 144 698 58 633 q 367 763 231 763 q 528 740 449 763 q 679 675 608 718 l 596 514 m 354 -94 q 448 -131 411 -94 q 485 -226 485 -168 q 448 -321 485 -283 q 354 -358 411 -358 q 260 -321 297 -358 q 224 -226 224 -283 q 260 -131 224 -168 q 354 -94 297 -94 m 354 1097 q 448 1060 411 1097 q 485 965 485 1024 q 448 871 485 908 q 354 833 411 833 q 260 871 297 833 q 224 965 224 908 q 260 1060 224 1024 q 354 1097 297 1097 z "},"ß":{"ha":921,"x_min":78,"x_max":876,"o":"m 78 683 q 124 873 78 792 q 255 998 169 954 q 456 1042 340 1042 q 646 1007 564 1042 q 773 910 728 972 q 818 764 818 847 q 783 629 818 692 q 688 532 747 567 q 824 446 772 508 q 876 297 876 383 q 828 141 876 208 q 693 37 781 74 q 489 0 606 0 l 421 0 l 421 178 l 475 178 q 595 210 553 178 q 638 300 638 242 q 592 389 638 358 q 461 419 546 419 l 435 419 l 435 596 q 542 629 504 596 q 579 726 579 663 q 548 822 579 789 q 458 854 517 854 q 360 815 394 854 q 325 703 325 776 l 325 0 l 78 0 l 78 683 z "},"t":{"ha":607,"x_min":25,"x_max":583,"o":"m 583 39 q 488 2 542 15 q 378 -11 433 -11 q 198 53 267 -11 q 129 229 129 117 l 129 551 l 25 551 l 25 715 l 129 715 l 129 924 l 375 924 l 375 715 l 569 715 l 569 551 l 375 551 l 375 268 q 440 189 375 189 q 536 214 481 189 l 583 39 z "},"ŧ":{"ha":607,"x_min":25,"x_max":583,"o":"m 583 39 q 488 2 542 15 q 378 -11 433 -11 q 198 53 267 -11 q 129 229 129 117 l 129 332 l 25 332 l 25 475 l 129 475 l 129 572 l 25 572 l 25 715 l 129 715 l 129 924 l 375 924 l 375 715 l 569 715 l 569 572 l 375 572 l 375 475 l 569 475 l 569 332 l 375 332 l 375 268 q 440 189 375 189 q 536 214 481 189 l 583 39 z "},"ť":{"ha":607,"x_min":25,"x_max":633,"o":"m 583 39 q 488 2 542 15 q 378 -11 433 -11 q 198 53 267 -11 q 129 229 129 117 l 129 551 l 25 551 l 25 715 l 129 715 l 129 924 l 375 924 l 375 715 l 569 715 l 569 551 l 375 551 l 375 268 q 440 189 375 189 q 536 214 481 189 l 583 39 m 451 1031 l 633 1031 l 599 786 l 451 786 l 451 1031 z "},"ţ":{"ha":607,"x_min":25,"x_max":583,"o":"m 428 -78 q 514 -120 486 -90 q 542 -190 542 -150 q 491 -291 542 -257 q 364 -325 440 -325 q 211 -297 288 -325 l 250 -186 q 321 -199 282 -199 q 361 -190 346 -199 q 376 -168 376 -182 q 356 -144 376 -153 q 303 -136 335 -136 l 269 -136 l 313 -4 q 178 73 228 13 q 129 229 129 133 l 129 551 l 25 551 l 25 715 l 129 715 l 129 924 l 375 924 l 375 715 l 569 715 l 569 551 l 375 551 l 375 268 q 440 189 375 189 q 536 214 481 189 l 583 39 q 454 -6 529 8 l 428 -78 z "},"ț":{"ha":607,"x_min":25,"x_max":583,"o":"m 583 39 q 488 2 542 15 q 378 -11 433 -11 q 198 53 267 -11 q 129 229 129 117 l 129 551 l 25 551 l 25 715 l 129 715 l 129 924 l 375 924 l 375 715 l 569 715 l 569 551 l 375 551 l 375 268 q 440 189 375 189 q 536 214 481 189 l 583 39 m 272 -83 l 474 -83 l 371 -325 l 228 -325 l 272 -83 z "},"ẗ":{"ha":607,"x_min":13,"x_max":583,"o":"m 583 39 q 488 2 542 15 q 378 -11 433 -11 q 198 53 267 -11 q 129 229 129 117 l 129 551 l 25 551 l 25 715 l 129 715 l 129 924 l 375 924 l 375 715 l 569 715 l 569 551 l 375 551 l 375 268 q 440 189 375 189 q 536 214 481 189 l 583 39 m 118 1236 q 194 1206 164 1236 q 224 1128 224 1175 q 194 1052 224 1082 q 118 1022 164 1022 q 42 1052 72 1022 q 13 1128 13 1082 q 42 1206 13 1175 q 118 1236 72 1236 m 385 1236 q 460 1206 431 1236 q 490 1128 490 1175 q 460 1052 490 1082 q 385 1022 431 1022 q 308 1052 338 1022 q 279 1128 279 1082 q 308 1206 279 1176 q 385 1236 338 1236 z "},"ṭ":{"ha":607,"x_min":25,"x_max":583,"o":"m 583 39 q 488 2 542 15 q 378 -11 433 -11 q 198 53 267 -11 q 129 229 129 117 l 129 551 l 25 551 l 25 715 l 129 715 l 129 924 l 375 924 l 375 715 l 569 715 l 569 551 l 375 551 l 375 268 q 440 189 375 189 q 536 214 481 189 l 583 39 m 372 -94 q 466 -131 429 -94 q 503 -226 503 -168 q 466 -321 503 -283 q 372 -358 429 -358 q 278 -321 315 -358 q 242 -226 242 -283 q 278 -131 242 -168 q 372 -94 315 -94 z "},"ṯ":{"ha":607,"x_min":25,"x_max":589,"o":"m 583 39 q 488 2 542 15 q 378 -11 433 -11 q 198 53 267 -11 q 129 229 129 117 l 129 551 l 25 551 l 25 715 l 129 715 l 129 924 l 375 924 l 375 715 l 569 715 l 569 551 l 375 551 l 375 268 q 440 189 375 189 q 536 214 481 189 l 583 39 m 160 -107 l 589 -107 l 589 -253 l 160 -253 l 160 -107 z "},"u":{"ha":922,"x_min":72,"x_max":828,"o":"m 828 751 l 828 0 l 581 0 l 581 122 q 340 -11 504 -8 q 145 67 218 -11 q 72 276 72 146 l 72 751 l 319 751 l 319 347 q 352 247 319 283 q 440 211 385 211 q 543 259 506 213 q 581 381 581 306 l 581 751 l 828 751 z "},"ú":{"ha":922,"x_min":72,"x_max":828,"o":"m 828 751 l 828 0 l 581 0 l 581 122 q 340 -11 504 -8 q 145 67 218 -11 q 72 276 72 146 l 72 751 l 319 751 l 319 347 q 352 247 319 283 q 440 211 385 211 q 543 259 506 213 q 581 381 581 306 l 581 751 l 828 751 m 503 1069 l 707 992 l 506 832 l 336 846 l 503 1069 z "},"ŭ":{"ha":922,"x_min":72,"x_max":828,"o":"m 828 751 l 828 0 l 581 0 l 581 122 q 340 -11 504 -8 q 145 67 218 -11 q 72 276 72 146 l 72 751 l 319 751 l 319 347 q 352 247 319 283 q 440 211 385 211 q 543 259 506 213 q 581 381 581 306 l 581 751 l 828 751 m 385 1057 q 408 999 388 1021 q 461 978 429 978 q 513 999 492 978 q 538 1057 535 1021 l 690 1057 q 624 894 686 956 q 461 833 561 833 q 298 894 361 833 q 231 1057 235 956 l 385 1057 z "},"û":{"ha":922,"x_min":72,"x_max":828,"o":"m 828 751 l 828 0 l 581 0 l 581 122 q 340 -11 504 -8 q 145 67 218 -11 q 72 276 72 146 l 72 751 l 319 751 l 319 347 q 352 247 319 283 q 440 211 385 211 q 543 259 506 213 q 581 381 581 306 l 581 751 l 828 751 m 721 847 l 543 847 l 461 940 l 378 847 l 200 847 l 351 1060 l 569 1060 l 721 847 z "},"ȕ":{"ha":922,"x_min":72,"x_max":828,"o":"m 828 751 l 828 0 l 581 0 l 581 122 q 340 -11 504 -8 q 145 67 218 -11 q 72 276 72 146 l 72 751 l 319 751 l 319 347 q 352 247 319 283 q 440 211 385 211 q 543 259 506 213 q 581 381 581 306 l 581 751 l 828 751 m 322 1074 l 433 844 l 260 832 l 135 1004 l 322 1074 m 596 1074 l 707 844 l 533 832 l 408 1004 l 596 1074 z "},"ü":{"ha":922,"x_min":72,"x_max":828,"o":"m 828 751 l 828 0 l 581 0 l 581 122 q 340 -11 504 -8 q 145 67 218 -11 q 72 276 72 146 l 72 751 l 319 751 l 319 347 q 352 247 319 283 q 440 211 385 211 q 543 259 506 213 q 581 381 581 306 l 581 751 l 828 751 m 328 1064 q 403 1033 374 1064 q 433 956 433 1003 q 403 880 433 910 q 328 850 374 850 q 252 880 282 850 q 222 956 222 910 q 252 1033 222 1003 q 328 1064 282 1064 m 594 1064 q 670 1033 640 1064 q 700 956 700 1003 q 670 880 700 910 q 594 850 640 850 q 518 880 547 850 q 489 956 489 910 q 518 1034 489 1004 q 594 1064 547 1064 z "},"ụ":{"ha":922,"x_min":72,"x_max":828,"o":"m 828 751 l 828 0 l 581 0 l 581 122 q 340 -11 504 -8 q 145 67 218 -11 q 72 276 72 146 l 72 751 l 319 751 l 319 347 q 352 247 319 283 q 440 211 385 211 q 543 259 506 213 q 581 381 581 306 l 581 751 l 828 751 m 458 -94 q 552 -131 515 -94 q 589 -226 589 -168 q 552 -321 589 -283 q 458 -358 515 -358 q 365 -321 401 -358 q 328 -226 328 -283 q 365 -131 328 -168 q 458 -94 401 -94 z "},"ù":{"ha":922,"x_min":72,"x_max":828,"o":"m 828 751 l 828 0 l 581 0 l 581 122 q 340 -11 504 -8 q 145 67 218 -11 q 72 276 72 146 l 72 751 l 319 751 l 319 347 q 352 247 319 283 q 440 211 385 211 q 543 259 506 213 q 581 381 581 306 l 581 751 l 828 751 m 426 1069 l 574 846 l 403 832 l 221 992 l 426 1069 z "},"ủ":{"ha":922,"x_min":72,"x_max":828,"o":"m 828 751 l 828 0 l 581 0 l 581 122 q 340 -11 504 -8 q 145 67 218 -11 q 72 276 72 146 l 72 751 l 319 751 l 319 347 q 352 247 319 283 q 440 211 385 211 q 543 259 506 213 q 581 381 581 306 l 581 751 l 828 751 m 469 1133 q 583 1098 542 1133 q 625 1003 625 1063 q 594 904 625 954 q 506 810 563 854 l 396 856 q 441 909 425 881 q 457 961 457 938 q 446 988 457 978 q 418 999 435 999 q 367 979 390 999 l 303 1081 q 469 1133 383 1133 z "},"ư":{"ha":954,"x_min":72,"x_max":989,"o":"m 958 958 q 989 822 989 885 q 947 701 989 750 q 828 633 906 653 l 828 0 l 581 0 l 581 122 q 340 -11 504 -8 q 145 67 218 -11 q 72 276 72 146 l 72 751 l 319 751 l 319 347 q 352 247 319 283 q 440 211 385 211 q 543 259 506 213 q 581 381 581 306 l 581 751 l 726 751 q 787 771 767 751 q 807 822 807 790 q 785 893 807 857 l 958 958 z "},"ứ":{"ha":954,"x_min":72,"x_max":989,"o":"m 958 958 q 989 822 989 885 q 947 701 989 750 q 828 633 906 653 l 828 0 l 581 0 l 581 122 q 340 -11 504 -8 q 145 67 218 -11 q 72 276 72 146 l 72 751 l 319 751 l 319 347 q 352 247 319 283 q 440 211 385 211 q 543 259 506 213 q 581 381 581 306 l 581 751 l 726 751 q 787 771 767 751 q 807 822 807 790 q 785 893 807 857 l 958 958 m 504 1069 l 708 992 l 507 832 l 338 846 l 504 1069 z "}}}
